G75*
%MOIN*%
%OFA0B0*%
%FSLAX25Y25*%
%IPPOS*%
%LPD*%
%AMOC8*
5,1,8,0,0,1.08239X$1,22.5*
%
%ADD10C,0.00300*%
%ADD11C,0.00800*%
D10*
X0030967Y0015317D02*
X0031935Y0015317D01*
X0031451Y0015317D02*
X0031451Y0017252D01*
X0031935Y0017252D01*
X0032939Y0017252D02*
X0033423Y0017252D01*
X0034390Y0016284D01*
X0034390Y0015317D02*
X0034390Y0017252D01*
X0035402Y0016768D02*
X0035402Y0015317D01*
X0036853Y0015317D01*
X0037337Y0015800D01*
X0036853Y0016284D01*
X0035402Y0016284D01*
X0035402Y0016768D02*
X0035885Y0017252D01*
X0036853Y0017252D01*
X0038333Y0017252D02*
X0038333Y0014833D01*
X0038817Y0014349D01*
X0039301Y0014349D01*
X0040312Y0015800D02*
X0040312Y0016768D01*
X0040796Y0017252D01*
X0041764Y0017252D01*
X0042247Y0016768D01*
X0042247Y0015800D01*
X0041764Y0015317D01*
X0040796Y0015317D01*
X0040312Y0015800D01*
X0038333Y0018219D02*
X0038333Y0018703D01*
X0038348Y0020117D02*
X0039799Y0020117D01*
X0040283Y0020600D01*
X0039799Y0021084D01*
X0038348Y0021084D01*
X0038348Y0021568D02*
X0038348Y0020117D01*
X0037337Y0020117D02*
X0037337Y0023019D01*
X0036853Y0022052D02*
X0037337Y0021568D01*
X0036853Y0022052D02*
X0035885Y0022052D01*
X0035402Y0021568D01*
X0035402Y0020117D01*
X0038348Y0021568D02*
X0038832Y0022052D01*
X0039799Y0022052D01*
X0041295Y0021568D02*
X0041295Y0020117D01*
X0041295Y0021568D02*
X0041778Y0022052D01*
X0042746Y0022052D01*
X0043230Y0021568D01*
X0044241Y0021084D02*
X0044241Y0020600D01*
X0044725Y0020117D01*
X0045692Y0020117D01*
X0046176Y0020600D01*
X0045692Y0021568D02*
X0044725Y0021568D01*
X0044241Y0021084D01*
X0043230Y0020117D02*
X0043230Y0023019D01*
X0044241Y0022535D02*
X0044725Y0023019D01*
X0045692Y0023019D01*
X0046176Y0022535D01*
X0046176Y0022052D01*
X0045692Y0021568D01*
X0046689Y0018219D02*
X0046205Y0017735D01*
X0046205Y0016768D01*
X0046689Y0016284D01*
X0048140Y0016284D01*
X0048140Y0015317D02*
X0048140Y0018219D01*
X0046689Y0018219D01*
X0045194Y0016768D02*
X0045194Y0015800D01*
X0044710Y0015317D01*
X0043743Y0015317D01*
X0043259Y0015800D01*
X0043259Y0016768D01*
X0043743Y0017252D01*
X0044710Y0017252D01*
X0045194Y0016768D01*
X0044710Y0013419D02*
X0043743Y0013419D01*
X0043259Y0012935D01*
X0043259Y0012452D01*
X0043743Y0011968D01*
X0044710Y0011968D01*
X0045194Y0012452D01*
X0045194Y0012935D01*
X0044710Y0013419D01*
X0044710Y0011968D02*
X0045194Y0011484D01*
X0045194Y0011000D01*
X0044710Y0010517D01*
X0043743Y0010517D01*
X0043259Y0011000D01*
X0043259Y0011484D01*
X0043743Y0011968D01*
X0046205Y0010517D02*
X0048140Y0010517D01*
X0047173Y0010517D02*
X0047173Y0013419D01*
X0048140Y0012452D01*
X0049152Y0013419D02*
X0051087Y0010517D01*
X0052091Y0012452D02*
X0052575Y0012452D01*
X0053542Y0011484D01*
X0053542Y0010517D02*
X0053542Y0012452D01*
X0054554Y0011968D02*
X0054554Y0011000D01*
X0055038Y0010517D01*
X0056489Y0010517D01*
X0056489Y0009549D02*
X0056489Y0012452D01*
X0055038Y0012452D01*
X0054554Y0011968D01*
X0057500Y0011968D02*
X0059435Y0011968D01*
X0059435Y0012452D02*
X0058468Y0013419D01*
X0057500Y0012452D01*
X0057500Y0010517D01*
X0059435Y0010517D02*
X0059435Y0012452D01*
X0060447Y0013419D02*
X0062382Y0010517D01*
X0063393Y0010517D02*
X0065328Y0010517D01*
X0063393Y0012452D01*
X0063393Y0012935D01*
X0063877Y0013419D01*
X0064845Y0013419D01*
X0065328Y0012935D01*
X0064845Y0015317D02*
X0063877Y0015317D01*
X0063393Y0015800D01*
X0063393Y0016284D01*
X0063877Y0016768D01*
X0064845Y0016768D01*
X0065328Y0017252D01*
X0065328Y0017735D01*
X0064845Y0018219D01*
X0063877Y0018219D01*
X0063393Y0017735D01*
X0062382Y0017252D02*
X0062382Y0015317D01*
X0062382Y0016284D02*
X0061414Y0017252D01*
X0060931Y0017252D01*
X0059927Y0017252D02*
X0059443Y0017252D01*
X0059443Y0015317D01*
X0059927Y0015317D02*
X0058959Y0015317D01*
X0057962Y0014349D02*
X0057478Y0014349D01*
X0056995Y0014833D01*
X0056995Y0017252D01*
X0056995Y0018219D02*
X0056995Y0018703D01*
X0057471Y0020117D02*
X0057471Y0022052D01*
X0056504Y0022052D02*
X0057471Y0021084D01*
X0056504Y0022052D02*
X0056020Y0022052D01*
X0054532Y0022052D02*
X0053564Y0022052D01*
X0053081Y0021568D01*
X0053081Y0020117D01*
X0054532Y0020117D01*
X0055016Y0020600D01*
X0054532Y0021084D01*
X0053081Y0021084D01*
X0052069Y0020600D02*
X0051585Y0020117D01*
X0050134Y0020117D01*
X0050134Y0019633D02*
X0050134Y0022052D01*
X0051585Y0022052D01*
X0052069Y0021568D01*
X0052069Y0020600D01*
X0051102Y0019149D02*
X0050618Y0019149D01*
X0050134Y0019633D01*
X0052568Y0018219D02*
X0052568Y0015317D01*
X0053051Y0015317D02*
X0052084Y0015317D01*
X0054063Y0015317D02*
X0054063Y0016768D01*
X0054547Y0017252D01*
X0055514Y0017252D01*
X0055514Y0016284D02*
X0054063Y0016284D01*
X0054063Y0015317D02*
X0055514Y0015317D01*
X0055998Y0015800D01*
X0055514Y0016284D01*
X0053051Y0018219D02*
X0052568Y0018219D01*
X0058468Y0020117D02*
X0059435Y0020117D01*
X0058952Y0020117D02*
X0058952Y0022052D01*
X0059435Y0022052D01*
X0058952Y0023019D02*
X0058952Y0023503D01*
X0060447Y0021568D02*
X0060447Y0020117D01*
X0060447Y0021568D02*
X0060931Y0022052D01*
X0061898Y0022052D01*
X0062382Y0021568D01*
X0063393Y0022535D02*
X0063877Y0023019D01*
X0064845Y0023019D01*
X0065328Y0022535D01*
X0065328Y0020600D01*
X0064845Y0020117D01*
X0063877Y0020117D01*
X0063393Y0020600D01*
X0062382Y0020117D02*
X0062382Y0023019D01*
X0059443Y0018703D02*
X0059443Y0018219D01*
X0064845Y0015317D02*
X0065328Y0015800D01*
X0031451Y0018219D02*
X0031451Y0018703D01*
D11*
X0182553Y0091867D02*
X0182553Y0096867D01*
M02*
