G75*
%MOIN*%
%OFA0B0*%
%FSLAX25Y25*%
%IPPOS*%
%LPD*%
%AMOC8*
5,1,8,0,0,1.08239X$1,22.5*
%
%ADD10C,0.13398*%
%ADD11R,0.02800X0.06600*%
%ADD12R,0.06600X0.02800*%
%ADD13R,0.07099X0.05918*%
%ADD14C,0.06000*%
%ADD15C,0.06800*%
%ADD16C,0.08200*%
%ADD17R,0.05918X0.07099*%
%ADD18OC8,0.07100*%
%ADD19C,0.07100*%
%ADD20OC8,0.06800*%
%ADD21R,0.03280X0.04068*%
%ADD22R,0.05524X0.02965*%
D10*
X0021478Y0013367D03*
X0186478Y0013367D03*
X0186478Y0173867D03*
X0021478Y0173867D03*
D11*
X0078478Y0126567D03*
X0081578Y0126567D03*
X0084778Y0126567D03*
X0087878Y0126567D03*
X0091078Y0126567D03*
X0094178Y0126567D03*
X0097378Y0126567D03*
X0100478Y0126567D03*
X0100478Y0094167D03*
X0097378Y0094167D03*
X0094178Y0094167D03*
X0091078Y0094167D03*
X0087878Y0094167D03*
X0084778Y0094167D03*
X0081578Y0094167D03*
X0078478Y0094167D03*
D12*
X0073278Y0099367D03*
X0073278Y0102467D03*
X0073278Y0105667D03*
X0073278Y0108767D03*
X0073278Y0111967D03*
X0073278Y0115067D03*
X0073278Y0118267D03*
X0073278Y0121367D03*
X0105678Y0121367D03*
X0105678Y0118267D03*
X0105678Y0115067D03*
X0105678Y0111967D03*
X0105678Y0108767D03*
X0105678Y0105667D03*
X0105678Y0102467D03*
X0105678Y0099367D03*
D13*
X0139978Y0071607D03*
X0139978Y0064127D03*
X0172478Y0060430D03*
X0172478Y0068304D03*
X0185978Y0068304D03*
X0185978Y0060430D03*
X0100978Y0056367D03*
X0100978Y0048493D03*
X0079978Y0048493D03*
X0079978Y0056367D03*
X0044478Y0084930D03*
X0044478Y0092804D03*
D14*
X0081978Y0071367D03*
X0100978Y0071367D03*
D15*
X0109178Y0042267D02*
X0115178Y0042267D01*
X0115178Y0024467D02*
X0109178Y0024467D01*
X0096478Y0022867D02*
X0096478Y0016867D01*
X0086478Y0016867D02*
X0086478Y0022867D01*
X0076478Y0022867D02*
X0076478Y0016867D01*
X0061478Y0067367D02*
X0061478Y0073367D01*
X0051478Y0073367D02*
X0051478Y0067367D01*
X0041478Y0067367D02*
X0041478Y0073367D01*
X0031478Y0073367D02*
X0031478Y0067367D01*
X0021478Y0067367D02*
X0021478Y0073367D01*
X0063478Y0140367D02*
X0063478Y0146367D01*
X0073478Y0146367D02*
X0073478Y0140367D01*
X0083478Y0140367D02*
X0083478Y0146367D01*
X0093478Y0146367D02*
X0093478Y0140367D01*
X0103478Y0140367D02*
X0103478Y0146367D01*
X0113478Y0146367D02*
X0113478Y0140367D01*
X0123478Y0140367D02*
X0123478Y0146367D01*
X0134778Y0042267D02*
X0140778Y0042267D01*
X0140778Y0024467D02*
X0134778Y0024467D01*
X0159478Y0025867D02*
X0159478Y0031867D01*
X0169478Y0031867D02*
X0169478Y0025867D01*
X0169478Y0017867D02*
X0169478Y0011867D01*
X0159478Y0011867D02*
X0159478Y0017867D01*
D16*
X0166478Y0094367D03*
X0166478Y0104367D03*
X0176478Y0104367D03*
X0176478Y0094367D03*
X0176478Y0114367D03*
X0166478Y0114367D03*
X0166478Y0124367D03*
X0176478Y0124367D03*
X0176478Y0134367D03*
X0166478Y0134367D03*
X0023978Y0137367D03*
X0023978Y0127367D03*
X0023978Y0117367D03*
X0023978Y0107367D03*
X0023978Y0097367D03*
X0023978Y0147367D03*
D17*
X0039541Y0110867D03*
X0047415Y0110867D03*
X0052738Y0083867D03*
X0060219Y0083867D03*
D18*
X0124978Y0077867D03*
X0157978Y0063367D03*
D19*
X0157978Y0053367D03*
X0124978Y0087867D03*
D20*
X0113478Y0157367D03*
X0103478Y0157367D03*
X0093478Y0157367D03*
X0083478Y0157367D03*
X0083478Y0167367D03*
X0093478Y0167367D03*
X0103478Y0167367D03*
X0113478Y0167367D03*
D21*
X0061506Y0098367D03*
X0061506Y0091867D03*
X0052451Y0091867D03*
X0052451Y0098367D03*
D22*
X0176360Y0053107D03*
X0176360Y0049367D03*
X0176360Y0045627D03*
X0186597Y0045627D03*
X0186597Y0053107D03*
M02*
