G75*
%MOIN*%
%OFA0B0*%
%FSLAX25Y25*%
%IPPOS*%
%LPD*%
%AMOC8*
5,1,8,0,0,1.08239X$1,22.5*
%
%ADD10C,0.00400*%
%ADD11R,0.00900X0.00300*%
%ADD12R,0.01500X0.00300*%
%ADD13R,0.02100X0.00300*%
%ADD14R,0.02700X0.00300*%
%ADD15R,0.03000X0.00300*%
%ADD16R,0.03300X0.00300*%
%ADD17R,0.03600X0.00300*%
%ADD18R,0.03900X0.00300*%
%ADD19R,0.00300X0.00300*%
%ADD20R,0.04200X0.00300*%
%ADD21R,0.00600X0.00300*%
%ADD22R,0.04500X0.00300*%
%ADD23R,0.04800X0.00300*%
%ADD24R,0.05100X0.00300*%
%ADD25R,0.01200X0.00300*%
%ADD26R,0.05400X0.00300*%
%ADD27R,0.05700X0.00300*%
%ADD28R,0.01800X0.00300*%
%ADD29R,0.06000X0.00300*%
%ADD30R,0.06300X0.00300*%
%ADD31R,0.02400X0.00300*%
%ADD32R,0.06600X0.00300*%
%ADD33R,0.17400X0.00300*%
%ADD34R,0.13500X0.00300*%
%ADD35R,0.17700X0.00300*%
%ADD36R,0.13800X0.00300*%
%ADD37R,0.18000X0.00300*%
%ADD38R,0.14100X0.00300*%
%ADD39R,0.18300X0.00300*%
%ADD40R,0.14400X0.00300*%
%ADD41C,0.00600*%
%ADD42C,0.00300*%
%ADD43C,0.01600*%
%ADD44C,0.00200*%
%ADD45C,0.00500*%
%ADD46C,0.00800*%
%ADD47C,0.01000*%
D10*
X0029678Y0007567D02*
X0029678Y0011170D01*
X0031480Y0011170D01*
X0032080Y0010569D01*
X0032080Y0009368D01*
X0031480Y0008768D01*
X0029678Y0008768D01*
X0030879Y0008768D02*
X0032080Y0007567D01*
X0033362Y0008167D02*
X0033962Y0007567D01*
X0035163Y0007567D01*
X0035764Y0008167D01*
X0035764Y0009368D01*
X0035163Y0009969D01*
X0033962Y0009969D01*
X0033362Y0009368D01*
X0033362Y0008167D01*
X0037045Y0008167D02*
X0037645Y0007567D01*
X0038846Y0007567D01*
X0039447Y0008167D01*
X0039447Y0009368D01*
X0038846Y0009969D01*
X0037645Y0009969D01*
X0037045Y0009368D01*
X0037045Y0008167D01*
X0040728Y0007567D02*
X0040728Y0009969D01*
X0041328Y0009969D01*
X0041929Y0009368D01*
X0042529Y0009969D01*
X0043130Y0009368D01*
X0043130Y0007567D01*
X0041929Y0007567D02*
X0041929Y0009368D01*
X0048094Y0008167D02*
X0048695Y0007567D01*
X0049896Y0007567D01*
X0050496Y0008167D01*
X0050496Y0010569D01*
X0049896Y0011170D01*
X0048695Y0011170D01*
X0048094Y0010569D01*
X0048094Y0008167D01*
X0051777Y0008167D02*
X0052378Y0007567D01*
X0054179Y0007567D01*
X0055460Y0008167D02*
X0055460Y0009368D01*
X0056061Y0009969D01*
X0057863Y0009969D01*
X0059144Y0009969D02*
X0059144Y0008167D01*
X0059744Y0007567D01*
X0061546Y0007567D01*
X0061546Y0009969D01*
X0062827Y0009969D02*
X0064628Y0009969D01*
X0065229Y0009368D01*
X0065229Y0008167D01*
X0064628Y0007567D01*
X0062827Y0007567D01*
X0062827Y0006366D02*
X0062827Y0009969D01*
X0066510Y0008167D02*
X0067110Y0008768D01*
X0068912Y0008768D01*
X0068912Y0009368D02*
X0068912Y0007567D01*
X0067110Y0007567D01*
X0066510Y0008167D01*
X0067110Y0009969D02*
X0068311Y0009969D01*
X0068912Y0009368D01*
X0070193Y0009969D02*
X0071995Y0009969D01*
X0072595Y0009368D01*
X0072595Y0007567D01*
X0073876Y0008167D02*
X0073876Y0009368D01*
X0074477Y0009969D01*
X0076278Y0009969D01*
X0077559Y0009969D02*
X0077559Y0008167D01*
X0078160Y0007567D01*
X0079961Y0007567D01*
X0079961Y0006966D02*
X0079361Y0006366D01*
X0078760Y0006366D01*
X0079961Y0006966D02*
X0079961Y0009969D01*
X0076278Y0007567D02*
X0074477Y0007567D01*
X0073876Y0008167D01*
X0070193Y0007567D02*
X0070193Y0009969D01*
X0057863Y0007567D02*
X0056061Y0007567D01*
X0055460Y0008167D01*
X0054179Y0009969D02*
X0052378Y0009969D01*
X0051777Y0009368D01*
X0051777Y0008167D01*
X0084926Y0008167D02*
X0085526Y0007567D01*
X0086727Y0007567D01*
X0087328Y0008167D01*
X0087328Y0008768D01*
X0086727Y0009368D01*
X0085526Y0009368D01*
X0084926Y0009969D01*
X0084926Y0010569D01*
X0085526Y0011170D01*
X0086727Y0011170D01*
X0087328Y0010569D01*
X0088609Y0009969D02*
X0088609Y0008167D01*
X0089209Y0007567D01*
X0091011Y0007567D01*
X0091011Y0006966D02*
X0090410Y0006366D01*
X0089810Y0006366D01*
X0091011Y0006966D02*
X0091011Y0009969D01*
X0092292Y0009368D02*
X0092892Y0009969D01*
X0094694Y0009969D01*
X0095975Y0009969D02*
X0097176Y0009969D01*
X0096576Y0010569D02*
X0096576Y0008167D01*
X0097176Y0007567D01*
X0098430Y0008167D02*
X0098430Y0009368D01*
X0099031Y0009969D01*
X0100232Y0009969D01*
X0100833Y0009368D01*
X0100833Y0008768D01*
X0098430Y0008768D01*
X0098430Y0008167D02*
X0099031Y0007567D01*
X0100232Y0007567D01*
X0102114Y0007567D02*
X0102114Y0009969D01*
X0102714Y0009969D01*
X0103315Y0009368D01*
X0103915Y0009969D01*
X0104516Y0009368D01*
X0104516Y0007567D01*
X0103315Y0007567D02*
X0103315Y0009368D01*
X0094694Y0008167D02*
X0094093Y0008768D01*
X0092892Y0008768D01*
X0092292Y0009368D01*
X0092292Y0007567D02*
X0094093Y0007567D01*
X0094694Y0008167D01*
X0094733Y0049193D02*
X0092331Y0049193D01*
X0091730Y0049793D01*
X0091730Y0050994D01*
X0092331Y0051595D01*
X0093532Y0052876D02*
X0092331Y0054077D01*
X0091730Y0055278D01*
X0093532Y0054677D02*
X0093532Y0052876D01*
X0094733Y0052876D01*
X0095334Y0053476D01*
X0095334Y0054677D01*
X0094733Y0055278D01*
X0094133Y0055278D01*
X0093532Y0054677D01*
X0094733Y0051595D02*
X0095334Y0050994D01*
X0095334Y0049793D01*
X0094733Y0049193D01*
X0074334Y0050293D02*
X0074334Y0051494D01*
X0073733Y0052095D01*
X0073733Y0053376D02*
X0074334Y0053976D01*
X0074334Y0055177D01*
X0073733Y0055778D01*
X0072532Y0055778D01*
X0071932Y0055177D01*
X0071932Y0054577D01*
X0072532Y0053376D01*
X0070730Y0053376D01*
X0070730Y0055778D01*
X0071331Y0052095D02*
X0070730Y0051494D01*
X0070730Y0050293D01*
X0071331Y0049693D01*
X0073733Y0049693D01*
X0074334Y0050293D01*
X0039233Y0086630D02*
X0036831Y0086630D01*
X0036230Y0087230D01*
X0036230Y0088431D01*
X0036831Y0089032D01*
X0036831Y0090313D02*
X0036230Y0090913D01*
X0036230Y0092114D01*
X0036831Y0092715D01*
X0037432Y0092715D01*
X0039834Y0090313D01*
X0039834Y0092715D01*
X0039233Y0089032D02*
X0039834Y0088431D01*
X0039834Y0087230D01*
X0039233Y0086630D01*
X0041350Y0115122D02*
X0042551Y0115122D01*
X0043151Y0115722D01*
X0044432Y0116923D02*
X0046834Y0116923D01*
X0046234Y0115122D02*
X0046234Y0118725D01*
X0044432Y0116923D01*
X0043151Y0118124D02*
X0042551Y0118725D01*
X0041350Y0118725D01*
X0040749Y0118124D01*
X0040749Y0115722D01*
X0041350Y0115122D01*
X0039797Y0145567D02*
X0037995Y0145567D01*
X0037995Y0149170D01*
X0039797Y0149170D01*
X0040397Y0148569D01*
X0040397Y0146167D01*
X0039797Y0145567D01*
X0036714Y0145567D02*
X0036714Y0149170D01*
X0034312Y0149170D02*
X0036714Y0145567D01*
X0034312Y0145567D02*
X0034312Y0149170D01*
X0033031Y0148569D02*
X0032431Y0149170D01*
X0031230Y0149170D01*
X0030629Y0148569D01*
X0030629Y0146167D01*
X0031230Y0145567D01*
X0032431Y0145567D01*
X0033031Y0146167D01*
X0033031Y0147368D01*
X0031830Y0147368D01*
X0117175Y0085685D02*
X0117776Y0086286D01*
X0118376Y0086286D01*
X0118977Y0085685D01*
X0118977Y0084484D01*
X0118376Y0083884D01*
X0117776Y0083884D01*
X0117175Y0084484D01*
X0117175Y0085685D01*
X0118977Y0085685D02*
X0119577Y0086286D01*
X0120178Y0086286D01*
X0120778Y0085685D01*
X0120778Y0084484D01*
X0120178Y0083884D01*
X0119577Y0083884D01*
X0118977Y0084484D01*
X0120178Y0082602D02*
X0120778Y0082002D01*
X0120778Y0080801D01*
X0120178Y0080200D01*
X0117776Y0080200D01*
X0117175Y0080801D01*
X0117175Y0082002D01*
X0117776Y0082602D01*
X0132175Y0070685D02*
X0132175Y0069484D01*
X0132776Y0068884D01*
X0132776Y0067602D02*
X0133977Y0067602D01*
X0134577Y0067002D01*
X0134577Y0065200D01*
X0134577Y0066401D02*
X0135778Y0067602D01*
X0135178Y0068884D02*
X0135778Y0069484D01*
X0135778Y0070685D01*
X0135178Y0071286D01*
X0134577Y0071286D01*
X0133977Y0070685D01*
X0133977Y0070085D01*
X0133977Y0070685D02*
X0133376Y0071286D01*
X0132776Y0071286D01*
X0132175Y0070685D01*
X0132776Y0067602D02*
X0132175Y0067002D01*
X0132175Y0065200D01*
X0135778Y0065200D01*
X0150175Y0060551D02*
X0150175Y0059350D01*
X0150776Y0058750D01*
X0150776Y0057469D02*
X0150175Y0056868D01*
X0150175Y0055667D01*
X0150776Y0055067D01*
X0153178Y0055067D01*
X0153778Y0055667D01*
X0153778Y0056868D01*
X0153178Y0057469D01*
X0153178Y0058750D02*
X0153778Y0059350D01*
X0153778Y0060551D01*
X0153178Y0061152D01*
X0152577Y0061152D01*
X0151977Y0060551D01*
X0151977Y0059951D01*
X0151977Y0060551D02*
X0151376Y0061152D01*
X0150776Y0061152D01*
X0150175Y0060551D01*
D11*
X0044878Y0051667D03*
X0044578Y0051367D03*
X0044578Y0051067D03*
X0044278Y0050767D03*
X0043678Y0049867D03*
X0041578Y0045667D03*
X0037378Y0049867D03*
X0037978Y0050767D03*
X0038278Y0051067D03*
X0038278Y0051367D03*
X0038578Y0051667D03*
X0035278Y0045667D03*
X0042478Y0029467D03*
X0042478Y0029167D03*
X0039478Y0023167D03*
D12*
X0039478Y0023467D03*
X0039478Y0023767D03*
X0042778Y0030367D03*
X0042778Y0030667D03*
X0044878Y0045367D03*
X0045478Y0045667D03*
X0045778Y0045967D03*
X0046078Y0046567D03*
X0046378Y0046867D03*
X0046378Y0047167D03*
X0046678Y0047767D03*
X0046678Y0048067D03*
X0046678Y0048367D03*
X0046378Y0048967D03*
X0046378Y0049267D03*
X0046078Y0049567D03*
X0040378Y0048367D03*
X0040378Y0048067D03*
X0040378Y0047767D03*
X0040078Y0047167D03*
X0040078Y0046867D03*
X0039778Y0046567D03*
X0039478Y0045967D03*
X0039178Y0045667D03*
X0038578Y0045367D03*
X0040078Y0048967D03*
X0040078Y0049267D03*
X0039778Y0049567D03*
D13*
X0037078Y0044767D03*
X0043378Y0044767D03*
X0043078Y0031867D03*
X0043078Y0031567D03*
X0039478Y0024367D03*
X0039478Y0024067D03*
D14*
X0039478Y0024667D03*
X0039478Y0024967D03*
X0043378Y0032767D03*
X0043678Y0033367D03*
X0043978Y0033967D03*
X0043978Y0034267D03*
X0044278Y0034567D03*
X0044278Y0034867D03*
X0044578Y0035167D03*
X0044578Y0035467D03*
X0044878Y0035767D03*
X0044878Y0036067D03*
X0045178Y0036367D03*
X0045178Y0036667D03*
X0045478Y0036967D03*
X0045478Y0037267D03*
X0045778Y0037567D03*
X0045778Y0037867D03*
X0046078Y0038167D03*
X0046078Y0038467D03*
X0046378Y0039067D03*
X0046678Y0039667D03*
X0046978Y0040267D03*
X0047278Y0040867D03*
X0047578Y0041467D03*
X0047578Y0041767D03*
X0047878Y0042067D03*
X0047878Y0042367D03*
X0048178Y0042667D03*
X0048178Y0042967D03*
X0048478Y0043267D03*
X0048478Y0043567D03*
X0048778Y0043867D03*
X0048778Y0044167D03*
X0049078Y0044467D03*
X0049078Y0044767D03*
X0049378Y0045067D03*
X0049378Y0045367D03*
X0049678Y0045667D03*
X0049678Y0045967D03*
X0049978Y0046267D03*
X0049978Y0046567D03*
X0050278Y0046867D03*
X0050278Y0047167D03*
X0050578Y0047467D03*
X0050578Y0047767D03*
X0050878Y0048367D03*
X0051178Y0048967D03*
X0051178Y0049267D03*
X0051478Y0049567D03*
X0051478Y0049867D03*
X0051778Y0050167D03*
X0051778Y0050467D03*
X0052078Y0050767D03*
X0052078Y0051067D03*
X0052378Y0051367D03*
X0052378Y0051667D03*
X0052678Y0051967D03*
X0052678Y0052267D03*
X0052978Y0052567D03*
X0052978Y0052867D03*
X0053278Y0053167D03*
X0053278Y0053467D03*
X0053578Y0053767D03*
X0053578Y0054067D03*
X0053878Y0054367D03*
X0053878Y0054667D03*
D15*
X0054028Y0054967D03*
X0045028Y0050167D03*
X0038728Y0050167D03*
X0039328Y0025567D03*
X0039328Y0025267D03*
D16*
X0039178Y0025867D03*
X0039178Y0026167D03*
D17*
X0039028Y0026467D03*
X0039028Y0026767D03*
X0039028Y0027067D03*
X0037228Y0045067D03*
X0043528Y0045067D03*
X0043828Y0051967D03*
X0037528Y0051967D03*
D18*
X0037678Y0052267D03*
X0043978Y0052267D03*
X0038878Y0027667D03*
X0038878Y0027367D03*
D19*
X0042178Y0027667D03*
X0042178Y0027967D03*
D20*
X0038728Y0027967D03*
X0038728Y0028267D03*
X0037828Y0052567D03*
X0044128Y0052567D03*
D21*
X0042328Y0051667D03*
X0041428Y0045967D03*
X0036028Y0051667D03*
X0035128Y0045967D03*
X0042328Y0028867D03*
X0042328Y0028567D03*
X0042328Y0028267D03*
D22*
X0038578Y0028567D03*
X0038578Y0028867D03*
D23*
X0038428Y0029167D03*
X0038428Y0029467D03*
D24*
X0038278Y0029767D03*
X0038278Y0030067D03*
D25*
X0042628Y0030067D03*
X0042628Y0029767D03*
X0042028Y0045367D03*
X0039628Y0046267D03*
X0040228Y0047467D03*
X0040228Y0048667D03*
X0035728Y0045367D03*
X0045928Y0046267D03*
X0046528Y0047467D03*
X0046528Y0048667D03*
D26*
X0038128Y0030667D03*
X0038128Y0030367D03*
D27*
X0037978Y0030967D03*
X0037978Y0031267D03*
D28*
X0042928Y0031267D03*
X0042928Y0030967D03*
X0045928Y0049867D03*
X0039628Y0049867D03*
D29*
X0030328Y0047467D03*
X0030028Y0048067D03*
X0029728Y0048667D03*
X0029428Y0049267D03*
X0033028Y0041767D03*
X0033328Y0041167D03*
X0033628Y0040567D03*
X0033928Y0039967D03*
X0034228Y0039367D03*
X0034528Y0038767D03*
X0034828Y0038167D03*
X0035128Y0037567D03*
X0035428Y0036967D03*
X0036928Y0033667D03*
X0037228Y0033067D03*
X0037528Y0032467D03*
X0037828Y0031867D03*
X0037828Y0031567D03*
D30*
X0037678Y0032167D03*
X0037378Y0032767D03*
X0037078Y0033367D03*
X0036778Y0033967D03*
X0036778Y0034267D03*
X0036478Y0034567D03*
X0036478Y0034867D03*
X0036178Y0035167D03*
X0036178Y0035467D03*
X0035878Y0035767D03*
X0035878Y0036067D03*
X0035578Y0036367D03*
X0035578Y0036667D03*
X0035278Y0037267D03*
X0034978Y0037867D03*
X0034678Y0038467D03*
X0034378Y0039067D03*
X0034078Y0039667D03*
X0033778Y0040267D03*
X0033478Y0040867D03*
X0033178Y0041467D03*
X0032878Y0042067D03*
X0032878Y0042367D03*
X0032578Y0042667D03*
X0032578Y0042967D03*
X0032278Y0043267D03*
X0032278Y0043567D03*
X0031978Y0043867D03*
X0031978Y0044167D03*
X0031678Y0044467D03*
X0031678Y0044767D03*
X0031378Y0045067D03*
X0031378Y0045367D03*
X0031078Y0045667D03*
X0031078Y0045967D03*
X0030778Y0046267D03*
X0030778Y0046567D03*
X0030478Y0046867D03*
X0030478Y0047167D03*
X0030178Y0047767D03*
X0029878Y0048367D03*
X0029578Y0048967D03*
X0029278Y0049567D03*
X0029278Y0049867D03*
X0028978Y0050167D03*
X0028978Y0050467D03*
X0028678Y0050767D03*
X0028678Y0051067D03*
X0028378Y0051367D03*
X0028378Y0051667D03*
X0028078Y0051967D03*
X0028078Y0052267D03*
X0027778Y0052567D03*
X0027778Y0052867D03*
X0027478Y0053167D03*
X0027478Y0053467D03*
X0027178Y0053767D03*
X0027178Y0054067D03*
X0026878Y0054367D03*
X0026878Y0054667D03*
D31*
X0038428Y0050467D03*
X0044728Y0050467D03*
X0050728Y0048067D03*
X0051028Y0048667D03*
X0047428Y0041167D03*
X0047128Y0040567D03*
X0046828Y0039967D03*
X0046528Y0039367D03*
X0046228Y0038767D03*
X0043828Y0033667D03*
X0043528Y0033067D03*
X0043228Y0032467D03*
X0043228Y0032167D03*
D32*
X0026728Y0054967D03*
D33*
X0032128Y0055267D03*
D34*
X0048778Y0055267D03*
D35*
X0031978Y0055567D03*
X0031978Y0055867D03*
D36*
X0048928Y0055867D03*
X0048928Y0055567D03*
D37*
X0031828Y0056167D03*
X0031828Y0056467D03*
D38*
X0049078Y0056467D03*
X0049078Y0056167D03*
D39*
X0031678Y0056767D03*
X0031678Y0057067D03*
D40*
X0049228Y0057067D03*
X0049228Y0056767D03*
D41*
X0048978Y0065367D02*
X0046478Y0067867D01*
X0046478Y0072867D01*
X0048978Y0075367D01*
X0053978Y0075367D01*
X0056478Y0072867D01*
X0058978Y0075367D01*
X0063978Y0075367D01*
X0066478Y0072867D01*
X0066478Y0067867D01*
X0063978Y0065367D01*
X0058978Y0065367D01*
X0056478Y0067867D01*
X0053978Y0065367D01*
X0048978Y0065367D01*
X0046478Y0067867D02*
X0043978Y0065367D01*
X0038978Y0065367D01*
X0036478Y0067867D01*
X0033978Y0065367D01*
X0028978Y0065367D01*
X0026478Y0067867D01*
X0023978Y0065367D01*
X0018978Y0065367D01*
X0016478Y0067867D01*
X0016478Y0072867D01*
X0018978Y0075367D01*
X0023978Y0075367D01*
X0026478Y0072867D01*
X0028978Y0075367D01*
X0033978Y0075367D01*
X0036478Y0072867D01*
X0038978Y0075367D01*
X0043978Y0075367D01*
X0046478Y0072867D01*
X0036478Y0072867D02*
X0036478Y0067867D01*
X0026478Y0067867D02*
X0026478Y0072867D01*
X0056478Y0072867D02*
X0056478Y0067867D01*
X0079478Y0063367D02*
X0079283Y0063369D01*
X0079088Y0063376D01*
X0078894Y0063388D01*
X0078700Y0063405D01*
X0078506Y0063426D01*
X0078313Y0063452D01*
X0078121Y0063483D01*
X0077929Y0063518D01*
X0077739Y0063558D01*
X0077549Y0063603D01*
X0077360Y0063652D01*
X0077173Y0063706D01*
X0076987Y0063765D01*
X0076803Y0063827D01*
X0076620Y0063895D01*
X0076439Y0063967D01*
X0076260Y0064043D01*
X0076082Y0064123D01*
X0075907Y0064208D01*
X0075734Y0064297D01*
X0075563Y0064391D01*
X0075394Y0064488D01*
X0075228Y0064590D01*
X0075064Y0064695D01*
X0074903Y0064804D01*
X0074744Y0064918D01*
X0074589Y0065035D01*
X0074436Y0065156D01*
X0074286Y0065281D01*
X0074139Y0065409D01*
X0073996Y0065541D01*
X0073856Y0065676D01*
X0073719Y0065814D01*
X0073585Y0065956D01*
X0073455Y0066101D01*
X0073329Y0066250D01*
X0073206Y0066401D01*
X0073087Y0066555D01*
X0072972Y0066712D01*
X0072860Y0066872D01*
X0072753Y0067034D01*
X0072649Y0067199D01*
X0072550Y0067367D01*
X0072454Y0067537D01*
X0072363Y0067709D01*
X0072276Y0067883D01*
X0072194Y0068060D01*
X0072115Y0068238D01*
X0072041Y0068418D01*
X0071972Y0068600D01*
X0071906Y0068784D01*
X0071846Y0068969D01*
X0071790Y0069156D01*
X0071738Y0069344D01*
X0071691Y0069533D01*
X0071649Y0069723D01*
X0071611Y0069914D01*
X0071578Y0070106D01*
X0071550Y0070299D01*
X0071526Y0070492D01*
X0071507Y0070686D01*
X0071493Y0070880D01*
X0071483Y0071075D01*
X0071479Y0071270D01*
X0071479Y0071464D01*
X0071483Y0071659D01*
X0071493Y0071854D01*
X0071507Y0072048D01*
X0071526Y0072242D01*
X0071550Y0072435D01*
X0071578Y0072628D01*
X0071611Y0072820D01*
X0071649Y0073011D01*
X0071691Y0073201D01*
X0071738Y0073390D01*
X0071790Y0073578D01*
X0071846Y0073765D01*
X0071906Y0073950D01*
X0071972Y0074134D01*
X0072041Y0074316D01*
X0072115Y0074496D01*
X0072194Y0074674D01*
X0072276Y0074851D01*
X0072363Y0075025D01*
X0072454Y0075197D01*
X0072550Y0075367D01*
X0072649Y0075535D01*
X0072753Y0075700D01*
X0072860Y0075862D01*
X0072972Y0076022D01*
X0073087Y0076179D01*
X0073206Y0076333D01*
X0073329Y0076484D01*
X0073455Y0076633D01*
X0073585Y0076778D01*
X0073719Y0076920D01*
X0073856Y0077058D01*
X0073996Y0077193D01*
X0074139Y0077325D01*
X0074286Y0077453D01*
X0074436Y0077578D01*
X0074589Y0077699D01*
X0074744Y0077816D01*
X0074903Y0077930D01*
X0075064Y0078039D01*
X0075228Y0078144D01*
X0075394Y0078246D01*
X0075563Y0078343D01*
X0075734Y0078437D01*
X0075907Y0078526D01*
X0076082Y0078611D01*
X0076260Y0078691D01*
X0076439Y0078767D01*
X0076620Y0078839D01*
X0076803Y0078907D01*
X0076987Y0078969D01*
X0077173Y0079028D01*
X0077360Y0079082D01*
X0077549Y0079131D01*
X0077739Y0079176D01*
X0077929Y0079216D01*
X0078121Y0079251D01*
X0078313Y0079282D01*
X0078506Y0079308D01*
X0078700Y0079329D01*
X0078894Y0079346D01*
X0079088Y0079358D01*
X0079283Y0079365D01*
X0079478Y0079367D01*
X0103478Y0079367D01*
X0103673Y0079365D01*
X0103868Y0079358D01*
X0104062Y0079346D01*
X0104256Y0079329D01*
X0104450Y0079308D01*
X0104643Y0079282D01*
X0104835Y0079251D01*
X0105027Y0079216D01*
X0105217Y0079176D01*
X0105407Y0079131D01*
X0105596Y0079082D01*
X0105783Y0079028D01*
X0105969Y0078969D01*
X0106153Y0078907D01*
X0106336Y0078839D01*
X0106517Y0078767D01*
X0106696Y0078691D01*
X0106874Y0078611D01*
X0107049Y0078526D01*
X0107222Y0078437D01*
X0107393Y0078343D01*
X0107562Y0078246D01*
X0107728Y0078144D01*
X0107892Y0078039D01*
X0108053Y0077930D01*
X0108212Y0077816D01*
X0108367Y0077699D01*
X0108520Y0077578D01*
X0108670Y0077453D01*
X0108817Y0077325D01*
X0108960Y0077193D01*
X0109100Y0077058D01*
X0109237Y0076920D01*
X0109371Y0076778D01*
X0109501Y0076633D01*
X0109627Y0076484D01*
X0109750Y0076333D01*
X0109869Y0076179D01*
X0109984Y0076022D01*
X0110096Y0075862D01*
X0110203Y0075700D01*
X0110307Y0075535D01*
X0110406Y0075367D01*
X0110502Y0075197D01*
X0110593Y0075025D01*
X0110680Y0074851D01*
X0110762Y0074674D01*
X0110841Y0074496D01*
X0110915Y0074316D01*
X0110984Y0074134D01*
X0111050Y0073950D01*
X0111110Y0073765D01*
X0111166Y0073578D01*
X0111218Y0073390D01*
X0111265Y0073201D01*
X0111307Y0073011D01*
X0111345Y0072820D01*
X0111378Y0072628D01*
X0111406Y0072435D01*
X0111430Y0072242D01*
X0111449Y0072048D01*
X0111463Y0071854D01*
X0111473Y0071659D01*
X0111477Y0071464D01*
X0111477Y0071270D01*
X0111473Y0071075D01*
X0111463Y0070880D01*
X0111449Y0070686D01*
X0111430Y0070492D01*
X0111406Y0070299D01*
X0111378Y0070106D01*
X0111345Y0069914D01*
X0111307Y0069723D01*
X0111265Y0069533D01*
X0111218Y0069344D01*
X0111166Y0069156D01*
X0111110Y0068969D01*
X0111050Y0068784D01*
X0110984Y0068600D01*
X0110915Y0068418D01*
X0110841Y0068238D01*
X0110762Y0068060D01*
X0110680Y0067883D01*
X0110593Y0067709D01*
X0110502Y0067537D01*
X0110406Y0067367D01*
X0110307Y0067199D01*
X0110203Y0067034D01*
X0110096Y0066872D01*
X0109984Y0066712D01*
X0109869Y0066555D01*
X0109750Y0066401D01*
X0109627Y0066250D01*
X0109501Y0066101D01*
X0109371Y0065956D01*
X0109237Y0065814D01*
X0109100Y0065676D01*
X0108960Y0065541D01*
X0108817Y0065409D01*
X0108670Y0065281D01*
X0108520Y0065156D01*
X0108367Y0065035D01*
X0108212Y0064918D01*
X0108053Y0064804D01*
X0107892Y0064695D01*
X0107728Y0064590D01*
X0107562Y0064488D01*
X0107393Y0064391D01*
X0107222Y0064297D01*
X0107049Y0064208D01*
X0106874Y0064123D01*
X0106696Y0064043D01*
X0106517Y0063967D01*
X0106336Y0063895D01*
X0106153Y0063827D01*
X0105969Y0063765D01*
X0105783Y0063706D01*
X0105596Y0063652D01*
X0105407Y0063603D01*
X0105217Y0063558D01*
X0105027Y0063518D01*
X0104835Y0063483D01*
X0104643Y0063452D01*
X0104450Y0063426D01*
X0104256Y0063405D01*
X0104062Y0063388D01*
X0103868Y0063376D01*
X0103673Y0063369D01*
X0103478Y0063367D01*
X0079478Y0063367D01*
X0085978Y0071367D02*
X0088778Y0071367D01*
X0088778Y0067367D01*
X0090178Y0067367D02*
X0092678Y0067367D01*
X0092678Y0075367D01*
X0090178Y0075367D01*
X0090178Y0067367D01*
X0094178Y0067367D02*
X0094178Y0071367D01*
X0096978Y0071367D01*
X0094178Y0071367D02*
X0094178Y0075367D01*
X0088778Y0075367D02*
X0088778Y0071367D01*
X0116478Y0045367D02*
X0120478Y0045367D01*
X0129978Y0045367D01*
X0133478Y0045367D01*
X0136978Y0037367D02*
X0136978Y0036367D01*
X0137978Y0036367D01*
X0137978Y0030367D01*
X0136978Y0030367D01*
X0136978Y0029367D01*
X0133478Y0021367D02*
X0129978Y0021367D01*
X0119978Y0021367D01*
X0116478Y0021367D01*
X0112978Y0029367D02*
X0112978Y0030367D01*
X0111978Y0030367D01*
X0111978Y0036367D01*
X0112978Y0036367D01*
X0112978Y0037367D01*
X0123978Y0033367D02*
X0123980Y0033430D01*
X0123986Y0033492D01*
X0123996Y0033554D01*
X0124009Y0033616D01*
X0124027Y0033676D01*
X0124048Y0033735D01*
X0124073Y0033793D01*
X0124102Y0033849D01*
X0124134Y0033903D01*
X0124169Y0033955D01*
X0124207Y0034004D01*
X0124249Y0034052D01*
X0124293Y0034096D01*
X0124341Y0034138D01*
X0124390Y0034176D01*
X0124442Y0034211D01*
X0124496Y0034243D01*
X0124552Y0034272D01*
X0124610Y0034297D01*
X0124669Y0034318D01*
X0124729Y0034336D01*
X0124791Y0034349D01*
X0124853Y0034359D01*
X0124915Y0034365D01*
X0124978Y0034367D01*
X0125041Y0034365D01*
X0125103Y0034359D01*
X0125165Y0034349D01*
X0125227Y0034336D01*
X0125287Y0034318D01*
X0125346Y0034297D01*
X0125404Y0034272D01*
X0125460Y0034243D01*
X0125514Y0034211D01*
X0125566Y0034176D01*
X0125615Y0034138D01*
X0125663Y0034096D01*
X0125707Y0034052D01*
X0125749Y0034004D01*
X0125787Y0033955D01*
X0125822Y0033903D01*
X0125854Y0033849D01*
X0125883Y0033793D01*
X0125908Y0033735D01*
X0125929Y0033676D01*
X0125947Y0033616D01*
X0125960Y0033554D01*
X0125970Y0033492D01*
X0125976Y0033430D01*
X0125978Y0033367D01*
X0125976Y0033304D01*
X0125970Y0033242D01*
X0125960Y0033180D01*
X0125947Y0033118D01*
X0125929Y0033058D01*
X0125908Y0032999D01*
X0125883Y0032941D01*
X0125854Y0032885D01*
X0125822Y0032831D01*
X0125787Y0032779D01*
X0125749Y0032730D01*
X0125707Y0032682D01*
X0125663Y0032638D01*
X0125615Y0032596D01*
X0125566Y0032558D01*
X0125514Y0032523D01*
X0125460Y0032491D01*
X0125404Y0032462D01*
X0125346Y0032437D01*
X0125287Y0032416D01*
X0125227Y0032398D01*
X0125165Y0032385D01*
X0125103Y0032375D01*
X0125041Y0032369D01*
X0124978Y0032367D01*
X0124915Y0032369D01*
X0124853Y0032375D01*
X0124791Y0032385D01*
X0124729Y0032398D01*
X0124669Y0032416D01*
X0124610Y0032437D01*
X0124552Y0032462D01*
X0124496Y0032491D01*
X0124442Y0032523D01*
X0124390Y0032558D01*
X0124341Y0032596D01*
X0124293Y0032638D01*
X0124249Y0032682D01*
X0124207Y0032730D01*
X0124169Y0032779D01*
X0124134Y0032831D01*
X0124102Y0032885D01*
X0124073Y0032941D01*
X0124048Y0032999D01*
X0124027Y0033058D01*
X0124009Y0033118D01*
X0123996Y0033180D01*
X0123986Y0033242D01*
X0123980Y0033304D01*
X0123978Y0033367D01*
X0117978Y0033367D02*
X0117980Y0033539D01*
X0117986Y0033710D01*
X0117997Y0033882D01*
X0118012Y0034053D01*
X0118031Y0034224D01*
X0118054Y0034394D01*
X0118081Y0034564D01*
X0118113Y0034733D01*
X0118148Y0034901D01*
X0118188Y0035068D01*
X0118232Y0035234D01*
X0118279Y0035399D01*
X0118331Y0035563D01*
X0118387Y0035725D01*
X0118447Y0035886D01*
X0118511Y0036046D01*
X0118579Y0036204D01*
X0118650Y0036360D01*
X0118725Y0036514D01*
X0118805Y0036667D01*
X0118887Y0036817D01*
X0118974Y0036966D01*
X0119064Y0037112D01*
X0119158Y0037256D01*
X0119255Y0037398D01*
X0119356Y0037537D01*
X0119460Y0037674D01*
X0119567Y0037808D01*
X0119678Y0037939D01*
X0119791Y0038068D01*
X0119908Y0038194D01*
X0120028Y0038317D01*
X0120151Y0038437D01*
X0120277Y0038554D01*
X0120406Y0038667D01*
X0120537Y0038778D01*
X0120671Y0038885D01*
X0120808Y0038989D01*
X0120947Y0039090D01*
X0121089Y0039187D01*
X0121233Y0039281D01*
X0121379Y0039371D01*
X0121528Y0039458D01*
X0121678Y0039540D01*
X0121831Y0039620D01*
X0121985Y0039695D01*
X0122141Y0039766D01*
X0122299Y0039834D01*
X0122459Y0039898D01*
X0122620Y0039958D01*
X0122782Y0040014D01*
X0122946Y0040066D01*
X0123111Y0040113D01*
X0123277Y0040157D01*
X0123444Y0040197D01*
X0123612Y0040232D01*
X0123781Y0040264D01*
X0123951Y0040291D01*
X0124121Y0040314D01*
X0124292Y0040333D01*
X0124463Y0040348D01*
X0124635Y0040359D01*
X0124806Y0040365D01*
X0124978Y0040367D01*
X0125150Y0040365D01*
X0125321Y0040359D01*
X0125493Y0040348D01*
X0125664Y0040333D01*
X0125835Y0040314D01*
X0126005Y0040291D01*
X0126175Y0040264D01*
X0126344Y0040232D01*
X0126512Y0040197D01*
X0126679Y0040157D01*
X0126845Y0040113D01*
X0127010Y0040066D01*
X0127174Y0040014D01*
X0127336Y0039958D01*
X0127497Y0039898D01*
X0127657Y0039834D01*
X0127815Y0039766D01*
X0127971Y0039695D01*
X0128125Y0039620D01*
X0128278Y0039540D01*
X0128428Y0039458D01*
X0128577Y0039371D01*
X0128723Y0039281D01*
X0128867Y0039187D01*
X0129009Y0039090D01*
X0129148Y0038989D01*
X0129285Y0038885D01*
X0129419Y0038778D01*
X0129550Y0038667D01*
X0129679Y0038554D01*
X0129805Y0038437D01*
X0129928Y0038317D01*
X0130048Y0038194D01*
X0130165Y0038068D01*
X0130278Y0037939D01*
X0130389Y0037808D01*
X0130496Y0037674D01*
X0130600Y0037537D01*
X0130701Y0037398D01*
X0130798Y0037256D01*
X0130892Y0037112D01*
X0130982Y0036966D01*
X0131069Y0036817D01*
X0131151Y0036667D01*
X0131231Y0036514D01*
X0131306Y0036360D01*
X0131377Y0036204D01*
X0131445Y0036046D01*
X0131509Y0035886D01*
X0131569Y0035725D01*
X0131625Y0035563D01*
X0131677Y0035399D01*
X0131724Y0035234D01*
X0131768Y0035068D01*
X0131808Y0034901D01*
X0131843Y0034733D01*
X0131875Y0034564D01*
X0131902Y0034394D01*
X0131925Y0034224D01*
X0131944Y0034053D01*
X0131959Y0033882D01*
X0131970Y0033710D01*
X0131976Y0033539D01*
X0131978Y0033367D01*
X0131976Y0033195D01*
X0131970Y0033024D01*
X0131959Y0032852D01*
X0131944Y0032681D01*
X0131925Y0032510D01*
X0131902Y0032340D01*
X0131875Y0032170D01*
X0131843Y0032001D01*
X0131808Y0031833D01*
X0131768Y0031666D01*
X0131724Y0031500D01*
X0131677Y0031335D01*
X0131625Y0031171D01*
X0131569Y0031009D01*
X0131509Y0030848D01*
X0131445Y0030688D01*
X0131377Y0030530D01*
X0131306Y0030374D01*
X0131231Y0030220D01*
X0131151Y0030067D01*
X0131069Y0029917D01*
X0130982Y0029768D01*
X0130892Y0029622D01*
X0130798Y0029478D01*
X0130701Y0029336D01*
X0130600Y0029197D01*
X0130496Y0029060D01*
X0130389Y0028926D01*
X0130278Y0028795D01*
X0130165Y0028666D01*
X0130048Y0028540D01*
X0129928Y0028417D01*
X0129805Y0028297D01*
X0129679Y0028180D01*
X0129550Y0028067D01*
X0129419Y0027956D01*
X0129285Y0027849D01*
X0129148Y0027745D01*
X0129009Y0027644D01*
X0128867Y0027547D01*
X0128723Y0027453D01*
X0128577Y0027363D01*
X0128428Y0027276D01*
X0128278Y0027194D01*
X0128125Y0027114D01*
X0127971Y0027039D01*
X0127815Y0026968D01*
X0127657Y0026900D01*
X0127497Y0026836D01*
X0127336Y0026776D01*
X0127174Y0026720D01*
X0127010Y0026668D01*
X0126845Y0026621D01*
X0126679Y0026577D01*
X0126512Y0026537D01*
X0126344Y0026502D01*
X0126175Y0026470D01*
X0126005Y0026443D01*
X0125835Y0026420D01*
X0125664Y0026401D01*
X0125493Y0026386D01*
X0125321Y0026375D01*
X0125150Y0026369D01*
X0124978Y0026367D01*
X0124806Y0026369D01*
X0124635Y0026375D01*
X0124463Y0026386D01*
X0124292Y0026401D01*
X0124121Y0026420D01*
X0123951Y0026443D01*
X0123781Y0026470D01*
X0123612Y0026502D01*
X0123444Y0026537D01*
X0123277Y0026577D01*
X0123111Y0026621D01*
X0122946Y0026668D01*
X0122782Y0026720D01*
X0122620Y0026776D01*
X0122459Y0026836D01*
X0122299Y0026900D01*
X0122141Y0026968D01*
X0121985Y0027039D01*
X0121831Y0027114D01*
X0121678Y0027194D01*
X0121528Y0027276D01*
X0121379Y0027363D01*
X0121233Y0027453D01*
X0121089Y0027547D01*
X0120947Y0027644D01*
X0120808Y0027745D01*
X0120671Y0027849D01*
X0120537Y0027956D01*
X0120406Y0028067D01*
X0120277Y0028180D01*
X0120151Y0028297D01*
X0120028Y0028417D01*
X0119908Y0028540D01*
X0119791Y0028666D01*
X0119678Y0028795D01*
X0119567Y0028926D01*
X0119460Y0029060D01*
X0119356Y0029197D01*
X0119255Y0029336D01*
X0119158Y0029478D01*
X0119064Y0029622D01*
X0118974Y0029768D01*
X0118887Y0029917D01*
X0118805Y0030067D01*
X0118725Y0030220D01*
X0118650Y0030374D01*
X0118579Y0030530D01*
X0118511Y0030688D01*
X0118447Y0030848D01*
X0118387Y0031009D01*
X0118331Y0031171D01*
X0118279Y0031335D01*
X0118232Y0031500D01*
X0118188Y0031666D01*
X0118148Y0031833D01*
X0118113Y0032001D01*
X0118081Y0032170D01*
X0118054Y0032340D01*
X0118031Y0032510D01*
X0118012Y0032681D01*
X0117997Y0032852D01*
X0117986Y0033024D01*
X0117980Y0033195D01*
X0117978Y0033367D01*
X0101478Y0022367D02*
X0101478Y0017367D01*
X0098978Y0014867D01*
X0093978Y0014867D01*
X0091478Y0017367D01*
X0088978Y0014867D01*
X0083978Y0014867D01*
X0081478Y0017367D01*
X0078978Y0014867D01*
X0073978Y0014867D01*
X0071478Y0017367D01*
X0071478Y0022367D01*
X0073978Y0024867D01*
X0078978Y0024867D01*
X0081478Y0022367D01*
X0083978Y0024867D01*
X0088978Y0024867D01*
X0091478Y0022367D01*
X0093978Y0024867D01*
X0098978Y0024867D01*
X0101478Y0022367D01*
X0091478Y0022367D02*
X0091478Y0017367D01*
X0081478Y0017367D02*
X0081478Y0022367D01*
X0114978Y0082867D02*
X0114981Y0083112D01*
X0114990Y0083358D01*
X0115005Y0083603D01*
X0115026Y0083847D01*
X0115053Y0084091D01*
X0115086Y0084334D01*
X0115125Y0084577D01*
X0115170Y0084818D01*
X0115221Y0085058D01*
X0115278Y0085297D01*
X0115340Y0085534D01*
X0115409Y0085770D01*
X0115483Y0086004D01*
X0115563Y0086236D01*
X0115648Y0086466D01*
X0115739Y0086694D01*
X0115836Y0086919D01*
X0115938Y0087143D01*
X0116046Y0087363D01*
X0116159Y0087581D01*
X0116277Y0087796D01*
X0116401Y0088008D01*
X0116529Y0088217D01*
X0116663Y0088423D01*
X0116802Y0088625D01*
X0116946Y0088824D01*
X0117095Y0089019D01*
X0117248Y0089211D01*
X0117406Y0089399D01*
X0117568Y0089583D01*
X0117736Y0089762D01*
X0117907Y0089938D01*
X0118083Y0090109D01*
X0118262Y0090277D01*
X0118446Y0090439D01*
X0118634Y0090597D01*
X0118826Y0090750D01*
X0119021Y0090899D01*
X0119220Y0091043D01*
X0119422Y0091182D01*
X0119628Y0091316D01*
X0119837Y0091444D01*
X0120049Y0091568D01*
X0120264Y0091686D01*
X0120482Y0091799D01*
X0120702Y0091907D01*
X0120926Y0092009D01*
X0121151Y0092106D01*
X0121379Y0092197D01*
X0121609Y0092282D01*
X0121841Y0092362D01*
X0122075Y0092436D01*
X0122311Y0092505D01*
X0122548Y0092567D01*
X0122787Y0092624D01*
X0123027Y0092675D01*
X0123268Y0092720D01*
X0123511Y0092759D01*
X0123754Y0092792D01*
X0123998Y0092819D01*
X0124242Y0092840D01*
X0124487Y0092855D01*
X0124733Y0092864D01*
X0124978Y0092867D01*
X0125223Y0092864D01*
X0125469Y0092855D01*
X0125714Y0092840D01*
X0125958Y0092819D01*
X0126202Y0092792D01*
X0126445Y0092759D01*
X0126688Y0092720D01*
X0126929Y0092675D01*
X0127169Y0092624D01*
X0127408Y0092567D01*
X0127645Y0092505D01*
X0127881Y0092436D01*
X0128115Y0092362D01*
X0128347Y0092282D01*
X0128577Y0092197D01*
X0128805Y0092106D01*
X0129030Y0092009D01*
X0129254Y0091907D01*
X0129474Y0091799D01*
X0129692Y0091686D01*
X0129907Y0091568D01*
X0130119Y0091444D01*
X0130328Y0091316D01*
X0130534Y0091182D01*
X0130736Y0091043D01*
X0130935Y0090899D01*
X0131130Y0090750D01*
X0131322Y0090597D01*
X0131510Y0090439D01*
X0131694Y0090277D01*
X0131873Y0090109D01*
X0132049Y0089938D01*
X0132220Y0089762D01*
X0132388Y0089583D01*
X0132550Y0089399D01*
X0132708Y0089211D01*
X0132861Y0089019D01*
X0133010Y0088824D01*
X0133154Y0088625D01*
X0133293Y0088423D01*
X0133427Y0088217D01*
X0133555Y0088008D01*
X0133679Y0087796D01*
X0133797Y0087581D01*
X0133910Y0087363D01*
X0134018Y0087143D01*
X0134120Y0086919D01*
X0134217Y0086694D01*
X0134308Y0086466D01*
X0134393Y0086236D01*
X0134473Y0086004D01*
X0134547Y0085770D01*
X0134616Y0085534D01*
X0134678Y0085297D01*
X0134735Y0085058D01*
X0134786Y0084818D01*
X0134831Y0084577D01*
X0134870Y0084334D01*
X0134903Y0084091D01*
X0134930Y0083847D01*
X0134951Y0083603D01*
X0134966Y0083358D01*
X0134975Y0083112D01*
X0134978Y0082867D01*
X0134975Y0082622D01*
X0134966Y0082376D01*
X0134951Y0082131D01*
X0134930Y0081887D01*
X0134903Y0081643D01*
X0134870Y0081400D01*
X0134831Y0081157D01*
X0134786Y0080916D01*
X0134735Y0080676D01*
X0134678Y0080437D01*
X0134616Y0080200D01*
X0134547Y0079964D01*
X0134473Y0079730D01*
X0134393Y0079498D01*
X0134308Y0079268D01*
X0134217Y0079040D01*
X0134120Y0078815D01*
X0134018Y0078591D01*
X0133910Y0078371D01*
X0133797Y0078153D01*
X0133679Y0077938D01*
X0133555Y0077726D01*
X0133427Y0077517D01*
X0133293Y0077311D01*
X0133154Y0077109D01*
X0133010Y0076910D01*
X0132861Y0076715D01*
X0132708Y0076523D01*
X0132550Y0076335D01*
X0132388Y0076151D01*
X0132220Y0075972D01*
X0132049Y0075796D01*
X0131873Y0075625D01*
X0131694Y0075457D01*
X0131510Y0075295D01*
X0131322Y0075137D01*
X0131130Y0074984D01*
X0130935Y0074835D01*
X0130736Y0074691D01*
X0130534Y0074552D01*
X0130328Y0074418D01*
X0130119Y0074290D01*
X0129907Y0074166D01*
X0129692Y0074048D01*
X0129474Y0073935D01*
X0129254Y0073827D01*
X0129030Y0073725D01*
X0128805Y0073628D01*
X0128577Y0073537D01*
X0128347Y0073452D01*
X0128115Y0073372D01*
X0127881Y0073298D01*
X0127645Y0073229D01*
X0127408Y0073167D01*
X0127169Y0073110D01*
X0126929Y0073059D01*
X0126688Y0073014D01*
X0126445Y0072975D01*
X0126202Y0072942D01*
X0125958Y0072915D01*
X0125714Y0072894D01*
X0125469Y0072879D01*
X0125223Y0072870D01*
X0124978Y0072867D01*
X0124733Y0072870D01*
X0124487Y0072879D01*
X0124242Y0072894D01*
X0123998Y0072915D01*
X0123754Y0072942D01*
X0123511Y0072975D01*
X0123268Y0073014D01*
X0123027Y0073059D01*
X0122787Y0073110D01*
X0122548Y0073167D01*
X0122311Y0073229D01*
X0122075Y0073298D01*
X0121841Y0073372D01*
X0121609Y0073452D01*
X0121379Y0073537D01*
X0121151Y0073628D01*
X0120926Y0073725D01*
X0120702Y0073827D01*
X0120482Y0073935D01*
X0120264Y0074048D01*
X0120049Y0074166D01*
X0119837Y0074290D01*
X0119628Y0074418D01*
X0119422Y0074552D01*
X0119220Y0074691D01*
X0119021Y0074835D01*
X0118826Y0074984D01*
X0118634Y0075137D01*
X0118446Y0075295D01*
X0118262Y0075457D01*
X0118083Y0075625D01*
X0117907Y0075796D01*
X0117736Y0075972D01*
X0117568Y0076151D01*
X0117406Y0076335D01*
X0117248Y0076523D01*
X0117095Y0076715D01*
X0116946Y0076910D01*
X0116802Y0077109D01*
X0116663Y0077311D01*
X0116529Y0077517D01*
X0116401Y0077726D01*
X0116277Y0077938D01*
X0116159Y0078153D01*
X0116046Y0078371D01*
X0115938Y0078591D01*
X0115836Y0078815D01*
X0115739Y0079040D01*
X0115648Y0079268D01*
X0115563Y0079498D01*
X0115483Y0079730D01*
X0115409Y0079964D01*
X0115340Y0080200D01*
X0115278Y0080437D01*
X0115221Y0080676D01*
X0115170Y0080916D01*
X0115125Y0081157D01*
X0115086Y0081400D01*
X0115053Y0081643D01*
X0115026Y0081887D01*
X0115005Y0082131D01*
X0114990Y0082376D01*
X0114981Y0082622D01*
X0114978Y0082867D01*
X0128978Y0088367D02*
X0129978Y0088367D01*
X0130978Y0088367D01*
X0129978Y0088367D02*
X0129978Y0087367D01*
X0129978Y0088367D02*
X0129978Y0089367D01*
X0113878Y0102467D02*
X0109878Y0102467D01*
X0078978Y0098267D02*
X0077378Y0099867D01*
X0069078Y0105667D02*
X0064978Y0105667D01*
X0090978Y0130767D02*
X0090978Y0134767D01*
X0090978Y0138367D02*
X0095978Y0138367D01*
X0098478Y0140867D01*
X0100978Y0138367D01*
X0105978Y0138367D01*
X0108478Y0140867D01*
X0108478Y0145867D01*
X0105978Y0148367D01*
X0100978Y0148367D01*
X0098478Y0145867D01*
X0098478Y0140867D01*
X0098478Y0145867D02*
X0095978Y0148367D01*
X0090978Y0148367D01*
X0088478Y0145867D01*
X0088478Y0140867D01*
X0090978Y0138367D01*
X0088478Y0140867D02*
X0085978Y0138367D01*
X0080978Y0138367D01*
X0078478Y0140867D01*
X0075978Y0138367D01*
X0070978Y0138367D01*
X0068478Y0140867D01*
X0065978Y0138367D01*
X0060978Y0138367D01*
X0058478Y0140867D01*
X0058478Y0145867D01*
X0060978Y0148367D01*
X0065978Y0148367D01*
X0068478Y0145867D01*
X0070978Y0148367D01*
X0075978Y0148367D01*
X0078478Y0145867D01*
X0078478Y0140867D01*
X0078478Y0145867D02*
X0080978Y0148367D01*
X0085978Y0148367D01*
X0088478Y0145867D01*
X0085978Y0152367D02*
X0080978Y0152367D01*
X0078478Y0154867D01*
X0078478Y0169867D01*
X0080978Y0172367D01*
X0085978Y0172367D01*
X0088478Y0169867D01*
X0088478Y0154867D01*
X0090978Y0152367D01*
X0095978Y0152367D01*
X0098478Y0154867D01*
X0098478Y0169867D01*
X0100978Y0172367D01*
X0105978Y0172367D01*
X0108478Y0169867D01*
X0110978Y0172367D01*
X0115978Y0172367D01*
X0118478Y0169867D01*
X0118478Y0154867D01*
X0115978Y0152367D01*
X0110978Y0152367D01*
X0108478Y0154867D01*
X0108478Y0169867D01*
X0098478Y0169867D02*
X0095978Y0172367D01*
X0090978Y0172367D01*
X0088478Y0169867D01*
X0088478Y0154867D02*
X0085978Y0152367D01*
X0098478Y0154867D02*
X0100978Y0152367D01*
X0105978Y0152367D01*
X0108478Y0154867D01*
X0110978Y0148367D02*
X0115978Y0148367D01*
X0118478Y0145867D01*
X0120978Y0148367D01*
X0125978Y0148367D01*
X0128478Y0145867D01*
X0128478Y0140867D01*
X0125978Y0138367D01*
X0120978Y0138367D01*
X0118478Y0140867D01*
X0115978Y0138367D01*
X0110978Y0138367D01*
X0108478Y0140867D01*
X0108478Y0145867D02*
X0110978Y0148367D01*
X0118478Y0145867D02*
X0118478Y0140867D01*
X0068478Y0140867D02*
X0068478Y0145867D01*
X0147978Y0058367D02*
X0147981Y0058612D01*
X0147990Y0058858D01*
X0148005Y0059103D01*
X0148026Y0059347D01*
X0148053Y0059591D01*
X0148086Y0059834D01*
X0148125Y0060077D01*
X0148170Y0060318D01*
X0148221Y0060558D01*
X0148278Y0060797D01*
X0148340Y0061034D01*
X0148409Y0061270D01*
X0148483Y0061504D01*
X0148563Y0061736D01*
X0148648Y0061966D01*
X0148739Y0062194D01*
X0148836Y0062419D01*
X0148938Y0062643D01*
X0149046Y0062863D01*
X0149159Y0063081D01*
X0149277Y0063296D01*
X0149401Y0063508D01*
X0149529Y0063717D01*
X0149663Y0063923D01*
X0149802Y0064125D01*
X0149946Y0064324D01*
X0150095Y0064519D01*
X0150248Y0064711D01*
X0150406Y0064899D01*
X0150568Y0065083D01*
X0150736Y0065262D01*
X0150907Y0065438D01*
X0151083Y0065609D01*
X0151262Y0065777D01*
X0151446Y0065939D01*
X0151634Y0066097D01*
X0151826Y0066250D01*
X0152021Y0066399D01*
X0152220Y0066543D01*
X0152422Y0066682D01*
X0152628Y0066816D01*
X0152837Y0066944D01*
X0153049Y0067068D01*
X0153264Y0067186D01*
X0153482Y0067299D01*
X0153702Y0067407D01*
X0153926Y0067509D01*
X0154151Y0067606D01*
X0154379Y0067697D01*
X0154609Y0067782D01*
X0154841Y0067862D01*
X0155075Y0067936D01*
X0155311Y0068005D01*
X0155548Y0068067D01*
X0155787Y0068124D01*
X0156027Y0068175D01*
X0156268Y0068220D01*
X0156511Y0068259D01*
X0156754Y0068292D01*
X0156998Y0068319D01*
X0157242Y0068340D01*
X0157487Y0068355D01*
X0157733Y0068364D01*
X0157978Y0068367D01*
X0158223Y0068364D01*
X0158469Y0068355D01*
X0158714Y0068340D01*
X0158958Y0068319D01*
X0159202Y0068292D01*
X0159445Y0068259D01*
X0159688Y0068220D01*
X0159929Y0068175D01*
X0160169Y0068124D01*
X0160408Y0068067D01*
X0160645Y0068005D01*
X0160881Y0067936D01*
X0161115Y0067862D01*
X0161347Y0067782D01*
X0161577Y0067697D01*
X0161805Y0067606D01*
X0162030Y0067509D01*
X0162254Y0067407D01*
X0162474Y0067299D01*
X0162692Y0067186D01*
X0162907Y0067068D01*
X0163119Y0066944D01*
X0163328Y0066816D01*
X0163534Y0066682D01*
X0163736Y0066543D01*
X0163935Y0066399D01*
X0164130Y0066250D01*
X0164322Y0066097D01*
X0164510Y0065939D01*
X0164694Y0065777D01*
X0164873Y0065609D01*
X0165049Y0065438D01*
X0165220Y0065262D01*
X0165388Y0065083D01*
X0165550Y0064899D01*
X0165708Y0064711D01*
X0165861Y0064519D01*
X0166010Y0064324D01*
X0166154Y0064125D01*
X0166293Y0063923D01*
X0166427Y0063717D01*
X0166555Y0063508D01*
X0166679Y0063296D01*
X0166797Y0063081D01*
X0166910Y0062863D01*
X0167018Y0062643D01*
X0167120Y0062419D01*
X0167217Y0062194D01*
X0167308Y0061966D01*
X0167393Y0061736D01*
X0167473Y0061504D01*
X0167547Y0061270D01*
X0167616Y0061034D01*
X0167678Y0060797D01*
X0167735Y0060558D01*
X0167786Y0060318D01*
X0167831Y0060077D01*
X0167870Y0059834D01*
X0167903Y0059591D01*
X0167930Y0059347D01*
X0167951Y0059103D01*
X0167966Y0058858D01*
X0167975Y0058612D01*
X0167978Y0058367D01*
X0167975Y0058122D01*
X0167966Y0057876D01*
X0167951Y0057631D01*
X0167930Y0057387D01*
X0167903Y0057143D01*
X0167870Y0056900D01*
X0167831Y0056657D01*
X0167786Y0056416D01*
X0167735Y0056176D01*
X0167678Y0055937D01*
X0167616Y0055700D01*
X0167547Y0055464D01*
X0167473Y0055230D01*
X0167393Y0054998D01*
X0167308Y0054768D01*
X0167217Y0054540D01*
X0167120Y0054315D01*
X0167018Y0054091D01*
X0166910Y0053871D01*
X0166797Y0053653D01*
X0166679Y0053438D01*
X0166555Y0053226D01*
X0166427Y0053017D01*
X0166293Y0052811D01*
X0166154Y0052609D01*
X0166010Y0052410D01*
X0165861Y0052215D01*
X0165708Y0052023D01*
X0165550Y0051835D01*
X0165388Y0051651D01*
X0165220Y0051472D01*
X0165049Y0051296D01*
X0164873Y0051125D01*
X0164694Y0050957D01*
X0164510Y0050795D01*
X0164322Y0050637D01*
X0164130Y0050484D01*
X0163935Y0050335D01*
X0163736Y0050191D01*
X0163534Y0050052D01*
X0163328Y0049918D01*
X0163119Y0049790D01*
X0162907Y0049666D01*
X0162692Y0049548D01*
X0162474Y0049435D01*
X0162254Y0049327D01*
X0162030Y0049225D01*
X0161805Y0049128D01*
X0161577Y0049037D01*
X0161347Y0048952D01*
X0161115Y0048872D01*
X0160881Y0048798D01*
X0160645Y0048729D01*
X0160408Y0048667D01*
X0160169Y0048610D01*
X0159929Y0048559D01*
X0159688Y0048514D01*
X0159445Y0048475D01*
X0159202Y0048442D01*
X0158958Y0048415D01*
X0158714Y0048394D01*
X0158469Y0048379D01*
X0158223Y0048370D01*
X0157978Y0048367D01*
X0157733Y0048370D01*
X0157487Y0048379D01*
X0157242Y0048394D01*
X0156998Y0048415D01*
X0156754Y0048442D01*
X0156511Y0048475D01*
X0156268Y0048514D01*
X0156027Y0048559D01*
X0155787Y0048610D01*
X0155548Y0048667D01*
X0155311Y0048729D01*
X0155075Y0048798D01*
X0154841Y0048872D01*
X0154609Y0048952D01*
X0154379Y0049037D01*
X0154151Y0049128D01*
X0153926Y0049225D01*
X0153702Y0049327D01*
X0153482Y0049435D01*
X0153264Y0049548D01*
X0153049Y0049666D01*
X0152837Y0049790D01*
X0152628Y0049918D01*
X0152422Y0050052D01*
X0152220Y0050191D01*
X0152021Y0050335D01*
X0151826Y0050484D01*
X0151634Y0050637D01*
X0151446Y0050795D01*
X0151262Y0050957D01*
X0151083Y0051125D01*
X0150907Y0051296D01*
X0150736Y0051472D01*
X0150568Y0051651D01*
X0150406Y0051835D01*
X0150248Y0052023D01*
X0150095Y0052215D01*
X0149946Y0052410D01*
X0149802Y0052609D01*
X0149663Y0052811D01*
X0149529Y0053017D01*
X0149401Y0053226D01*
X0149277Y0053438D01*
X0149159Y0053653D01*
X0149046Y0053871D01*
X0148938Y0054091D01*
X0148836Y0054315D01*
X0148739Y0054540D01*
X0148648Y0054768D01*
X0148563Y0054998D01*
X0148483Y0055230D01*
X0148409Y0055464D01*
X0148340Y0055700D01*
X0148278Y0055937D01*
X0148221Y0056176D01*
X0148170Y0056416D01*
X0148125Y0056657D01*
X0148086Y0056900D01*
X0148053Y0057143D01*
X0148026Y0057387D01*
X0148005Y0057631D01*
X0147990Y0057876D01*
X0147981Y0058122D01*
X0147978Y0058367D01*
X0152978Y0053867D02*
X0152978Y0052867D01*
X0151978Y0052867D01*
X0152978Y0052867D02*
X0153978Y0052867D01*
X0152978Y0052867D02*
X0152978Y0051867D01*
X0156978Y0033867D02*
X0154478Y0031367D01*
X0154478Y0026367D01*
X0156978Y0023867D01*
X0161978Y0023867D01*
X0164478Y0026367D01*
X0166978Y0023867D01*
X0171978Y0023867D01*
X0174478Y0026367D01*
X0174478Y0031367D01*
X0171978Y0033867D01*
X0166978Y0033867D01*
X0164478Y0031367D01*
X0164478Y0026367D01*
X0164478Y0031367D02*
X0161978Y0033867D01*
X0156978Y0033867D01*
X0156978Y0019867D02*
X0161978Y0019867D01*
X0164478Y0017367D01*
X0166978Y0019867D01*
X0171978Y0019867D01*
X0174478Y0017367D01*
X0174478Y0012367D01*
X0171978Y0009867D01*
X0166978Y0009867D01*
X0164478Y0012367D01*
X0161978Y0009867D01*
X0156978Y0009867D01*
X0154478Y0012367D01*
X0154478Y0017367D01*
X0156978Y0019867D01*
X0164478Y0017367D02*
X0164478Y0012367D01*
D42*
X0164798Y0067080D02*
X0167266Y0067080D01*
X0167884Y0067697D01*
X0167884Y0068931D01*
X0167266Y0069548D01*
X0167884Y0070763D02*
X0167884Y0073232D01*
X0167884Y0071997D02*
X0164180Y0071997D01*
X0165415Y0070763D01*
X0164798Y0069548D02*
X0164180Y0068931D01*
X0164180Y0067697D01*
X0164798Y0067080D01*
X0178070Y0067205D02*
X0178687Y0066587D01*
X0181156Y0066587D01*
X0181773Y0067205D01*
X0181773Y0068439D01*
X0181156Y0069056D01*
X0181156Y0070271D02*
X0181773Y0070271D01*
X0181156Y0070271D02*
X0178687Y0072739D01*
X0178070Y0072739D01*
X0178070Y0070271D01*
X0178687Y0069056D02*
X0178070Y0068439D01*
X0178070Y0067205D01*
X0076944Y0086617D02*
X0073808Y0089753D01*
X0076944Y0086617D01*
X0075376Y0086617D02*
X0075376Y0089753D01*
X0075376Y0086617D01*
X0073808Y0086617D02*
X0076944Y0089753D01*
X0073808Y0086617D01*
X0073808Y0088185D02*
X0076944Y0088185D01*
X0073808Y0088185D01*
X0068328Y0086302D02*
X0068328Y0083834D01*
X0068328Y0082619D02*
X0067094Y0081385D01*
X0067094Y0082002D02*
X0067094Y0080150D01*
X0068328Y0080150D02*
X0064625Y0080150D01*
X0064625Y0082002D01*
X0065242Y0082619D01*
X0066477Y0082619D01*
X0067094Y0082002D01*
X0065860Y0083834D02*
X0064625Y0085068D01*
X0068328Y0085068D01*
X0033321Y0086517D02*
X0031519Y0086517D01*
X0031519Y0089219D01*
X0030559Y0088318D02*
X0030559Y0086517D01*
X0030559Y0087868D02*
X0028757Y0087868D01*
X0028757Y0088318D02*
X0028757Y0086517D01*
X0027816Y0086517D02*
X0026916Y0086517D01*
X0027366Y0086517D02*
X0027366Y0089219D01*
X0026916Y0089219D02*
X0027816Y0089219D01*
X0028757Y0088318D02*
X0029658Y0089219D01*
X0030559Y0088318D01*
X0025955Y0087868D02*
X0025504Y0087417D01*
X0024153Y0087417D01*
X0024153Y0086517D02*
X0024153Y0089219D01*
X0025504Y0089219D01*
X0025955Y0088769D01*
X0025955Y0087868D01*
X0025054Y0087417D02*
X0025955Y0086517D01*
X0023192Y0086517D02*
X0021391Y0086517D01*
X0021391Y0089219D01*
X0023192Y0089219D01*
X0022292Y0087868D02*
X0021391Y0087868D01*
X0020430Y0087417D02*
X0020430Y0086967D01*
X0019980Y0086517D01*
X0019079Y0086517D01*
X0018628Y0086967D01*
X0019079Y0087868D02*
X0019980Y0087868D01*
X0020430Y0087417D01*
X0020430Y0088769D02*
X0019980Y0089219D01*
X0019079Y0089219D01*
X0018628Y0088769D01*
X0018628Y0088318D01*
X0019079Y0087868D01*
D43*
X0079478Y0081367D02*
X0103478Y0081367D01*
X0103722Y0081364D01*
X0103965Y0081355D01*
X0104208Y0081340D01*
X0104451Y0081320D01*
X0104693Y0081293D01*
X0104934Y0081260D01*
X0105174Y0081222D01*
X0105414Y0081178D01*
X0105652Y0081128D01*
X0105889Y0081072D01*
X0106125Y0081010D01*
X0106359Y0080943D01*
X0106591Y0080870D01*
X0106822Y0080791D01*
X0107050Y0080707D01*
X0107277Y0080617D01*
X0107501Y0080522D01*
X0107723Y0080421D01*
X0107942Y0080315D01*
X0108158Y0080204D01*
X0108372Y0080087D01*
X0108583Y0079966D01*
X0108791Y0079839D01*
X0108996Y0079707D01*
X0109197Y0079570D01*
X0109395Y0079428D01*
X0109590Y0079282D01*
X0109781Y0079131D01*
X0109968Y0078975D01*
X0110151Y0078815D01*
X0110331Y0078650D01*
X0110506Y0078481D01*
X0110677Y0078308D01*
X0110844Y0078130D01*
X0111006Y0077949D01*
X0111164Y0077764D01*
X0111318Y0077575D01*
X0111467Y0077382D01*
X0111611Y0077186D01*
X0111750Y0076986D01*
X0111885Y0076783D01*
X0112014Y0076576D01*
X0112138Y0076367D01*
X0112257Y0076155D01*
X0112371Y0075939D01*
X0112480Y0075722D01*
X0112583Y0075501D01*
X0112681Y0075278D01*
X0112774Y0075053D01*
X0112861Y0074825D01*
X0112942Y0074596D01*
X0113018Y0074364D01*
X0113088Y0074131D01*
X0113153Y0073896D01*
X0113212Y0073660D01*
X0113265Y0073422D01*
X0113312Y0073183D01*
X0113353Y0072943D01*
X0113388Y0072702D01*
X0113418Y0072461D01*
X0113442Y0072218D01*
X0113459Y0071975D01*
X0113471Y0071732D01*
X0113477Y0071489D01*
X0113477Y0071245D01*
X0113471Y0071002D01*
X0113459Y0070759D01*
X0113442Y0070516D01*
X0113418Y0070273D01*
X0113388Y0070032D01*
X0113353Y0069791D01*
X0113312Y0069551D01*
X0113265Y0069312D01*
X0113212Y0069074D01*
X0113153Y0068838D01*
X0113088Y0068603D01*
X0113018Y0068370D01*
X0112942Y0068138D01*
X0112861Y0067909D01*
X0112774Y0067681D01*
X0112681Y0067456D01*
X0112583Y0067233D01*
X0112480Y0067012D01*
X0112371Y0066795D01*
X0112257Y0066579D01*
X0112138Y0066367D01*
X0112014Y0066158D01*
X0111885Y0065951D01*
X0111750Y0065748D01*
X0111611Y0065548D01*
X0111467Y0065352D01*
X0111318Y0065159D01*
X0111164Y0064970D01*
X0111006Y0064785D01*
X0110844Y0064604D01*
X0110677Y0064426D01*
X0110506Y0064253D01*
X0110331Y0064084D01*
X0110151Y0063919D01*
X0109968Y0063759D01*
X0109781Y0063603D01*
X0109590Y0063452D01*
X0109395Y0063306D01*
X0109197Y0063164D01*
X0108996Y0063027D01*
X0108791Y0062895D01*
X0108583Y0062768D01*
X0108372Y0062647D01*
X0108158Y0062530D01*
X0107942Y0062419D01*
X0107723Y0062313D01*
X0107501Y0062212D01*
X0107277Y0062117D01*
X0107050Y0062027D01*
X0106822Y0061943D01*
X0106591Y0061864D01*
X0106359Y0061791D01*
X0106125Y0061724D01*
X0105889Y0061662D01*
X0105652Y0061606D01*
X0105414Y0061556D01*
X0105174Y0061512D01*
X0104934Y0061474D01*
X0104693Y0061441D01*
X0104451Y0061414D01*
X0104208Y0061394D01*
X0103965Y0061379D01*
X0103722Y0061370D01*
X0103478Y0061367D01*
X0079478Y0061367D01*
X0079234Y0061370D01*
X0078991Y0061379D01*
X0078748Y0061394D01*
X0078505Y0061414D01*
X0078263Y0061441D01*
X0078022Y0061474D01*
X0077782Y0061512D01*
X0077542Y0061556D01*
X0077304Y0061606D01*
X0077067Y0061662D01*
X0076831Y0061724D01*
X0076597Y0061791D01*
X0076365Y0061864D01*
X0076134Y0061943D01*
X0075906Y0062027D01*
X0075679Y0062117D01*
X0075455Y0062212D01*
X0075233Y0062313D01*
X0075014Y0062419D01*
X0074798Y0062530D01*
X0074584Y0062647D01*
X0074373Y0062768D01*
X0074165Y0062895D01*
X0073960Y0063027D01*
X0073759Y0063164D01*
X0073561Y0063306D01*
X0073366Y0063452D01*
X0073175Y0063603D01*
X0072988Y0063759D01*
X0072805Y0063919D01*
X0072625Y0064084D01*
X0072450Y0064253D01*
X0072279Y0064426D01*
X0072112Y0064604D01*
X0071950Y0064785D01*
X0071792Y0064970D01*
X0071638Y0065159D01*
X0071489Y0065352D01*
X0071345Y0065548D01*
X0071206Y0065748D01*
X0071071Y0065951D01*
X0070942Y0066158D01*
X0070818Y0066367D01*
X0070699Y0066579D01*
X0070585Y0066795D01*
X0070476Y0067012D01*
X0070373Y0067233D01*
X0070275Y0067456D01*
X0070182Y0067681D01*
X0070095Y0067909D01*
X0070014Y0068138D01*
X0069938Y0068370D01*
X0069868Y0068603D01*
X0069803Y0068838D01*
X0069744Y0069074D01*
X0069691Y0069312D01*
X0069644Y0069551D01*
X0069603Y0069791D01*
X0069568Y0070032D01*
X0069538Y0070273D01*
X0069514Y0070516D01*
X0069497Y0070759D01*
X0069485Y0071002D01*
X0069479Y0071245D01*
X0069479Y0071489D01*
X0069485Y0071732D01*
X0069497Y0071975D01*
X0069514Y0072218D01*
X0069538Y0072461D01*
X0069568Y0072702D01*
X0069603Y0072943D01*
X0069644Y0073183D01*
X0069691Y0073422D01*
X0069744Y0073660D01*
X0069803Y0073896D01*
X0069868Y0074131D01*
X0069938Y0074364D01*
X0070014Y0074596D01*
X0070095Y0074825D01*
X0070182Y0075053D01*
X0070275Y0075278D01*
X0070373Y0075501D01*
X0070476Y0075722D01*
X0070585Y0075939D01*
X0070699Y0076155D01*
X0070818Y0076367D01*
X0070942Y0076576D01*
X0071071Y0076783D01*
X0071206Y0076986D01*
X0071345Y0077186D01*
X0071489Y0077382D01*
X0071638Y0077575D01*
X0071792Y0077764D01*
X0071950Y0077949D01*
X0072112Y0078130D01*
X0072279Y0078308D01*
X0072450Y0078481D01*
X0072625Y0078650D01*
X0072805Y0078815D01*
X0072988Y0078975D01*
X0073175Y0079131D01*
X0073366Y0079282D01*
X0073561Y0079428D01*
X0073759Y0079570D01*
X0073960Y0079707D01*
X0074165Y0079839D01*
X0074373Y0079966D01*
X0074584Y0080087D01*
X0074798Y0080204D01*
X0075014Y0080315D01*
X0075233Y0080421D01*
X0075455Y0080522D01*
X0075679Y0080617D01*
X0075906Y0080707D01*
X0076134Y0080791D01*
X0076365Y0080870D01*
X0076597Y0080943D01*
X0076831Y0081010D01*
X0077067Y0081072D01*
X0077304Y0081128D01*
X0077542Y0081178D01*
X0077782Y0081222D01*
X0078022Y0081260D01*
X0078263Y0081293D01*
X0078505Y0081320D01*
X0078748Y0081340D01*
X0078991Y0081355D01*
X0079234Y0081364D01*
X0079478Y0081367D01*
D44*
X0120478Y0045367D02*
X0120478Y0044367D01*
X0129978Y0044367D01*
X0129978Y0045367D01*
X0129978Y0022367D02*
X0119978Y0022367D01*
X0119978Y0021367D01*
X0129978Y0021367D02*
X0129978Y0022367D01*
D45*
X0130023Y0048117D02*
X0127021Y0048117D01*
X0127021Y0052620D01*
X0130023Y0052620D01*
X0131624Y0052620D02*
X0134627Y0052620D01*
X0133126Y0052620D02*
X0133126Y0048117D01*
X0128522Y0050369D02*
X0127021Y0050369D01*
X0125419Y0049618D02*
X0125419Y0048867D01*
X0124669Y0048117D01*
X0123167Y0048117D01*
X0122417Y0048867D01*
X0123167Y0050369D02*
X0124669Y0050369D01*
X0125419Y0049618D01*
X0125419Y0051870D02*
X0124669Y0052620D01*
X0123167Y0052620D01*
X0122417Y0051870D01*
X0122417Y0051119D01*
X0123167Y0050369D01*
X0120815Y0052620D02*
X0117813Y0052620D01*
X0117813Y0048117D01*
X0120815Y0048117D01*
X0119314Y0050369D02*
X0117813Y0050369D01*
X0116211Y0050369D02*
X0115461Y0049618D01*
X0113209Y0049618D01*
X0114710Y0049618D02*
X0116211Y0048117D01*
X0116211Y0050369D02*
X0116211Y0051870D01*
X0115461Y0052620D01*
X0113209Y0052620D01*
X0113209Y0048117D01*
X0092104Y0032070D02*
X0092104Y0030569D01*
X0091354Y0029818D01*
X0089102Y0029818D01*
X0090603Y0029818D02*
X0092104Y0028317D01*
X0089102Y0028317D02*
X0089102Y0032820D01*
X0091354Y0032820D01*
X0092104Y0032070D01*
X0087534Y0032820D02*
X0086032Y0032820D01*
X0086783Y0032820D02*
X0086783Y0028317D01*
X0086032Y0028317D02*
X0087534Y0028317D01*
X0084431Y0030569D02*
X0084431Y0032070D01*
X0083680Y0032820D01*
X0081428Y0032820D01*
X0081428Y0028317D01*
X0081428Y0029818D02*
X0083680Y0029818D01*
X0084431Y0030569D01*
X0059530Y0090617D02*
X0057728Y0090617D01*
X0059530Y0092418D01*
X0059530Y0092869D01*
X0059080Y0093319D01*
X0058179Y0093319D01*
X0057728Y0092869D01*
X0056583Y0092869D02*
X0056583Y0091067D01*
X0056133Y0090617D01*
X0054782Y0090617D01*
X0054782Y0093319D01*
X0056133Y0093319D01*
X0056583Y0092869D01*
X0056133Y0097117D02*
X0054782Y0097117D01*
X0054782Y0099819D01*
X0056133Y0099819D01*
X0056583Y0099369D01*
X0056583Y0097567D01*
X0056133Y0097117D01*
X0057728Y0097117D02*
X0059530Y0097117D01*
X0058629Y0097117D02*
X0058629Y0099819D01*
X0057728Y0098918D01*
X0059179Y0150817D02*
X0058428Y0151567D01*
X0058428Y0154570D01*
X0059179Y0155320D01*
X0060680Y0155320D01*
X0061431Y0154570D01*
X0061431Y0151567D01*
X0060680Y0150817D01*
X0059179Y0150817D01*
X0063032Y0150817D02*
X0063032Y0155320D01*
X0063032Y0150817D02*
X0066035Y0150817D01*
X0067636Y0150817D02*
X0070639Y0150817D01*
X0072240Y0150817D02*
X0074492Y0150817D01*
X0075243Y0151567D01*
X0075243Y0154570D01*
X0074492Y0155320D01*
X0072240Y0155320D01*
X0072240Y0150817D01*
X0069138Y0153069D02*
X0067636Y0153069D01*
X0067636Y0155320D02*
X0067636Y0150817D01*
X0067636Y0155320D02*
X0070639Y0155320D01*
X0078728Y0175117D02*
X0078728Y0179620D01*
X0081731Y0175117D01*
X0081731Y0179620D01*
X0083332Y0179620D02*
X0085584Y0179620D01*
X0086335Y0178870D01*
X0086335Y0177369D01*
X0085584Y0176618D01*
X0083332Y0176618D01*
X0083332Y0175117D02*
X0083332Y0179620D01*
X0084834Y0176618D02*
X0086335Y0175117D01*
X0087936Y0175117D02*
X0087936Y0179620D01*
X0090939Y0179620D01*
X0089438Y0177369D02*
X0087936Y0177369D01*
X0154501Y0160620D02*
X0154501Y0156867D01*
X0155252Y0156117D01*
X0156753Y0156117D01*
X0157503Y0156867D01*
X0157503Y0160620D01*
X0159105Y0159870D02*
X0159105Y0159119D01*
X0159855Y0158369D01*
X0161357Y0158369D01*
X0162107Y0157618D01*
X0162107Y0156867D01*
X0161357Y0156117D01*
X0159855Y0156117D01*
X0159105Y0156867D01*
X0159105Y0159870D02*
X0159855Y0160620D01*
X0161357Y0160620D01*
X0162107Y0159870D01*
X0163709Y0160620D02*
X0165961Y0160620D01*
X0166711Y0159870D01*
X0166711Y0159119D01*
X0165961Y0158369D01*
X0163709Y0158369D01*
X0163709Y0160620D02*
X0163709Y0156117D01*
X0165961Y0156117D01*
X0166711Y0156867D01*
X0166711Y0157618D01*
X0165961Y0158369D01*
X0168313Y0158369D02*
X0171315Y0158369D01*
X0172917Y0158369D02*
X0175919Y0158369D01*
X0175919Y0159119D02*
X0175919Y0156117D01*
X0177521Y0156867D02*
X0178271Y0156117D01*
X0179772Y0156117D01*
X0180523Y0156867D01*
X0180523Y0157618D01*
X0179772Y0158369D01*
X0178271Y0158369D01*
X0177521Y0159119D01*
X0177521Y0159870D01*
X0178271Y0160620D01*
X0179772Y0160620D01*
X0180523Y0159870D01*
X0182124Y0160620D02*
X0184376Y0160620D01*
X0185127Y0159870D01*
X0185127Y0158369D01*
X0184376Y0157618D01*
X0182124Y0157618D01*
X0182124Y0156117D02*
X0182124Y0160620D01*
X0175919Y0159119D02*
X0174418Y0160620D01*
X0172917Y0159119D01*
X0172917Y0156117D01*
D46*
X0189195Y0154130D02*
X0153762Y0154130D01*
X0153762Y0074603D01*
X0154156Y0074603D02*
X0189195Y0074603D01*
X0189195Y0105705D01*
X0183289Y0105705D01*
X0183289Y0123028D01*
X0189195Y0123028D01*
X0189195Y0105705D01*
X0182404Y0096867D02*
X0182404Y0091867D01*
X0189195Y0123028D02*
X0189195Y0154130D01*
X0183169Y0054367D02*
X0179788Y0054367D01*
X0184269Y0050423D02*
X0184269Y0048310D01*
X0183169Y0044367D02*
X0179788Y0044367D01*
X0063947Y0095906D02*
X0063947Y0100827D01*
X0060522Y0100827D02*
X0053435Y0100827D01*
X0053435Y0095906D02*
X0060522Y0095906D01*
X0060522Y0094327D02*
X0053435Y0094327D01*
X0050010Y0094327D02*
X0050010Y0089406D01*
X0053435Y0089406D02*
X0060522Y0089406D01*
X0028978Y0094867D02*
X0028978Y0099867D01*
X0026478Y0102367D01*
X0028978Y0104867D01*
X0028978Y0109867D01*
X0026478Y0112367D01*
X0028978Y0114867D01*
X0028978Y0119867D01*
X0026478Y0122367D01*
X0028978Y0124867D01*
X0028978Y0129867D01*
X0026478Y0132367D01*
X0028978Y0134867D01*
X0028978Y0139867D01*
X0026478Y0142367D01*
X0028978Y0144867D01*
X0028978Y0149867D01*
X0026478Y0152367D01*
X0021478Y0152367D01*
X0018978Y0149867D01*
X0018978Y0144867D01*
X0021478Y0142367D01*
X0018978Y0139867D01*
X0018978Y0134867D01*
X0021478Y0132367D01*
X0018978Y0129867D01*
X0018978Y0124867D01*
X0021478Y0122367D01*
X0018978Y0119867D01*
X0018978Y0114867D01*
X0021478Y0112367D01*
X0018978Y0109867D01*
X0018978Y0104867D01*
X0021478Y0102367D01*
X0018978Y0099867D01*
X0018978Y0094867D01*
X0021478Y0092367D01*
X0026478Y0092367D01*
X0028978Y0094867D01*
D47*
X0177478Y0055667D03*
M02*
