G75*
%MOIN*%
%OFA0B0*%
%FSLAX25Y25*%
%IPPOS*%
%LPD*%
%AMOC8*
5,1,8,0,0,1.08239X$1,22.5*
%
%ADD10C,0.01000*%
%ADD11C,0.00000*%
D10*
X0013478Y0005367D02*
X0013478Y0181867D01*
X0194478Y0181867D01*
X0194478Y0005367D01*
X0013478Y0005367D01*
D11*
X0015179Y0013367D02*
X0015181Y0013525D01*
X0015187Y0013683D01*
X0015197Y0013841D01*
X0015211Y0013999D01*
X0015229Y0014156D01*
X0015250Y0014313D01*
X0015276Y0014469D01*
X0015306Y0014625D01*
X0015339Y0014780D01*
X0015377Y0014933D01*
X0015418Y0015086D01*
X0015463Y0015238D01*
X0015512Y0015389D01*
X0015565Y0015538D01*
X0015621Y0015686D01*
X0015681Y0015832D01*
X0015745Y0015977D01*
X0015813Y0016120D01*
X0015884Y0016262D01*
X0015958Y0016402D01*
X0016036Y0016539D01*
X0016118Y0016675D01*
X0016202Y0016809D01*
X0016291Y0016940D01*
X0016382Y0017069D01*
X0016477Y0017196D01*
X0016574Y0017321D01*
X0016675Y0017443D01*
X0016779Y0017562D01*
X0016886Y0017679D01*
X0016996Y0017793D01*
X0017109Y0017904D01*
X0017224Y0018013D01*
X0017342Y0018118D01*
X0017463Y0018220D01*
X0017586Y0018320D01*
X0017712Y0018416D01*
X0017840Y0018509D01*
X0017970Y0018599D01*
X0018103Y0018685D01*
X0018238Y0018769D01*
X0018374Y0018848D01*
X0018513Y0018925D01*
X0018654Y0018997D01*
X0018796Y0019067D01*
X0018940Y0019132D01*
X0019086Y0019194D01*
X0019233Y0019252D01*
X0019382Y0019307D01*
X0019532Y0019358D01*
X0019683Y0019405D01*
X0019835Y0019448D01*
X0019988Y0019487D01*
X0020143Y0019523D01*
X0020298Y0019554D01*
X0020454Y0019582D01*
X0020610Y0019606D01*
X0020767Y0019626D01*
X0020925Y0019642D01*
X0021082Y0019654D01*
X0021241Y0019662D01*
X0021399Y0019666D01*
X0021557Y0019666D01*
X0021715Y0019662D01*
X0021874Y0019654D01*
X0022031Y0019642D01*
X0022189Y0019626D01*
X0022346Y0019606D01*
X0022502Y0019582D01*
X0022658Y0019554D01*
X0022813Y0019523D01*
X0022968Y0019487D01*
X0023121Y0019448D01*
X0023273Y0019405D01*
X0023424Y0019358D01*
X0023574Y0019307D01*
X0023723Y0019252D01*
X0023870Y0019194D01*
X0024016Y0019132D01*
X0024160Y0019067D01*
X0024302Y0018997D01*
X0024443Y0018925D01*
X0024582Y0018848D01*
X0024718Y0018769D01*
X0024853Y0018685D01*
X0024986Y0018599D01*
X0025116Y0018509D01*
X0025244Y0018416D01*
X0025370Y0018320D01*
X0025493Y0018220D01*
X0025614Y0018118D01*
X0025732Y0018013D01*
X0025847Y0017904D01*
X0025960Y0017793D01*
X0026070Y0017679D01*
X0026177Y0017562D01*
X0026281Y0017443D01*
X0026382Y0017321D01*
X0026479Y0017196D01*
X0026574Y0017069D01*
X0026665Y0016940D01*
X0026754Y0016809D01*
X0026838Y0016675D01*
X0026920Y0016539D01*
X0026998Y0016402D01*
X0027072Y0016262D01*
X0027143Y0016120D01*
X0027211Y0015977D01*
X0027275Y0015832D01*
X0027335Y0015686D01*
X0027391Y0015538D01*
X0027444Y0015389D01*
X0027493Y0015238D01*
X0027538Y0015086D01*
X0027579Y0014933D01*
X0027617Y0014780D01*
X0027650Y0014625D01*
X0027680Y0014469D01*
X0027706Y0014313D01*
X0027727Y0014156D01*
X0027745Y0013999D01*
X0027759Y0013841D01*
X0027769Y0013683D01*
X0027775Y0013525D01*
X0027777Y0013367D01*
X0027775Y0013209D01*
X0027769Y0013051D01*
X0027759Y0012893D01*
X0027745Y0012735D01*
X0027727Y0012578D01*
X0027706Y0012421D01*
X0027680Y0012265D01*
X0027650Y0012109D01*
X0027617Y0011954D01*
X0027579Y0011801D01*
X0027538Y0011648D01*
X0027493Y0011496D01*
X0027444Y0011345D01*
X0027391Y0011196D01*
X0027335Y0011048D01*
X0027275Y0010902D01*
X0027211Y0010757D01*
X0027143Y0010614D01*
X0027072Y0010472D01*
X0026998Y0010332D01*
X0026920Y0010195D01*
X0026838Y0010059D01*
X0026754Y0009925D01*
X0026665Y0009794D01*
X0026574Y0009665D01*
X0026479Y0009538D01*
X0026382Y0009413D01*
X0026281Y0009291D01*
X0026177Y0009172D01*
X0026070Y0009055D01*
X0025960Y0008941D01*
X0025847Y0008830D01*
X0025732Y0008721D01*
X0025614Y0008616D01*
X0025493Y0008514D01*
X0025370Y0008414D01*
X0025244Y0008318D01*
X0025116Y0008225D01*
X0024986Y0008135D01*
X0024853Y0008049D01*
X0024718Y0007965D01*
X0024582Y0007886D01*
X0024443Y0007809D01*
X0024302Y0007737D01*
X0024160Y0007667D01*
X0024016Y0007602D01*
X0023870Y0007540D01*
X0023723Y0007482D01*
X0023574Y0007427D01*
X0023424Y0007376D01*
X0023273Y0007329D01*
X0023121Y0007286D01*
X0022968Y0007247D01*
X0022813Y0007211D01*
X0022658Y0007180D01*
X0022502Y0007152D01*
X0022346Y0007128D01*
X0022189Y0007108D01*
X0022031Y0007092D01*
X0021874Y0007080D01*
X0021715Y0007072D01*
X0021557Y0007068D01*
X0021399Y0007068D01*
X0021241Y0007072D01*
X0021082Y0007080D01*
X0020925Y0007092D01*
X0020767Y0007108D01*
X0020610Y0007128D01*
X0020454Y0007152D01*
X0020298Y0007180D01*
X0020143Y0007211D01*
X0019988Y0007247D01*
X0019835Y0007286D01*
X0019683Y0007329D01*
X0019532Y0007376D01*
X0019382Y0007427D01*
X0019233Y0007482D01*
X0019086Y0007540D01*
X0018940Y0007602D01*
X0018796Y0007667D01*
X0018654Y0007737D01*
X0018513Y0007809D01*
X0018374Y0007886D01*
X0018238Y0007965D01*
X0018103Y0008049D01*
X0017970Y0008135D01*
X0017840Y0008225D01*
X0017712Y0008318D01*
X0017586Y0008414D01*
X0017463Y0008514D01*
X0017342Y0008616D01*
X0017224Y0008721D01*
X0017109Y0008830D01*
X0016996Y0008941D01*
X0016886Y0009055D01*
X0016779Y0009172D01*
X0016675Y0009291D01*
X0016574Y0009413D01*
X0016477Y0009538D01*
X0016382Y0009665D01*
X0016291Y0009794D01*
X0016202Y0009925D01*
X0016118Y0010059D01*
X0016036Y0010195D01*
X0015958Y0010332D01*
X0015884Y0010472D01*
X0015813Y0010614D01*
X0015745Y0010757D01*
X0015681Y0010902D01*
X0015621Y0011048D01*
X0015565Y0011196D01*
X0015512Y0011345D01*
X0015463Y0011496D01*
X0015418Y0011648D01*
X0015377Y0011801D01*
X0015339Y0011954D01*
X0015306Y0012109D01*
X0015276Y0012265D01*
X0015250Y0012421D01*
X0015229Y0012578D01*
X0015211Y0012735D01*
X0015197Y0012893D01*
X0015187Y0013051D01*
X0015181Y0013209D01*
X0015179Y0013367D01*
X0015179Y0173867D02*
X0015181Y0174025D01*
X0015187Y0174183D01*
X0015197Y0174341D01*
X0015211Y0174499D01*
X0015229Y0174656D01*
X0015250Y0174813D01*
X0015276Y0174969D01*
X0015306Y0175125D01*
X0015339Y0175280D01*
X0015377Y0175433D01*
X0015418Y0175586D01*
X0015463Y0175738D01*
X0015512Y0175889D01*
X0015565Y0176038D01*
X0015621Y0176186D01*
X0015681Y0176332D01*
X0015745Y0176477D01*
X0015813Y0176620D01*
X0015884Y0176762D01*
X0015958Y0176902D01*
X0016036Y0177039D01*
X0016118Y0177175D01*
X0016202Y0177309D01*
X0016291Y0177440D01*
X0016382Y0177569D01*
X0016477Y0177696D01*
X0016574Y0177821D01*
X0016675Y0177943D01*
X0016779Y0178062D01*
X0016886Y0178179D01*
X0016996Y0178293D01*
X0017109Y0178404D01*
X0017224Y0178513D01*
X0017342Y0178618D01*
X0017463Y0178720D01*
X0017586Y0178820D01*
X0017712Y0178916D01*
X0017840Y0179009D01*
X0017970Y0179099D01*
X0018103Y0179185D01*
X0018238Y0179269D01*
X0018374Y0179348D01*
X0018513Y0179425D01*
X0018654Y0179497D01*
X0018796Y0179567D01*
X0018940Y0179632D01*
X0019086Y0179694D01*
X0019233Y0179752D01*
X0019382Y0179807D01*
X0019532Y0179858D01*
X0019683Y0179905D01*
X0019835Y0179948D01*
X0019988Y0179987D01*
X0020143Y0180023D01*
X0020298Y0180054D01*
X0020454Y0180082D01*
X0020610Y0180106D01*
X0020767Y0180126D01*
X0020925Y0180142D01*
X0021082Y0180154D01*
X0021241Y0180162D01*
X0021399Y0180166D01*
X0021557Y0180166D01*
X0021715Y0180162D01*
X0021874Y0180154D01*
X0022031Y0180142D01*
X0022189Y0180126D01*
X0022346Y0180106D01*
X0022502Y0180082D01*
X0022658Y0180054D01*
X0022813Y0180023D01*
X0022968Y0179987D01*
X0023121Y0179948D01*
X0023273Y0179905D01*
X0023424Y0179858D01*
X0023574Y0179807D01*
X0023723Y0179752D01*
X0023870Y0179694D01*
X0024016Y0179632D01*
X0024160Y0179567D01*
X0024302Y0179497D01*
X0024443Y0179425D01*
X0024582Y0179348D01*
X0024718Y0179269D01*
X0024853Y0179185D01*
X0024986Y0179099D01*
X0025116Y0179009D01*
X0025244Y0178916D01*
X0025370Y0178820D01*
X0025493Y0178720D01*
X0025614Y0178618D01*
X0025732Y0178513D01*
X0025847Y0178404D01*
X0025960Y0178293D01*
X0026070Y0178179D01*
X0026177Y0178062D01*
X0026281Y0177943D01*
X0026382Y0177821D01*
X0026479Y0177696D01*
X0026574Y0177569D01*
X0026665Y0177440D01*
X0026754Y0177309D01*
X0026838Y0177175D01*
X0026920Y0177039D01*
X0026998Y0176902D01*
X0027072Y0176762D01*
X0027143Y0176620D01*
X0027211Y0176477D01*
X0027275Y0176332D01*
X0027335Y0176186D01*
X0027391Y0176038D01*
X0027444Y0175889D01*
X0027493Y0175738D01*
X0027538Y0175586D01*
X0027579Y0175433D01*
X0027617Y0175280D01*
X0027650Y0175125D01*
X0027680Y0174969D01*
X0027706Y0174813D01*
X0027727Y0174656D01*
X0027745Y0174499D01*
X0027759Y0174341D01*
X0027769Y0174183D01*
X0027775Y0174025D01*
X0027777Y0173867D01*
X0027775Y0173709D01*
X0027769Y0173551D01*
X0027759Y0173393D01*
X0027745Y0173235D01*
X0027727Y0173078D01*
X0027706Y0172921D01*
X0027680Y0172765D01*
X0027650Y0172609D01*
X0027617Y0172454D01*
X0027579Y0172301D01*
X0027538Y0172148D01*
X0027493Y0171996D01*
X0027444Y0171845D01*
X0027391Y0171696D01*
X0027335Y0171548D01*
X0027275Y0171402D01*
X0027211Y0171257D01*
X0027143Y0171114D01*
X0027072Y0170972D01*
X0026998Y0170832D01*
X0026920Y0170695D01*
X0026838Y0170559D01*
X0026754Y0170425D01*
X0026665Y0170294D01*
X0026574Y0170165D01*
X0026479Y0170038D01*
X0026382Y0169913D01*
X0026281Y0169791D01*
X0026177Y0169672D01*
X0026070Y0169555D01*
X0025960Y0169441D01*
X0025847Y0169330D01*
X0025732Y0169221D01*
X0025614Y0169116D01*
X0025493Y0169014D01*
X0025370Y0168914D01*
X0025244Y0168818D01*
X0025116Y0168725D01*
X0024986Y0168635D01*
X0024853Y0168549D01*
X0024718Y0168465D01*
X0024582Y0168386D01*
X0024443Y0168309D01*
X0024302Y0168237D01*
X0024160Y0168167D01*
X0024016Y0168102D01*
X0023870Y0168040D01*
X0023723Y0167982D01*
X0023574Y0167927D01*
X0023424Y0167876D01*
X0023273Y0167829D01*
X0023121Y0167786D01*
X0022968Y0167747D01*
X0022813Y0167711D01*
X0022658Y0167680D01*
X0022502Y0167652D01*
X0022346Y0167628D01*
X0022189Y0167608D01*
X0022031Y0167592D01*
X0021874Y0167580D01*
X0021715Y0167572D01*
X0021557Y0167568D01*
X0021399Y0167568D01*
X0021241Y0167572D01*
X0021082Y0167580D01*
X0020925Y0167592D01*
X0020767Y0167608D01*
X0020610Y0167628D01*
X0020454Y0167652D01*
X0020298Y0167680D01*
X0020143Y0167711D01*
X0019988Y0167747D01*
X0019835Y0167786D01*
X0019683Y0167829D01*
X0019532Y0167876D01*
X0019382Y0167927D01*
X0019233Y0167982D01*
X0019086Y0168040D01*
X0018940Y0168102D01*
X0018796Y0168167D01*
X0018654Y0168237D01*
X0018513Y0168309D01*
X0018374Y0168386D01*
X0018238Y0168465D01*
X0018103Y0168549D01*
X0017970Y0168635D01*
X0017840Y0168725D01*
X0017712Y0168818D01*
X0017586Y0168914D01*
X0017463Y0169014D01*
X0017342Y0169116D01*
X0017224Y0169221D01*
X0017109Y0169330D01*
X0016996Y0169441D01*
X0016886Y0169555D01*
X0016779Y0169672D01*
X0016675Y0169791D01*
X0016574Y0169913D01*
X0016477Y0170038D01*
X0016382Y0170165D01*
X0016291Y0170294D01*
X0016202Y0170425D01*
X0016118Y0170559D01*
X0016036Y0170695D01*
X0015958Y0170832D01*
X0015884Y0170972D01*
X0015813Y0171114D01*
X0015745Y0171257D01*
X0015681Y0171402D01*
X0015621Y0171548D01*
X0015565Y0171696D01*
X0015512Y0171845D01*
X0015463Y0171996D01*
X0015418Y0172148D01*
X0015377Y0172301D01*
X0015339Y0172454D01*
X0015306Y0172609D01*
X0015276Y0172765D01*
X0015250Y0172921D01*
X0015229Y0173078D01*
X0015211Y0173235D01*
X0015197Y0173393D01*
X0015187Y0173551D01*
X0015181Y0173709D01*
X0015179Y0173867D01*
X0180179Y0173867D02*
X0180181Y0174025D01*
X0180187Y0174183D01*
X0180197Y0174341D01*
X0180211Y0174499D01*
X0180229Y0174656D01*
X0180250Y0174813D01*
X0180276Y0174969D01*
X0180306Y0175125D01*
X0180339Y0175280D01*
X0180377Y0175433D01*
X0180418Y0175586D01*
X0180463Y0175738D01*
X0180512Y0175889D01*
X0180565Y0176038D01*
X0180621Y0176186D01*
X0180681Y0176332D01*
X0180745Y0176477D01*
X0180813Y0176620D01*
X0180884Y0176762D01*
X0180958Y0176902D01*
X0181036Y0177039D01*
X0181118Y0177175D01*
X0181202Y0177309D01*
X0181291Y0177440D01*
X0181382Y0177569D01*
X0181477Y0177696D01*
X0181574Y0177821D01*
X0181675Y0177943D01*
X0181779Y0178062D01*
X0181886Y0178179D01*
X0181996Y0178293D01*
X0182109Y0178404D01*
X0182224Y0178513D01*
X0182342Y0178618D01*
X0182463Y0178720D01*
X0182586Y0178820D01*
X0182712Y0178916D01*
X0182840Y0179009D01*
X0182970Y0179099D01*
X0183103Y0179185D01*
X0183238Y0179269D01*
X0183374Y0179348D01*
X0183513Y0179425D01*
X0183654Y0179497D01*
X0183796Y0179567D01*
X0183940Y0179632D01*
X0184086Y0179694D01*
X0184233Y0179752D01*
X0184382Y0179807D01*
X0184532Y0179858D01*
X0184683Y0179905D01*
X0184835Y0179948D01*
X0184988Y0179987D01*
X0185143Y0180023D01*
X0185298Y0180054D01*
X0185454Y0180082D01*
X0185610Y0180106D01*
X0185767Y0180126D01*
X0185925Y0180142D01*
X0186082Y0180154D01*
X0186241Y0180162D01*
X0186399Y0180166D01*
X0186557Y0180166D01*
X0186715Y0180162D01*
X0186874Y0180154D01*
X0187031Y0180142D01*
X0187189Y0180126D01*
X0187346Y0180106D01*
X0187502Y0180082D01*
X0187658Y0180054D01*
X0187813Y0180023D01*
X0187968Y0179987D01*
X0188121Y0179948D01*
X0188273Y0179905D01*
X0188424Y0179858D01*
X0188574Y0179807D01*
X0188723Y0179752D01*
X0188870Y0179694D01*
X0189016Y0179632D01*
X0189160Y0179567D01*
X0189302Y0179497D01*
X0189443Y0179425D01*
X0189582Y0179348D01*
X0189718Y0179269D01*
X0189853Y0179185D01*
X0189986Y0179099D01*
X0190116Y0179009D01*
X0190244Y0178916D01*
X0190370Y0178820D01*
X0190493Y0178720D01*
X0190614Y0178618D01*
X0190732Y0178513D01*
X0190847Y0178404D01*
X0190960Y0178293D01*
X0191070Y0178179D01*
X0191177Y0178062D01*
X0191281Y0177943D01*
X0191382Y0177821D01*
X0191479Y0177696D01*
X0191574Y0177569D01*
X0191665Y0177440D01*
X0191754Y0177309D01*
X0191838Y0177175D01*
X0191920Y0177039D01*
X0191998Y0176902D01*
X0192072Y0176762D01*
X0192143Y0176620D01*
X0192211Y0176477D01*
X0192275Y0176332D01*
X0192335Y0176186D01*
X0192391Y0176038D01*
X0192444Y0175889D01*
X0192493Y0175738D01*
X0192538Y0175586D01*
X0192579Y0175433D01*
X0192617Y0175280D01*
X0192650Y0175125D01*
X0192680Y0174969D01*
X0192706Y0174813D01*
X0192727Y0174656D01*
X0192745Y0174499D01*
X0192759Y0174341D01*
X0192769Y0174183D01*
X0192775Y0174025D01*
X0192777Y0173867D01*
X0192775Y0173709D01*
X0192769Y0173551D01*
X0192759Y0173393D01*
X0192745Y0173235D01*
X0192727Y0173078D01*
X0192706Y0172921D01*
X0192680Y0172765D01*
X0192650Y0172609D01*
X0192617Y0172454D01*
X0192579Y0172301D01*
X0192538Y0172148D01*
X0192493Y0171996D01*
X0192444Y0171845D01*
X0192391Y0171696D01*
X0192335Y0171548D01*
X0192275Y0171402D01*
X0192211Y0171257D01*
X0192143Y0171114D01*
X0192072Y0170972D01*
X0191998Y0170832D01*
X0191920Y0170695D01*
X0191838Y0170559D01*
X0191754Y0170425D01*
X0191665Y0170294D01*
X0191574Y0170165D01*
X0191479Y0170038D01*
X0191382Y0169913D01*
X0191281Y0169791D01*
X0191177Y0169672D01*
X0191070Y0169555D01*
X0190960Y0169441D01*
X0190847Y0169330D01*
X0190732Y0169221D01*
X0190614Y0169116D01*
X0190493Y0169014D01*
X0190370Y0168914D01*
X0190244Y0168818D01*
X0190116Y0168725D01*
X0189986Y0168635D01*
X0189853Y0168549D01*
X0189718Y0168465D01*
X0189582Y0168386D01*
X0189443Y0168309D01*
X0189302Y0168237D01*
X0189160Y0168167D01*
X0189016Y0168102D01*
X0188870Y0168040D01*
X0188723Y0167982D01*
X0188574Y0167927D01*
X0188424Y0167876D01*
X0188273Y0167829D01*
X0188121Y0167786D01*
X0187968Y0167747D01*
X0187813Y0167711D01*
X0187658Y0167680D01*
X0187502Y0167652D01*
X0187346Y0167628D01*
X0187189Y0167608D01*
X0187031Y0167592D01*
X0186874Y0167580D01*
X0186715Y0167572D01*
X0186557Y0167568D01*
X0186399Y0167568D01*
X0186241Y0167572D01*
X0186082Y0167580D01*
X0185925Y0167592D01*
X0185767Y0167608D01*
X0185610Y0167628D01*
X0185454Y0167652D01*
X0185298Y0167680D01*
X0185143Y0167711D01*
X0184988Y0167747D01*
X0184835Y0167786D01*
X0184683Y0167829D01*
X0184532Y0167876D01*
X0184382Y0167927D01*
X0184233Y0167982D01*
X0184086Y0168040D01*
X0183940Y0168102D01*
X0183796Y0168167D01*
X0183654Y0168237D01*
X0183513Y0168309D01*
X0183374Y0168386D01*
X0183238Y0168465D01*
X0183103Y0168549D01*
X0182970Y0168635D01*
X0182840Y0168725D01*
X0182712Y0168818D01*
X0182586Y0168914D01*
X0182463Y0169014D01*
X0182342Y0169116D01*
X0182224Y0169221D01*
X0182109Y0169330D01*
X0181996Y0169441D01*
X0181886Y0169555D01*
X0181779Y0169672D01*
X0181675Y0169791D01*
X0181574Y0169913D01*
X0181477Y0170038D01*
X0181382Y0170165D01*
X0181291Y0170294D01*
X0181202Y0170425D01*
X0181118Y0170559D01*
X0181036Y0170695D01*
X0180958Y0170832D01*
X0180884Y0170972D01*
X0180813Y0171114D01*
X0180745Y0171257D01*
X0180681Y0171402D01*
X0180621Y0171548D01*
X0180565Y0171696D01*
X0180512Y0171845D01*
X0180463Y0171996D01*
X0180418Y0172148D01*
X0180377Y0172301D01*
X0180339Y0172454D01*
X0180306Y0172609D01*
X0180276Y0172765D01*
X0180250Y0172921D01*
X0180229Y0173078D01*
X0180211Y0173235D01*
X0180197Y0173393D01*
X0180187Y0173551D01*
X0180181Y0173709D01*
X0180179Y0173867D01*
X0180179Y0013367D02*
X0180181Y0013525D01*
X0180187Y0013683D01*
X0180197Y0013841D01*
X0180211Y0013999D01*
X0180229Y0014156D01*
X0180250Y0014313D01*
X0180276Y0014469D01*
X0180306Y0014625D01*
X0180339Y0014780D01*
X0180377Y0014933D01*
X0180418Y0015086D01*
X0180463Y0015238D01*
X0180512Y0015389D01*
X0180565Y0015538D01*
X0180621Y0015686D01*
X0180681Y0015832D01*
X0180745Y0015977D01*
X0180813Y0016120D01*
X0180884Y0016262D01*
X0180958Y0016402D01*
X0181036Y0016539D01*
X0181118Y0016675D01*
X0181202Y0016809D01*
X0181291Y0016940D01*
X0181382Y0017069D01*
X0181477Y0017196D01*
X0181574Y0017321D01*
X0181675Y0017443D01*
X0181779Y0017562D01*
X0181886Y0017679D01*
X0181996Y0017793D01*
X0182109Y0017904D01*
X0182224Y0018013D01*
X0182342Y0018118D01*
X0182463Y0018220D01*
X0182586Y0018320D01*
X0182712Y0018416D01*
X0182840Y0018509D01*
X0182970Y0018599D01*
X0183103Y0018685D01*
X0183238Y0018769D01*
X0183374Y0018848D01*
X0183513Y0018925D01*
X0183654Y0018997D01*
X0183796Y0019067D01*
X0183940Y0019132D01*
X0184086Y0019194D01*
X0184233Y0019252D01*
X0184382Y0019307D01*
X0184532Y0019358D01*
X0184683Y0019405D01*
X0184835Y0019448D01*
X0184988Y0019487D01*
X0185143Y0019523D01*
X0185298Y0019554D01*
X0185454Y0019582D01*
X0185610Y0019606D01*
X0185767Y0019626D01*
X0185925Y0019642D01*
X0186082Y0019654D01*
X0186241Y0019662D01*
X0186399Y0019666D01*
X0186557Y0019666D01*
X0186715Y0019662D01*
X0186874Y0019654D01*
X0187031Y0019642D01*
X0187189Y0019626D01*
X0187346Y0019606D01*
X0187502Y0019582D01*
X0187658Y0019554D01*
X0187813Y0019523D01*
X0187968Y0019487D01*
X0188121Y0019448D01*
X0188273Y0019405D01*
X0188424Y0019358D01*
X0188574Y0019307D01*
X0188723Y0019252D01*
X0188870Y0019194D01*
X0189016Y0019132D01*
X0189160Y0019067D01*
X0189302Y0018997D01*
X0189443Y0018925D01*
X0189582Y0018848D01*
X0189718Y0018769D01*
X0189853Y0018685D01*
X0189986Y0018599D01*
X0190116Y0018509D01*
X0190244Y0018416D01*
X0190370Y0018320D01*
X0190493Y0018220D01*
X0190614Y0018118D01*
X0190732Y0018013D01*
X0190847Y0017904D01*
X0190960Y0017793D01*
X0191070Y0017679D01*
X0191177Y0017562D01*
X0191281Y0017443D01*
X0191382Y0017321D01*
X0191479Y0017196D01*
X0191574Y0017069D01*
X0191665Y0016940D01*
X0191754Y0016809D01*
X0191838Y0016675D01*
X0191920Y0016539D01*
X0191998Y0016402D01*
X0192072Y0016262D01*
X0192143Y0016120D01*
X0192211Y0015977D01*
X0192275Y0015832D01*
X0192335Y0015686D01*
X0192391Y0015538D01*
X0192444Y0015389D01*
X0192493Y0015238D01*
X0192538Y0015086D01*
X0192579Y0014933D01*
X0192617Y0014780D01*
X0192650Y0014625D01*
X0192680Y0014469D01*
X0192706Y0014313D01*
X0192727Y0014156D01*
X0192745Y0013999D01*
X0192759Y0013841D01*
X0192769Y0013683D01*
X0192775Y0013525D01*
X0192777Y0013367D01*
X0192775Y0013209D01*
X0192769Y0013051D01*
X0192759Y0012893D01*
X0192745Y0012735D01*
X0192727Y0012578D01*
X0192706Y0012421D01*
X0192680Y0012265D01*
X0192650Y0012109D01*
X0192617Y0011954D01*
X0192579Y0011801D01*
X0192538Y0011648D01*
X0192493Y0011496D01*
X0192444Y0011345D01*
X0192391Y0011196D01*
X0192335Y0011048D01*
X0192275Y0010902D01*
X0192211Y0010757D01*
X0192143Y0010614D01*
X0192072Y0010472D01*
X0191998Y0010332D01*
X0191920Y0010195D01*
X0191838Y0010059D01*
X0191754Y0009925D01*
X0191665Y0009794D01*
X0191574Y0009665D01*
X0191479Y0009538D01*
X0191382Y0009413D01*
X0191281Y0009291D01*
X0191177Y0009172D01*
X0191070Y0009055D01*
X0190960Y0008941D01*
X0190847Y0008830D01*
X0190732Y0008721D01*
X0190614Y0008616D01*
X0190493Y0008514D01*
X0190370Y0008414D01*
X0190244Y0008318D01*
X0190116Y0008225D01*
X0189986Y0008135D01*
X0189853Y0008049D01*
X0189718Y0007965D01*
X0189582Y0007886D01*
X0189443Y0007809D01*
X0189302Y0007737D01*
X0189160Y0007667D01*
X0189016Y0007602D01*
X0188870Y0007540D01*
X0188723Y0007482D01*
X0188574Y0007427D01*
X0188424Y0007376D01*
X0188273Y0007329D01*
X0188121Y0007286D01*
X0187968Y0007247D01*
X0187813Y0007211D01*
X0187658Y0007180D01*
X0187502Y0007152D01*
X0187346Y0007128D01*
X0187189Y0007108D01*
X0187031Y0007092D01*
X0186874Y0007080D01*
X0186715Y0007072D01*
X0186557Y0007068D01*
X0186399Y0007068D01*
X0186241Y0007072D01*
X0186082Y0007080D01*
X0185925Y0007092D01*
X0185767Y0007108D01*
X0185610Y0007128D01*
X0185454Y0007152D01*
X0185298Y0007180D01*
X0185143Y0007211D01*
X0184988Y0007247D01*
X0184835Y0007286D01*
X0184683Y0007329D01*
X0184532Y0007376D01*
X0184382Y0007427D01*
X0184233Y0007482D01*
X0184086Y0007540D01*
X0183940Y0007602D01*
X0183796Y0007667D01*
X0183654Y0007737D01*
X0183513Y0007809D01*
X0183374Y0007886D01*
X0183238Y0007965D01*
X0183103Y0008049D01*
X0182970Y0008135D01*
X0182840Y0008225D01*
X0182712Y0008318D01*
X0182586Y0008414D01*
X0182463Y0008514D01*
X0182342Y0008616D01*
X0182224Y0008721D01*
X0182109Y0008830D01*
X0181996Y0008941D01*
X0181886Y0009055D01*
X0181779Y0009172D01*
X0181675Y0009291D01*
X0181574Y0009413D01*
X0181477Y0009538D01*
X0181382Y0009665D01*
X0181291Y0009794D01*
X0181202Y0009925D01*
X0181118Y0010059D01*
X0181036Y0010195D01*
X0180958Y0010332D01*
X0180884Y0010472D01*
X0180813Y0010614D01*
X0180745Y0010757D01*
X0180681Y0010902D01*
X0180621Y0011048D01*
X0180565Y0011196D01*
X0180512Y0011345D01*
X0180463Y0011496D01*
X0180418Y0011648D01*
X0180377Y0011801D01*
X0180339Y0011954D01*
X0180306Y0012109D01*
X0180276Y0012265D01*
X0180250Y0012421D01*
X0180229Y0012578D01*
X0180211Y0012735D01*
X0180197Y0012893D01*
X0180187Y0013051D01*
X0180181Y0013209D01*
X0180179Y0013367D01*
M02*
