G75*
%MOIN*%
%OFA0B0*%
%FSLAX25Y25*%
%IPPOS*%
%LPD*%
%AMOC8*
5,1,8,0,0,1.08239X$1,22.5*
%
%ADD10C,0.05200*%
%ADD11C,0.06000*%
%ADD12C,0.07400*%
%ADD13OC8,0.06300*%
%ADD14C,0.06300*%
%ADD15OC8,0.06000*%
%ADD16C,0.01200*%
%ADD17C,0.03378*%
D10*
X0081978Y0071367D03*
X0100978Y0071367D03*
D11*
X0109178Y0042267D02*
X0115178Y0042267D01*
X0115178Y0024467D02*
X0109178Y0024467D01*
X0096478Y0022867D02*
X0096478Y0016867D01*
X0086478Y0016867D02*
X0086478Y0022867D01*
X0076478Y0022867D02*
X0076478Y0016867D01*
X0061478Y0067367D02*
X0061478Y0073367D01*
X0051478Y0073367D02*
X0051478Y0067367D01*
X0041478Y0067367D02*
X0041478Y0073367D01*
X0031478Y0073367D02*
X0031478Y0067367D01*
X0021478Y0067367D02*
X0021478Y0073367D01*
X0063478Y0140367D02*
X0063478Y0146367D01*
X0073478Y0146367D02*
X0073478Y0140367D01*
X0083478Y0140367D02*
X0083478Y0146367D01*
X0093478Y0146367D02*
X0093478Y0140367D01*
X0103478Y0140367D02*
X0103478Y0146367D01*
X0113478Y0146367D02*
X0113478Y0140367D01*
X0123478Y0140367D02*
X0123478Y0146367D01*
X0134778Y0042267D02*
X0140778Y0042267D01*
X0140778Y0024467D02*
X0134778Y0024467D01*
X0159478Y0025867D02*
X0159478Y0031867D01*
X0169478Y0031867D02*
X0169478Y0025867D01*
X0169478Y0017867D02*
X0169478Y0011867D01*
X0159478Y0011867D02*
X0159478Y0017867D01*
D12*
X0166478Y0094367D03*
X0166478Y0104367D03*
X0176478Y0104367D03*
X0176478Y0094367D03*
X0176478Y0114367D03*
X0166478Y0114367D03*
X0166478Y0124367D03*
X0176478Y0124367D03*
X0176478Y0134367D03*
X0166478Y0134367D03*
X0023978Y0137367D03*
X0023978Y0127367D03*
X0023978Y0117367D03*
X0023978Y0107367D03*
X0023978Y0097367D03*
X0023978Y0147367D03*
D13*
X0124978Y0077867D03*
X0157978Y0063367D03*
D14*
X0157978Y0053367D03*
X0124978Y0087867D03*
D15*
X0113478Y0157367D03*
X0103478Y0157367D03*
X0093478Y0157367D03*
X0083478Y0157367D03*
X0083478Y0167367D03*
X0093478Y0167367D03*
X0103478Y0167367D03*
X0113478Y0167367D03*
D16*
X0015478Y0168978D02*
X0015478Y0018255D01*
X0017117Y0019894D01*
X0019947Y0021066D01*
X0023010Y0021066D01*
X0025840Y0019894D01*
X0028006Y0017728D01*
X0029178Y0014898D01*
X0029178Y0011835D01*
X0028006Y0009005D01*
X0026267Y0007267D01*
X0078467Y0007267D01*
X0075567Y0010167D01*
X0074278Y0011455D01*
X0074278Y0013015D01*
X0073986Y0013137D01*
X0072748Y0014374D01*
X0072078Y0015991D01*
X0072078Y0023742D01*
X0072748Y0025359D01*
X0073986Y0026597D01*
X0075603Y0027267D01*
X0077354Y0027267D01*
X0078971Y0026597D01*
X0080209Y0025359D01*
X0080878Y0023742D01*
X0080878Y0015991D01*
X0080209Y0014374D01*
X0078971Y0013137D01*
X0078864Y0013092D01*
X0080390Y0011567D01*
X0145567Y0011567D01*
X0148278Y0014278D01*
X0148278Y0026778D01*
X0149567Y0028067D01*
X0152567Y0031067D01*
X0155078Y0031067D01*
X0155078Y0032742D01*
X0155748Y0034359D01*
X0156986Y0035597D01*
X0157278Y0035718D01*
X0157278Y0036778D01*
X0159278Y0038778D01*
X0160567Y0040067D01*
X0163567Y0040067D01*
X0164278Y0040778D01*
X0164278Y0057915D01*
X0163690Y0058504D01*
X0163189Y0059712D01*
X0163189Y0061021D01*
X0163690Y0062230D01*
X0164278Y0062818D01*
X0164278Y0089758D01*
X0163590Y0090043D01*
X0162155Y0091478D01*
X0161870Y0092167D01*
X0155430Y0092167D01*
X0154842Y0091578D01*
X0153633Y0091078D01*
X0152324Y0091078D01*
X0151115Y0091578D01*
X0150190Y0092504D01*
X0149689Y0093712D01*
X0149689Y0095021D01*
X0150190Y0096230D01*
X0151115Y0097155D01*
X0152324Y0097656D01*
X0153633Y0097656D01*
X0154842Y0097155D01*
X0155430Y0096567D01*
X0161870Y0096567D01*
X0162155Y0097256D01*
X0163590Y0098690D01*
X0165000Y0099274D01*
X0164444Y0099455D01*
X0163701Y0099834D01*
X0163026Y0100324D01*
X0162436Y0100914D01*
X0161945Y0101589D01*
X0161567Y0102332D01*
X0161309Y0103126D01*
X0161178Y0103950D01*
X0161178Y0103967D01*
X0166078Y0103967D01*
X0166078Y0104767D01*
X0166078Y0113967D01*
X0161178Y0113967D01*
X0161178Y0113950D01*
X0161309Y0113126D01*
X0161567Y0112332D01*
X0161945Y0111589D01*
X0162436Y0110914D01*
X0163026Y0110324D01*
X0163701Y0109834D01*
X0164444Y0109455D01*
X0164716Y0109367D01*
X0164444Y0109278D01*
X0163701Y0108900D01*
X0163026Y0108409D01*
X0162436Y0107819D01*
X0161945Y0107144D01*
X0161567Y0106401D01*
X0161309Y0105608D01*
X0161178Y0104784D01*
X0161178Y0104767D01*
X0166078Y0104767D01*
X0166878Y0104767D01*
X0166878Y0109667D01*
X0166878Y0113967D01*
X0166078Y0113967D01*
X0166078Y0114767D01*
X0166078Y0123967D01*
X0161178Y0123967D01*
X0161178Y0123950D01*
X0161309Y0123126D01*
X0161567Y0122332D01*
X0161945Y0121589D01*
X0162436Y0120914D01*
X0163026Y0120324D01*
X0163701Y0119834D01*
X0164444Y0119455D01*
X0164716Y0119367D01*
X0164444Y0119278D01*
X0163701Y0118900D01*
X0163026Y0118409D01*
X0162436Y0117819D01*
X0161945Y0117144D01*
X0161567Y0116401D01*
X0161309Y0115608D01*
X0161178Y0114784D01*
X0161178Y0114767D01*
X0166078Y0114767D01*
X0166878Y0114767D01*
X0166878Y0119067D01*
X0166878Y0123967D01*
X0166078Y0123967D01*
X0166078Y0124767D01*
X0166078Y0133967D01*
X0161178Y0133967D01*
X0161178Y0133950D01*
X0161309Y0133126D01*
X0161567Y0132332D01*
X0161945Y0131589D01*
X0162436Y0130914D01*
X0163026Y0130324D01*
X0163701Y0129834D01*
X0164444Y0129455D01*
X0164716Y0129367D01*
X0164444Y0129278D01*
X0163701Y0128900D01*
X0163026Y0128409D01*
X0162436Y0127819D01*
X0161945Y0127144D01*
X0161567Y0126401D01*
X0161309Y0125608D01*
X0161178Y0124784D01*
X0161178Y0124767D01*
X0166078Y0124767D01*
X0166878Y0124767D01*
X0166878Y0129067D01*
X0166878Y0133967D01*
X0166078Y0133967D01*
X0166078Y0134767D01*
X0161178Y0134767D01*
X0161178Y0134784D01*
X0161309Y0135608D01*
X0161567Y0136401D01*
X0161945Y0137144D01*
X0162436Y0137819D01*
X0163026Y0138409D01*
X0163701Y0138900D01*
X0164444Y0139278D01*
X0165237Y0139536D01*
X0166061Y0139667D01*
X0166078Y0139667D01*
X0166078Y0134767D01*
X0166878Y0134767D01*
X0166878Y0139667D01*
X0166896Y0139667D01*
X0167720Y0139536D01*
X0168513Y0139278D01*
X0169256Y0138900D01*
X0169931Y0138409D01*
X0170521Y0137819D01*
X0171011Y0137144D01*
X0171390Y0136401D01*
X0171571Y0135845D01*
X0172155Y0137256D01*
X0173590Y0138690D01*
X0174278Y0138976D01*
X0174278Y0154915D01*
X0173690Y0155504D01*
X0173189Y0156712D01*
X0173189Y0158021D01*
X0173690Y0159230D01*
X0174615Y0160155D01*
X0175824Y0160656D01*
X0177133Y0160656D01*
X0178342Y0160155D01*
X0179267Y0159230D01*
X0179767Y0158021D01*
X0179767Y0156712D01*
X0179267Y0155504D01*
X0178678Y0154915D01*
X0178678Y0138976D01*
X0179367Y0138690D01*
X0180802Y0137256D01*
X0181578Y0135381D01*
X0181578Y0133352D01*
X0180802Y0131478D01*
X0179367Y0130043D01*
X0177734Y0129367D01*
X0179367Y0128690D01*
X0180802Y0127256D01*
X0181578Y0125381D01*
X0181578Y0123352D01*
X0180802Y0121478D01*
X0179367Y0120043D01*
X0177734Y0119367D01*
X0179367Y0118690D01*
X0180802Y0117256D01*
X0181578Y0115381D01*
X0181578Y0114378D01*
X0184678Y0111278D01*
X0184678Y0083818D01*
X0185267Y0083230D01*
X0185767Y0082021D01*
X0185767Y0080712D01*
X0185267Y0079504D01*
X0184342Y0078578D01*
X0183133Y0078078D01*
X0181824Y0078078D01*
X0180615Y0078578D01*
X0179690Y0079504D01*
X0179189Y0080712D01*
X0179189Y0082021D01*
X0179690Y0083230D01*
X0180278Y0083818D01*
X0180278Y0090954D01*
X0179367Y0090043D01*
X0177493Y0089267D01*
X0175464Y0089267D01*
X0173590Y0090043D01*
X0172155Y0091478D01*
X0171478Y0093111D01*
X0170802Y0091478D01*
X0169367Y0090043D01*
X0168678Y0089758D01*
X0168678Y0062818D01*
X0169267Y0062230D01*
X0169767Y0061021D01*
X0169767Y0059712D01*
X0169267Y0058504D01*
X0168678Y0057915D01*
X0168678Y0038955D01*
X0167390Y0037667D01*
X0166678Y0036955D01*
X0165390Y0035667D01*
X0162390Y0035667D01*
X0162145Y0035422D01*
X0163209Y0034359D01*
X0163878Y0032742D01*
X0163878Y0024991D01*
X0163209Y0023374D01*
X0161971Y0022137D01*
X0161319Y0021867D01*
X0161971Y0021597D01*
X0163209Y0020359D01*
X0163878Y0018742D01*
X0163878Y0010991D01*
X0163209Y0009374D01*
X0161971Y0008137D01*
X0160354Y0007467D01*
X0158603Y0007467D01*
X0156986Y0008137D01*
X0155748Y0009374D01*
X0155078Y0010991D01*
X0155078Y0018742D01*
X0155748Y0020359D01*
X0156986Y0021597D01*
X0157638Y0021867D01*
X0156986Y0022137D01*
X0155748Y0023374D01*
X0155078Y0024991D01*
X0155078Y0026667D01*
X0154390Y0026667D01*
X0152678Y0024955D01*
X0152678Y0012455D01*
X0151390Y0011167D01*
X0151390Y0011167D01*
X0148678Y0008455D01*
X0148678Y0008455D01*
X0147490Y0007267D01*
X0181690Y0007267D01*
X0179951Y0009005D01*
X0178779Y0011835D01*
X0178779Y0014898D01*
X0179951Y0017728D01*
X0182117Y0019894D01*
X0184947Y0021066D01*
X0188010Y0021066D01*
X0190840Y0019894D01*
X0192478Y0018255D01*
X0192478Y0168978D01*
X0190840Y0167340D01*
X0188010Y0166167D01*
X0184947Y0166167D01*
X0182117Y0167340D01*
X0179951Y0169505D01*
X0178779Y0172335D01*
X0178779Y0175398D01*
X0179951Y0178228D01*
X0181590Y0179867D01*
X0026367Y0179867D01*
X0028006Y0178228D01*
X0029178Y0175398D01*
X0029178Y0172335D01*
X0028006Y0169505D01*
X0025840Y0167340D01*
X0023010Y0166167D01*
X0019947Y0166167D01*
X0017117Y0167340D01*
X0015478Y0168978D01*
X0015478Y0168467D02*
X0015990Y0168467D01*
X0015478Y0167269D02*
X0017288Y0167269D01*
X0015478Y0166070D02*
X0042278Y0166070D01*
X0042278Y0164872D02*
X0015478Y0164872D01*
X0015478Y0163673D02*
X0042278Y0163673D01*
X0042278Y0162475D02*
X0015478Y0162475D01*
X0015478Y0161276D02*
X0042278Y0161276D01*
X0042278Y0160078D02*
X0015478Y0160078D01*
X0015478Y0158879D02*
X0042278Y0158879D01*
X0042278Y0157681D02*
X0015478Y0157681D01*
X0015478Y0156482D02*
X0042278Y0156482D01*
X0042278Y0155284D02*
X0015478Y0155284D01*
X0015478Y0154085D02*
X0042278Y0154085D01*
X0042278Y0152887D02*
X0015478Y0152887D01*
X0015478Y0151688D02*
X0020909Y0151688D01*
X0021201Y0151900D02*
X0020526Y0151409D01*
X0019936Y0150819D01*
X0019445Y0150144D01*
X0019067Y0149401D01*
X0018809Y0148608D01*
X0018678Y0147784D01*
X0018678Y0147767D01*
X0023578Y0147767D01*
X0023578Y0146967D01*
X0018678Y0146967D01*
X0018678Y0146950D01*
X0018809Y0146126D01*
X0019067Y0145332D01*
X0019445Y0144589D01*
X0019936Y0143914D01*
X0020526Y0143324D01*
X0021201Y0142834D01*
X0021944Y0142455D01*
X0022500Y0142274D01*
X0021090Y0141690D01*
X0019655Y0140256D01*
X0018878Y0138381D01*
X0018878Y0136352D01*
X0019655Y0134478D01*
X0021090Y0133043D01*
X0022723Y0132367D01*
X0021090Y0131690D01*
X0019655Y0130256D01*
X0018878Y0128381D01*
X0018878Y0126352D01*
X0019655Y0124478D01*
X0021090Y0123043D01*
X0022723Y0122367D01*
X0021090Y0121690D01*
X0019655Y0120256D01*
X0018878Y0118381D01*
X0018878Y0116352D01*
X0019655Y0114478D01*
X0021090Y0113043D01*
X0022723Y0112367D01*
X0021090Y0111690D01*
X0019655Y0110256D01*
X0018878Y0108381D01*
X0018878Y0106352D01*
X0019655Y0104478D01*
X0021090Y0103043D01*
X0022723Y0102367D01*
X0021090Y0101690D01*
X0019655Y0100256D01*
X0018878Y0098381D01*
X0018878Y0096352D01*
X0019655Y0094478D01*
X0021090Y0093043D01*
X0022964Y0092267D01*
X0023467Y0092267D01*
X0025278Y0090455D01*
X0026567Y0089167D01*
X0033890Y0089167D01*
X0035890Y0091167D01*
X0037178Y0092455D01*
X0037178Y0114837D01*
X0037845Y0115504D01*
X0038345Y0116712D01*
X0038345Y0118021D01*
X0037845Y0119230D01*
X0036919Y0120155D01*
X0035711Y0120656D01*
X0034402Y0120656D01*
X0033467Y0120268D01*
X0033467Y0125989D01*
X0032179Y0127278D01*
X0029890Y0129567D01*
X0028587Y0129567D01*
X0028302Y0130256D01*
X0026867Y0131690D01*
X0025234Y0132367D01*
X0026867Y0133043D01*
X0028302Y0134478D01*
X0029078Y0136352D01*
X0029078Y0138381D01*
X0028302Y0140256D01*
X0026867Y0141690D01*
X0025457Y0142274D01*
X0026013Y0142455D01*
X0026756Y0142834D01*
X0027431Y0143324D01*
X0028021Y0143914D01*
X0028511Y0144589D01*
X0028890Y0145332D01*
X0029148Y0146126D01*
X0029278Y0146950D01*
X0029278Y0146967D01*
X0024379Y0146967D01*
X0024379Y0147767D01*
X0029278Y0147767D01*
X0029278Y0147784D01*
X0029148Y0148608D01*
X0028890Y0149401D01*
X0028511Y0150144D01*
X0028021Y0150819D01*
X0027431Y0151409D01*
X0026756Y0151900D01*
X0026013Y0152278D01*
X0025220Y0152536D01*
X0024396Y0152667D01*
X0024378Y0152667D01*
X0024378Y0147767D01*
X0023578Y0147767D01*
X0023578Y0152667D01*
X0023561Y0152667D01*
X0022737Y0152536D01*
X0021944Y0152278D01*
X0021201Y0151900D01*
X0019696Y0150490D02*
X0015478Y0150490D01*
X0015478Y0149291D02*
X0019031Y0149291D01*
X0018727Y0148092D02*
X0015478Y0148092D01*
X0015478Y0146894D02*
X0018687Y0146894D01*
X0018949Y0145695D02*
X0015478Y0145695D01*
X0015478Y0144497D02*
X0019512Y0144497D01*
X0020561Y0143298D02*
X0015478Y0143298D01*
X0015478Y0142100D02*
X0022079Y0142100D01*
X0020301Y0140901D02*
X0015478Y0140901D01*
X0015478Y0139703D02*
X0019426Y0139703D01*
X0018930Y0138504D02*
X0015478Y0138504D01*
X0015478Y0137306D02*
X0018878Y0137306D01*
X0018980Y0136107D02*
X0015478Y0136107D01*
X0015478Y0134909D02*
X0019476Y0134909D01*
X0020422Y0133710D02*
X0015478Y0133710D01*
X0015478Y0132512D02*
X0022372Y0132512D01*
X0020713Y0131313D02*
X0015478Y0131313D01*
X0015478Y0130115D02*
X0019597Y0130115D01*
X0019100Y0128916D02*
X0015478Y0128916D01*
X0015478Y0127718D02*
X0018878Y0127718D01*
X0018878Y0126519D02*
X0015478Y0126519D01*
X0015478Y0125321D02*
X0019306Y0125321D01*
X0020010Y0124122D02*
X0015478Y0124122D01*
X0015478Y0122924D02*
X0021378Y0122924D01*
X0021174Y0121725D02*
X0015478Y0121725D01*
X0015478Y0120527D02*
X0019926Y0120527D01*
X0019271Y0119328D02*
X0015478Y0119328D01*
X0015478Y0118130D02*
X0018878Y0118130D01*
X0018878Y0116931D02*
X0015478Y0116931D01*
X0015478Y0115733D02*
X0019135Y0115733D01*
X0019632Y0114534D02*
X0015478Y0114534D01*
X0015478Y0113336D02*
X0020797Y0113336D01*
X0022169Y0112137D02*
X0015478Y0112137D01*
X0015478Y0110939D02*
X0020338Y0110939D01*
X0019441Y0109740D02*
X0015478Y0109740D01*
X0015478Y0108542D02*
X0018945Y0108542D01*
X0018878Y0107343D02*
X0015478Y0107343D01*
X0015478Y0106145D02*
X0018964Y0106145D01*
X0019461Y0104946D02*
X0015478Y0104946D01*
X0015478Y0103748D02*
X0020385Y0103748D01*
X0022282Y0102549D02*
X0015478Y0102549D01*
X0015478Y0101351D02*
X0020750Y0101351D01*
X0019612Y0100152D02*
X0015478Y0100152D01*
X0015478Y0098954D02*
X0019116Y0098954D01*
X0018878Y0097755D02*
X0015478Y0097755D01*
X0015478Y0096556D02*
X0018878Y0096556D01*
X0019290Y0095358D02*
X0015478Y0095358D01*
X0015478Y0094159D02*
X0019973Y0094159D01*
X0021288Y0092961D02*
X0015478Y0092961D01*
X0015478Y0091762D02*
X0023971Y0091762D01*
X0025170Y0090564D02*
X0015478Y0090564D01*
X0015478Y0089365D02*
X0026368Y0089365D01*
X0027478Y0091367D02*
X0032978Y0091367D01*
X0034978Y0093367D01*
X0034978Y0109367D01*
X0034978Y0110445D01*
X0034978Y0117289D01*
X0035056Y0117367D01*
X0034091Y0120527D02*
X0033467Y0120527D01*
X0033467Y0121725D02*
X0042278Y0121725D01*
X0042278Y0120527D02*
X0036022Y0120527D01*
X0037746Y0119328D02*
X0042278Y0119328D01*
X0042278Y0118130D02*
X0038300Y0118130D01*
X0038345Y0116931D02*
X0042278Y0116931D01*
X0042278Y0115733D02*
X0037940Y0115733D01*
X0037178Y0114534D02*
X0042278Y0114534D01*
X0042278Y0113336D02*
X0037178Y0113336D01*
X0037178Y0112137D02*
X0042278Y0112137D01*
X0042278Y0110939D02*
X0037178Y0110939D01*
X0037178Y0109740D02*
X0042278Y0109740D01*
X0042278Y0108542D02*
X0037178Y0108542D01*
X0037178Y0107343D02*
X0042278Y0107343D01*
X0042278Y0106145D02*
X0037178Y0106145D01*
X0037178Y0104946D02*
X0042278Y0104946D01*
X0042278Y0103748D02*
X0037178Y0103748D01*
X0037178Y0102549D02*
X0042278Y0102549D01*
X0042278Y0101351D02*
X0037178Y0101351D01*
X0037178Y0100152D02*
X0041658Y0100152D01*
X0041690Y0100230D02*
X0041189Y0099021D01*
X0041189Y0097712D01*
X0041690Y0096504D01*
X0042615Y0095578D01*
X0043824Y0095078D01*
X0045133Y0095078D01*
X0046342Y0095578D01*
X0047267Y0096504D01*
X0047767Y0097712D01*
X0047767Y0099021D01*
X0047267Y0100230D01*
X0046678Y0100818D01*
X0046678Y0165955D01*
X0051390Y0170667D01*
X0080556Y0170667D01*
X0079078Y0169189D01*
X0079078Y0165544D01*
X0081656Y0162967D01*
X0085301Y0162967D01*
X0087878Y0165544D01*
X0087878Y0169189D01*
X0086401Y0170667D01*
X0090556Y0170667D01*
X0089078Y0169189D01*
X0089078Y0165544D01*
X0091656Y0162967D01*
X0095301Y0162967D01*
X0097878Y0165544D01*
X0097878Y0169189D01*
X0096401Y0170667D01*
X0100556Y0170667D01*
X0099078Y0169189D01*
X0099078Y0165544D01*
X0101656Y0162967D01*
X0105301Y0162967D01*
X0107878Y0165544D01*
X0107878Y0169189D01*
X0106401Y0170667D01*
X0107067Y0170667D01*
X0109078Y0168655D01*
X0109078Y0165544D01*
X0111656Y0162967D01*
X0115301Y0162967D01*
X0117878Y0165544D01*
X0117878Y0169189D01*
X0115301Y0171767D01*
X0112190Y0171767D01*
X0110178Y0173778D01*
X0108890Y0175067D01*
X0049567Y0175067D01*
X0042278Y0167778D01*
X0042278Y0100818D01*
X0041690Y0100230D01*
X0041189Y0098954D02*
X0037178Y0098954D01*
X0037178Y0097755D02*
X0041189Y0097755D01*
X0041668Y0096556D02*
X0037178Y0096556D01*
X0037178Y0095358D02*
X0043148Y0095358D01*
X0044478Y0098367D02*
X0044478Y0166867D01*
X0050478Y0172867D01*
X0107978Y0172867D01*
X0113478Y0167367D01*
X0109078Y0167269D02*
X0107878Y0167269D01*
X0107878Y0168467D02*
X0109078Y0168467D01*
X0108068Y0169666D02*
X0107402Y0169666D01*
X0107878Y0166070D02*
X0109078Y0166070D01*
X0109751Y0164872D02*
X0107206Y0164872D01*
X0106007Y0163673D02*
X0110949Y0163673D01*
X0111656Y0161767D02*
X0109078Y0159189D01*
X0109078Y0155544D01*
X0111656Y0152967D01*
X0115301Y0152967D01*
X0117878Y0155544D01*
X0117878Y0159189D01*
X0115301Y0161767D01*
X0111656Y0161767D01*
X0111165Y0161276D02*
X0105792Y0161276D01*
X0105301Y0161767D02*
X0101656Y0161767D01*
X0099078Y0159189D01*
X0099078Y0156078D01*
X0097567Y0154567D01*
X0096278Y0153278D01*
X0096278Y0149789D01*
X0095971Y0150097D01*
X0094354Y0150767D01*
X0092603Y0150767D01*
X0091178Y0150176D01*
X0091178Y0151955D01*
X0092190Y0152967D01*
X0095301Y0152967D01*
X0097878Y0155544D01*
X0097878Y0159189D01*
X0095301Y0161767D01*
X0091656Y0161767D01*
X0089078Y0159189D01*
X0089078Y0156078D01*
X0088067Y0155067D01*
X0086778Y0153778D01*
X0086778Y0149289D01*
X0085971Y0150097D01*
X0084354Y0150767D01*
X0082603Y0150767D01*
X0080986Y0150097D01*
X0079748Y0148859D01*
X0079078Y0147242D01*
X0079078Y0139491D01*
X0079748Y0137874D01*
X0080986Y0136637D01*
X0082603Y0135967D01*
X0084354Y0135967D01*
X0085971Y0136637D01*
X0086778Y0137444D01*
X0086778Y0118955D01*
X0088067Y0117667D01*
X0093067Y0112667D01*
X0097716Y0112667D01*
X0098304Y0112078D01*
X0099513Y0111578D01*
X0100822Y0111578D01*
X0102030Y0112078D01*
X0102956Y0113004D01*
X0103456Y0114212D01*
X0103456Y0115521D01*
X0102956Y0116730D01*
X0102030Y0117655D01*
X0100822Y0118156D01*
X0099513Y0118156D01*
X0098304Y0117655D01*
X0097716Y0117067D01*
X0094890Y0117067D01*
X0091178Y0120778D01*
X0091178Y0136557D01*
X0092603Y0135967D01*
X0094354Y0135967D01*
X0095335Y0136373D01*
X0095189Y0136021D01*
X0095189Y0134712D01*
X0095690Y0133504D01*
X0096615Y0132578D01*
X0097824Y0132078D01*
X0099133Y0132078D01*
X0100342Y0132578D01*
X0101267Y0133504D01*
X0101767Y0134712D01*
X0101767Y0136021D01*
X0101621Y0136373D01*
X0102603Y0135967D01*
X0104354Y0135967D01*
X0105971Y0136637D01*
X0107209Y0137874D01*
X0107878Y0139491D01*
X0107878Y0147242D01*
X0107209Y0148859D01*
X0105971Y0150097D01*
X0104354Y0150767D01*
X0102603Y0150767D01*
X0100986Y0150097D01*
X0100678Y0149789D01*
X0100678Y0151455D01*
X0102190Y0152967D01*
X0105301Y0152967D01*
X0107878Y0155544D01*
X0107878Y0159189D01*
X0105301Y0161767D01*
X0106990Y0160078D02*
X0109967Y0160078D01*
X0109078Y0158879D02*
X0107878Y0158879D01*
X0107878Y0157681D02*
X0109078Y0157681D01*
X0109078Y0156482D02*
X0107878Y0156482D01*
X0107618Y0155284D02*
X0109339Y0155284D01*
X0110538Y0154085D02*
X0106419Y0154085D01*
X0105023Y0150490D02*
X0111934Y0150490D01*
X0112603Y0150767D02*
X0110986Y0150097D01*
X0109748Y0148859D01*
X0109078Y0147242D01*
X0109078Y0139491D01*
X0109748Y0137874D01*
X0110986Y0136637D01*
X0111278Y0136515D01*
X0111278Y0104818D01*
X0110690Y0104230D01*
X0110189Y0103021D01*
X0110189Y0101712D01*
X0110690Y0100504D01*
X0111615Y0099578D01*
X0112824Y0099078D01*
X0114133Y0099078D01*
X0115342Y0099578D01*
X0116267Y0100504D01*
X0116767Y0101712D01*
X0116767Y0103021D01*
X0116267Y0104230D01*
X0115678Y0104818D01*
X0115678Y0105847D01*
X0116113Y0105667D01*
X0117422Y0105667D01*
X0118630Y0106167D01*
X0119556Y0107093D01*
X0120056Y0108301D01*
X0120056Y0109610D01*
X0119556Y0110819D01*
X0118967Y0111407D01*
X0118967Y0132415D01*
X0119556Y0133004D01*
X0120056Y0134212D01*
X0120056Y0135521D01*
X0119556Y0136730D01*
X0118630Y0137655D01*
X0117422Y0138156D01*
X0117325Y0138156D01*
X0117878Y0139491D01*
X0117878Y0147242D01*
X0117209Y0148859D01*
X0115971Y0150097D01*
X0114354Y0150767D01*
X0112603Y0150767D01*
X0115023Y0150490D02*
X0121934Y0150490D01*
X0122603Y0150767D02*
X0120986Y0150097D01*
X0119748Y0148859D01*
X0119078Y0147242D01*
X0119078Y0139491D01*
X0119748Y0137874D01*
X0120986Y0136637D01*
X0121278Y0136515D01*
X0121278Y0108318D01*
X0120690Y0107730D01*
X0120189Y0106521D01*
X0120189Y0105212D01*
X0120690Y0104004D01*
X0121615Y0103078D01*
X0122824Y0102578D01*
X0124133Y0102578D01*
X0125342Y0103078D01*
X0126267Y0104004D01*
X0126767Y0105212D01*
X0126767Y0106521D01*
X0126267Y0107730D01*
X0125678Y0108318D01*
X0125678Y0136515D01*
X0125971Y0136637D01*
X0127209Y0137874D01*
X0127278Y0138043D01*
X0127278Y0124318D01*
X0126690Y0123730D01*
X0126189Y0122521D01*
X0126189Y0121212D01*
X0126690Y0120004D01*
X0127615Y0119078D01*
X0128824Y0118578D01*
X0130133Y0118578D01*
X0131237Y0119035D01*
X0131189Y0118921D01*
X0131189Y0117612D01*
X0131690Y0116404D01*
X0132615Y0115478D01*
X0133824Y0114978D01*
X0135133Y0114978D01*
X0136342Y0115478D01*
X0136778Y0115915D01*
X0136778Y0100818D01*
X0136190Y0100230D01*
X0135689Y0099021D01*
X0135689Y0097712D01*
X0136190Y0096504D01*
X0137115Y0095578D01*
X0138324Y0095078D01*
X0139633Y0095078D01*
X0140842Y0095578D01*
X0141767Y0096504D01*
X0142267Y0097712D01*
X0142267Y0099021D01*
X0141767Y0100230D01*
X0141178Y0100818D01*
X0141178Y0172915D01*
X0141767Y0173504D01*
X0142267Y0174712D01*
X0142267Y0176021D01*
X0141767Y0177230D01*
X0140842Y0178155D01*
X0139633Y0178656D01*
X0138324Y0178656D01*
X0137115Y0178155D01*
X0136190Y0177230D01*
X0135689Y0176021D01*
X0135689Y0175425D01*
X0135133Y0175656D01*
X0133824Y0175656D01*
X0132615Y0175155D01*
X0131690Y0174230D01*
X0131189Y0173021D01*
X0131189Y0171712D01*
X0131690Y0170504D01*
X0132278Y0169915D01*
X0132278Y0159201D01*
X0132267Y0159230D01*
X0131342Y0160155D01*
X0130133Y0160656D01*
X0128824Y0160656D01*
X0127615Y0160155D01*
X0126690Y0159230D01*
X0126189Y0158021D01*
X0126189Y0156712D01*
X0126690Y0155504D01*
X0127278Y0154915D01*
X0127278Y0148690D01*
X0127209Y0148859D01*
X0125971Y0150097D01*
X0124354Y0150767D01*
X0122603Y0150767D01*
X0125023Y0150490D02*
X0127278Y0150490D01*
X0127278Y0151688D02*
X0100911Y0151688D01*
X0100678Y0150490D02*
X0101934Y0150490D01*
X0102110Y0152887D02*
X0127278Y0152887D01*
X0127278Y0154085D02*
X0116419Y0154085D01*
X0117618Y0155284D02*
X0126910Y0155284D01*
X0126285Y0156482D02*
X0117878Y0156482D01*
X0117878Y0157681D02*
X0126189Y0157681D01*
X0126545Y0158879D02*
X0117878Y0158879D01*
X0116990Y0160078D02*
X0127538Y0160078D01*
X0129478Y0157367D02*
X0129478Y0121867D01*
X0129478Y0121367D01*
X0127366Y0119328D02*
X0125678Y0119328D01*
X0125678Y0118130D02*
X0131189Y0118130D01*
X0131472Y0116931D02*
X0125678Y0116931D01*
X0125678Y0115733D02*
X0132361Y0115733D01*
X0134478Y0118267D02*
X0134478Y0150867D01*
X0134478Y0172367D01*
X0131920Y0174460D02*
X0109497Y0174460D01*
X0110695Y0173261D02*
X0131289Y0173261D01*
X0131189Y0172063D02*
X0111894Y0172063D01*
X0116203Y0170864D02*
X0131541Y0170864D01*
X0132278Y0169666D02*
X0117402Y0169666D01*
X0117878Y0168467D02*
X0132278Y0168467D01*
X0132278Y0167269D02*
X0117878Y0167269D01*
X0117878Y0166070D02*
X0132278Y0166070D01*
X0132278Y0164872D02*
X0117206Y0164872D01*
X0116007Y0163673D02*
X0132278Y0163673D01*
X0132278Y0162475D02*
X0046678Y0162475D01*
X0046678Y0163673D02*
X0080949Y0163673D01*
X0079751Y0164872D02*
X0046678Y0164872D01*
X0046793Y0166070D02*
X0079078Y0166070D01*
X0079078Y0167269D02*
X0047992Y0167269D01*
X0049190Y0168467D02*
X0079078Y0168467D01*
X0079555Y0169666D02*
X0050389Y0169666D01*
X0047762Y0173261D02*
X0029178Y0173261D01*
X0029178Y0174460D02*
X0048960Y0174460D01*
X0046563Y0172063D02*
X0029065Y0172063D01*
X0028568Y0170864D02*
X0045365Y0170864D01*
X0044166Y0169666D02*
X0028072Y0169666D01*
X0026967Y0168467D02*
X0042968Y0168467D01*
X0042278Y0167269D02*
X0025668Y0167269D01*
X0029070Y0175658D02*
X0135689Y0175658D01*
X0136036Y0176857D02*
X0028573Y0176857D01*
X0028077Y0178055D02*
X0137016Y0178055D01*
X0138978Y0175367D02*
X0138978Y0098367D01*
X0137648Y0095358D02*
X0091678Y0095358D01*
X0091678Y0096556D02*
X0136168Y0096556D01*
X0135689Y0097755D02*
X0091678Y0097755D01*
X0091678Y0098954D02*
X0135689Y0098954D01*
X0136158Y0100152D02*
X0115915Y0100152D01*
X0116618Y0101351D02*
X0136778Y0101351D01*
X0136778Y0102549D02*
X0116767Y0102549D01*
X0116466Y0103748D02*
X0120946Y0103748D01*
X0120300Y0104946D02*
X0115678Y0104946D01*
X0118575Y0106145D02*
X0120189Y0106145D01*
X0120530Y0107343D02*
X0119659Y0107343D01*
X0120056Y0108542D02*
X0121278Y0108542D01*
X0121278Y0109740D02*
X0120002Y0109740D01*
X0119436Y0110939D02*
X0121278Y0110939D01*
X0121278Y0112137D02*
X0118967Y0112137D01*
X0118967Y0113336D02*
X0121278Y0113336D01*
X0121278Y0114534D02*
X0118967Y0114534D01*
X0118967Y0115733D02*
X0121278Y0115733D01*
X0121278Y0116931D02*
X0118967Y0116931D01*
X0118967Y0118130D02*
X0121278Y0118130D01*
X0121278Y0119328D02*
X0118967Y0119328D01*
X0118967Y0120527D02*
X0121278Y0120527D01*
X0121278Y0121725D02*
X0118967Y0121725D01*
X0118967Y0122924D02*
X0121278Y0122924D01*
X0121278Y0124122D02*
X0118967Y0124122D01*
X0118967Y0125321D02*
X0121278Y0125321D01*
X0121278Y0126519D02*
X0118967Y0126519D01*
X0118967Y0127718D02*
X0121278Y0127718D01*
X0121278Y0128916D02*
X0118967Y0128916D01*
X0118967Y0130115D02*
X0121278Y0130115D01*
X0121278Y0131313D02*
X0118967Y0131313D01*
X0119064Y0132512D02*
X0121278Y0132512D01*
X0121278Y0133710D02*
X0119848Y0133710D01*
X0120056Y0134909D02*
X0121278Y0134909D01*
X0121278Y0136107D02*
X0119813Y0136107D01*
X0120317Y0137306D02*
X0118980Y0137306D01*
X0119487Y0138504D02*
X0117470Y0138504D01*
X0117878Y0139703D02*
X0119078Y0139703D01*
X0119078Y0140901D02*
X0117878Y0140901D01*
X0117878Y0142100D02*
X0119078Y0142100D01*
X0119078Y0143298D02*
X0117878Y0143298D01*
X0117878Y0144497D02*
X0119078Y0144497D01*
X0119078Y0145695D02*
X0117878Y0145695D01*
X0117878Y0146894D02*
X0119078Y0146894D01*
X0119431Y0148092D02*
X0117526Y0148092D01*
X0116777Y0149291D02*
X0120180Y0149291D01*
X0126777Y0149291D02*
X0127278Y0149291D01*
X0123478Y0143367D02*
X0123478Y0105867D01*
X0126427Y0107343D02*
X0136778Y0107343D01*
X0136778Y0106145D02*
X0126767Y0106145D01*
X0126657Y0104946D02*
X0136778Y0104946D01*
X0136778Y0103748D02*
X0126011Y0103748D01*
X0125678Y0108542D02*
X0136778Y0108542D01*
X0136778Y0109740D02*
X0125678Y0109740D01*
X0125678Y0110939D02*
X0136778Y0110939D01*
X0136778Y0112137D02*
X0125678Y0112137D01*
X0125678Y0113336D02*
X0136778Y0113336D01*
X0136778Y0114534D02*
X0125678Y0114534D01*
X0125678Y0120527D02*
X0126473Y0120527D01*
X0126189Y0121725D02*
X0125678Y0121725D01*
X0125678Y0122924D02*
X0126356Y0122924D01*
X0125678Y0124122D02*
X0127083Y0124122D01*
X0127278Y0125321D02*
X0125678Y0125321D01*
X0125678Y0126519D02*
X0127278Y0126519D01*
X0127278Y0127718D02*
X0125678Y0127718D01*
X0125678Y0128916D02*
X0127278Y0128916D01*
X0127278Y0130115D02*
X0125678Y0130115D01*
X0125678Y0131313D02*
X0127278Y0131313D01*
X0127278Y0132512D02*
X0125678Y0132512D01*
X0125678Y0133710D02*
X0127278Y0133710D01*
X0127278Y0134909D02*
X0125678Y0134909D01*
X0125678Y0136107D02*
X0127278Y0136107D01*
X0127278Y0137306D02*
X0126640Y0137306D01*
X0116767Y0134867D02*
X0116767Y0108956D01*
X0111278Y0108542D02*
X0090415Y0108542D01*
X0090267Y0108689D02*
X0091678Y0107278D01*
X0091678Y0089535D01*
X0092574Y0089906D01*
X0093883Y0089906D01*
X0095092Y0089405D01*
X0095680Y0088817D01*
X0102277Y0088817D01*
X0102615Y0089155D01*
X0103824Y0089656D01*
X0105133Y0089656D01*
X0106342Y0089155D01*
X0107267Y0088230D01*
X0107767Y0087021D01*
X0107767Y0085712D01*
X0107267Y0084504D01*
X0106342Y0083578D01*
X0105133Y0083078D01*
X0103824Y0083078D01*
X0102615Y0083578D01*
X0101777Y0084417D01*
X0095680Y0084417D01*
X0095092Y0083828D01*
X0093883Y0083328D01*
X0092574Y0083328D01*
X0091678Y0083699D01*
X0091678Y0046278D01*
X0093490Y0044467D01*
X0105327Y0044467D01*
X0105448Y0044759D01*
X0106686Y0045997D01*
X0108303Y0046667D01*
X0116054Y0046667D01*
X0117671Y0045997D01*
X0118909Y0044759D01*
X0119030Y0044467D01*
X0130927Y0044467D01*
X0131048Y0044759D01*
X0132286Y0045997D01*
X0133903Y0046667D01*
X0141654Y0046667D01*
X0143271Y0045997D01*
X0143634Y0045634D01*
X0145778Y0047778D01*
X0145778Y0061915D01*
X0145190Y0062504D01*
X0144689Y0063712D01*
X0144689Y0065021D01*
X0145190Y0066230D01*
X0145778Y0066818D01*
X0145778Y0078415D01*
X0145190Y0079004D01*
X0144689Y0080212D01*
X0144689Y0081521D01*
X0145190Y0082730D01*
X0146115Y0083655D01*
X0147324Y0084156D01*
X0148633Y0084156D01*
X0149842Y0083655D01*
X0150767Y0082730D01*
X0151267Y0081521D01*
X0151267Y0080212D01*
X0150767Y0079004D01*
X0150178Y0078415D01*
X0150178Y0066818D01*
X0150767Y0066230D01*
X0151267Y0065021D01*
X0151267Y0063712D01*
X0150767Y0062504D01*
X0150178Y0061915D01*
X0150178Y0045955D01*
X0148890Y0044667D01*
X0148890Y0044667D01*
X0144870Y0040647D01*
X0144509Y0039774D01*
X0143271Y0038537D01*
X0141654Y0037867D01*
X0133903Y0037867D01*
X0132286Y0038537D01*
X0131048Y0039774D01*
X0130927Y0040067D01*
X0119030Y0040067D01*
X0118909Y0039774D01*
X0117671Y0038537D01*
X0116054Y0037867D01*
X0108303Y0037867D01*
X0106686Y0038537D01*
X0105448Y0039774D01*
X0105327Y0040067D01*
X0091667Y0040067D01*
X0090378Y0041355D01*
X0088678Y0043055D01*
X0088678Y0026718D01*
X0088971Y0026597D01*
X0090209Y0025359D01*
X0090878Y0023742D01*
X0090878Y0015991D01*
X0090209Y0014374D01*
X0088971Y0013137D01*
X0087354Y0012467D01*
X0085603Y0012467D01*
X0083986Y0013137D01*
X0082748Y0014374D01*
X0082078Y0015991D01*
X0082078Y0023742D01*
X0082748Y0025359D01*
X0083986Y0026597D01*
X0084278Y0026718D01*
X0084278Y0068010D01*
X0084244Y0067976D01*
X0082774Y0067367D01*
X0081183Y0067367D01*
X0079713Y0067976D01*
X0078587Y0069101D01*
X0077978Y0070571D01*
X0077978Y0072162D01*
X0078587Y0073632D01*
X0079713Y0074758D01*
X0081183Y0075367D01*
X0082774Y0075367D01*
X0084244Y0074758D01*
X0084278Y0074723D01*
X0084278Y0091955D01*
X0083067Y0093167D01*
X0076748Y0093167D01*
X0076267Y0092004D01*
X0075342Y0091078D01*
X0074133Y0090578D01*
X0072824Y0090578D01*
X0071615Y0091078D01*
X0070690Y0092004D01*
X0070189Y0093212D01*
X0070189Y0094521D01*
X0070690Y0095730D01*
X0071615Y0096655D01*
X0072824Y0097156D01*
X0073656Y0097156D01*
X0074067Y0097567D01*
X0084890Y0097567D01*
X0086178Y0096278D01*
X0087278Y0095178D01*
X0087278Y0105455D01*
X0087156Y0105578D01*
X0086324Y0105578D01*
X0085115Y0106078D01*
X0084190Y0107004D01*
X0083689Y0108212D01*
X0083689Y0109521D01*
X0084190Y0110730D01*
X0085115Y0111655D01*
X0086324Y0112156D01*
X0087633Y0112156D01*
X0088842Y0111655D01*
X0089767Y0110730D01*
X0090267Y0109521D01*
X0090267Y0108689D01*
X0090177Y0109740D02*
X0111278Y0109740D01*
X0111278Y0110939D02*
X0089558Y0110939D01*
X0087677Y0112137D02*
X0098246Y0112137D01*
X0100167Y0114867D02*
X0093978Y0114867D01*
X0088978Y0119867D01*
X0088978Y0152867D01*
X0093478Y0157367D01*
X0096419Y0154085D02*
X0097086Y0154085D01*
X0097618Y0155284D02*
X0098284Y0155284D01*
X0097878Y0156482D02*
X0099078Y0156482D01*
X0099078Y0157681D02*
X0097878Y0157681D01*
X0097878Y0158879D02*
X0099078Y0158879D01*
X0099967Y0160078D02*
X0096990Y0160078D01*
X0095792Y0161276D02*
X0101165Y0161276D01*
X0100949Y0163673D02*
X0096007Y0163673D01*
X0097206Y0164872D02*
X0099751Y0164872D01*
X0099078Y0166070D02*
X0097878Y0166070D01*
X0097878Y0167269D02*
X0099078Y0167269D01*
X0099078Y0168467D02*
X0097878Y0168467D01*
X0097402Y0169666D02*
X0099555Y0169666D01*
X0090949Y0163673D02*
X0086007Y0163673D01*
X0087206Y0164872D02*
X0089751Y0164872D01*
X0089078Y0166070D02*
X0087878Y0166070D01*
X0087878Y0167269D02*
X0089078Y0167269D01*
X0089078Y0168467D02*
X0087878Y0168467D01*
X0087402Y0169666D02*
X0089555Y0169666D01*
X0085384Y0161967D02*
X0083878Y0161967D01*
X0083878Y0157767D01*
X0083078Y0157767D01*
X0083078Y0156967D01*
X0078878Y0156967D01*
X0078878Y0155461D01*
X0081573Y0152767D01*
X0083078Y0152767D01*
X0083078Y0156967D01*
X0083878Y0156967D01*
X0083878Y0152767D01*
X0085384Y0152767D01*
X0088078Y0155461D01*
X0088078Y0156967D01*
X0083879Y0156967D01*
X0083879Y0157767D01*
X0088078Y0157767D01*
X0088078Y0159272D01*
X0085384Y0161967D01*
X0086074Y0161276D02*
X0091165Y0161276D01*
X0089967Y0160078D02*
X0087273Y0160078D01*
X0088078Y0158879D02*
X0089078Y0158879D01*
X0089078Y0157681D02*
X0083879Y0157681D01*
X0083078Y0157681D02*
X0046678Y0157681D01*
X0046678Y0158879D02*
X0078878Y0158879D01*
X0078878Y0159272D02*
X0078878Y0157767D01*
X0083078Y0157767D01*
X0083078Y0161967D01*
X0081573Y0161967D01*
X0078878Y0159272D01*
X0079684Y0160078D02*
X0046678Y0160078D01*
X0046678Y0161276D02*
X0080883Y0161276D01*
X0083078Y0161276D02*
X0083878Y0161276D01*
X0083878Y0160078D02*
X0083078Y0160078D01*
X0083078Y0158879D02*
X0083878Y0158879D01*
X0083878Y0156482D02*
X0083078Y0156482D01*
X0083078Y0155284D02*
X0083878Y0155284D01*
X0083878Y0154085D02*
X0083078Y0154085D01*
X0083078Y0152887D02*
X0083878Y0152887D01*
X0085504Y0152887D02*
X0086778Y0152887D01*
X0086778Y0151688D02*
X0046678Y0151688D01*
X0046678Y0150490D02*
X0061438Y0150490D01*
X0061713Y0150630D02*
X0061068Y0150301D01*
X0060482Y0149875D01*
X0059970Y0149363D01*
X0059544Y0148778D01*
X0059215Y0148132D01*
X0058992Y0147444D01*
X0058878Y0146729D01*
X0058878Y0143767D01*
X0063078Y0143767D01*
X0063078Y0142967D01*
X0058878Y0142967D01*
X0058878Y0140005D01*
X0058992Y0139289D01*
X0059215Y0138601D01*
X0059544Y0137956D01*
X0059970Y0137370D01*
X0060482Y0136858D01*
X0061068Y0136432D01*
X0061713Y0136104D01*
X0062401Y0135880D01*
X0063078Y0135773D01*
X0063078Y0142967D01*
X0063878Y0142967D01*
X0063878Y0135773D01*
X0064556Y0135880D01*
X0065244Y0136104D01*
X0065889Y0136432D01*
X0066475Y0136858D01*
X0066987Y0137370D01*
X0067413Y0137956D01*
X0067741Y0138601D01*
X0067965Y0139289D01*
X0068078Y0140005D01*
X0068078Y0142967D01*
X0063879Y0142967D01*
X0063879Y0143767D01*
X0068078Y0143767D01*
X0068078Y0146729D01*
X0067965Y0147444D01*
X0067741Y0148132D01*
X0067413Y0148778D01*
X0066987Y0149363D01*
X0066475Y0149875D01*
X0065889Y0150301D01*
X0065244Y0150630D01*
X0064556Y0150853D01*
X0063878Y0150961D01*
X0063878Y0143767D01*
X0063078Y0143767D01*
X0063078Y0150961D01*
X0062401Y0150853D01*
X0061713Y0150630D01*
X0063078Y0150490D02*
X0063878Y0150490D01*
X0063878Y0149291D02*
X0063078Y0149291D01*
X0063078Y0148092D02*
X0063878Y0148092D01*
X0063878Y0146894D02*
X0063078Y0146894D01*
X0063078Y0145695D02*
X0063878Y0145695D01*
X0063878Y0144497D02*
X0063078Y0144497D01*
X0063078Y0143298D02*
X0046678Y0143298D01*
X0046678Y0142100D02*
X0058878Y0142100D01*
X0058878Y0140901D02*
X0046678Y0140901D01*
X0046678Y0139703D02*
X0058926Y0139703D01*
X0059265Y0138504D02*
X0046678Y0138504D01*
X0046678Y0137306D02*
X0060034Y0137306D01*
X0061705Y0136107D02*
X0046678Y0136107D01*
X0046678Y0134909D02*
X0086778Y0134909D01*
X0086778Y0136107D02*
X0084693Y0136107D01*
X0086640Y0137306D02*
X0086778Y0137306D01*
X0086778Y0133710D02*
X0046678Y0133710D01*
X0046678Y0132512D02*
X0086778Y0132512D01*
X0086778Y0131313D02*
X0046678Y0131313D01*
X0046678Y0130115D02*
X0086778Y0130115D01*
X0086778Y0128916D02*
X0046678Y0128916D01*
X0046678Y0127718D02*
X0086778Y0127718D01*
X0086778Y0126519D02*
X0046678Y0126519D01*
X0046678Y0125321D02*
X0086778Y0125321D01*
X0086778Y0124122D02*
X0046678Y0124122D01*
X0046678Y0122924D02*
X0086778Y0122924D01*
X0086778Y0121725D02*
X0046678Y0121725D01*
X0046678Y0120527D02*
X0057998Y0120527D01*
X0057690Y0120219D02*
X0057189Y0119010D01*
X0057189Y0118425D01*
X0056633Y0118656D01*
X0055324Y0118656D01*
X0054115Y0118155D01*
X0053190Y0117230D01*
X0052689Y0116021D01*
X0052689Y0115345D01*
X0052009Y0115345D01*
X0050800Y0114844D01*
X0049875Y0113919D01*
X0049375Y0112710D01*
X0049375Y0111401D01*
X0049875Y0110193D01*
X0050463Y0109604D01*
X0050463Y0089463D01*
X0043067Y0082067D01*
X0033567Y0082067D01*
X0030567Y0079067D01*
X0029278Y0077778D01*
X0029278Y0077218D01*
X0028986Y0077097D01*
X0027748Y0075859D01*
X0027078Y0074242D01*
X0027078Y0066491D01*
X0027748Y0064874D01*
X0028986Y0063637D01*
X0029155Y0063567D01*
X0024390Y0063567D01*
X0024145Y0063811D01*
X0025209Y0064874D01*
X0025878Y0066491D01*
X0025878Y0074242D01*
X0025209Y0075859D01*
X0023971Y0077097D01*
X0022354Y0077767D01*
X0020603Y0077767D01*
X0018986Y0077097D01*
X0017748Y0075859D01*
X0017078Y0074242D01*
X0017078Y0066491D01*
X0017748Y0064874D01*
X0018986Y0063637D01*
X0019278Y0063515D01*
X0019278Y0062455D01*
X0021278Y0060455D01*
X0022567Y0059167D01*
X0064890Y0059167D01*
X0066178Y0060455D01*
X0066178Y0060455D01*
X0069178Y0063455D01*
X0069178Y0089415D01*
X0069767Y0090004D01*
X0070267Y0091212D01*
X0070267Y0092521D01*
X0069767Y0093730D01*
X0068842Y0094655D01*
X0067633Y0095156D01*
X0066324Y0095156D01*
X0065115Y0094655D01*
X0064190Y0093730D01*
X0063689Y0092521D01*
X0063689Y0091212D01*
X0064190Y0090004D01*
X0064778Y0089415D01*
X0064778Y0076572D01*
X0064475Y0076875D01*
X0063889Y0077301D01*
X0063244Y0077630D01*
X0062556Y0077853D01*
X0061878Y0077961D01*
X0061878Y0070767D01*
X0061078Y0070767D01*
X0061078Y0069967D01*
X0056878Y0069967D01*
X0056878Y0067005D01*
X0056992Y0066289D01*
X0057215Y0065601D01*
X0057544Y0064956D01*
X0057970Y0064370D01*
X0058482Y0063858D01*
X0058883Y0063567D01*
X0053802Y0063567D01*
X0053971Y0063637D01*
X0055209Y0064874D01*
X0055878Y0066491D01*
X0055878Y0074242D01*
X0055209Y0075859D01*
X0053971Y0077097D01*
X0053678Y0077218D01*
X0053678Y0077955D01*
X0061467Y0085744D01*
X0061467Y0115205D01*
X0062342Y0115567D01*
X0063267Y0116493D01*
X0063767Y0117701D01*
X0063767Y0119010D01*
X0063267Y0120219D01*
X0062342Y0121144D01*
X0061133Y0121645D01*
X0059824Y0121645D01*
X0058615Y0121144D01*
X0057690Y0120219D01*
X0057321Y0119328D02*
X0046678Y0119328D01*
X0046678Y0118130D02*
X0054090Y0118130D01*
X0053067Y0116931D02*
X0046678Y0116931D01*
X0046678Y0115733D02*
X0052689Y0115733D01*
X0050491Y0114534D02*
X0046678Y0114534D01*
X0046678Y0113336D02*
X0049634Y0113336D01*
X0049375Y0112137D02*
X0046678Y0112137D01*
X0046678Y0110939D02*
X0049566Y0110939D01*
X0050328Y0109740D02*
X0046678Y0109740D01*
X0046678Y0108542D02*
X0050463Y0108542D01*
X0050463Y0107343D02*
X0046678Y0107343D01*
X0046678Y0106145D02*
X0050463Y0106145D01*
X0050463Y0104946D02*
X0046678Y0104946D01*
X0046678Y0103748D02*
X0050463Y0103748D01*
X0050463Y0102549D02*
X0046678Y0102549D01*
X0046678Y0101351D02*
X0050463Y0101351D01*
X0050463Y0100152D02*
X0047299Y0100152D01*
X0047767Y0098954D02*
X0050463Y0098954D01*
X0050463Y0097755D02*
X0047767Y0097755D01*
X0047289Y0096556D02*
X0050463Y0096556D01*
X0050463Y0095358D02*
X0045809Y0095358D01*
X0050463Y0094159D02*
X0037178Y0094159D01*
X0037178Y0092961D02*
X0050463Y0092961D01*
X0050463Y0091762D02*
X0036486Y0091762D01*
X0035287Y0090564D02*
X0050463Y0090564D01*
X0050366Y0089365D02*
X0034088Y0089365D01*
X0027478Y0091367D02*
X0023978Y0094867D01*
X0023978Y0097367D01*
X0031267Y0097867D02*
X0031267Y0125078D01*
X0028978Y0127367D01*
X0023978Y0127367D01*
X0027244Y0131313D02*
X0042278Y0131313D01*
X0042278Y0130115D02*
X0028360Y0130115D01*
X0030540Y0128916D02*
X0042278Y0128916D01*
X0042278Y0127718D02*
X0031739Y0127718D01*
X0032937Y0126519D02*
X0042278Y0126519D01*
X0042278Y0125321D02*
X0033467Y0125321D01*
X0033467Y0124122D02*
X0042278Y0124122D01*
X0042278Y0122924D02*
X0033467Y0122924D01*
X0027535Y0133710D02*
X0042278Y0133710D01*
X0042278Y0132512D02*
X0025585Y0132512D01*
X0028481Y0134909D02*
X0042278Y0134909D01*
X0042278Y0136107D02*
X0028977Y0136107D01*
X0029078Y0137306D02*
X0042278Y0137306D01*
X0042278Y0138504D02*
X0029027Y0138504D01*
X0028531Y0139703D02*
X0042278Y0139703D01*
X0042278Y0140901D02*
X0027656Y0140901D01*
X0025878Y0142100D02*
X0042278Y0142100D01*
X0042278Y0143298D02*
X0027396Y0143298D01*
X0028445Y0144497D02*
X0042278Y0144497D01*
X0042278Y0145695D02*
X0029008Y0145695D01*
X0029270Y0146894D02*
X0042278Y0146894D01*
X0042278Y0148092D02*
X0029230Y0148092D01*
X0028926Y0149291D02*
X0042278Y0149291D01*
X0042278Y0150490D02*
X0028261Y0150490D01*
X0027048Y0151688D02*
X0042278Y0151688D01*
X0046678Y0152887D02*
X0081453Y0152887D01*
X0080255Y0154085D02*
X0046678Y0154085D01*
X0046678Y0155284D02*
X0079056Y0155284D01*
X0078878Y0156482D02*
X0046678Y0156482D01*
X0046678Y0149291D02*
X0059917Y0149291D01*
X0059202Y0148092D02*
X0046678Y0148092D01*
X0046678Y0146894D02*
X0058905Y0146894D01*
X0058878Y0145695D02*
X0046678Y0145695D01*
X0046678Y0144497D02*
X0058878Y0144497D01*
X0063078Y0142100D02*
X0063878Y0142100D01*
X0063879Y0143298D02*
X0069078Y0143298D01*
X0069078Y0142100D02*
X0068078Y0142100D01*
X0068078Y0140901D02*
X0069078Y0140901D01*
X0069078Y0139703D02*
X0068031Y0139703D01*
X0069078Y0139491D02*
X0069748Y0137874D01*
X0070986Y0136637D01*
X0072603Y0135967D01*
X0074354Y0135967D01*
X0075971Y0136637D01*
X0077209Y0137874D01*
X0077878Y0139491D01*
X0077878Y0147242D01*
X0077209Y0148859D01*
X0075971Y0150097D01*
X0074354Y0150767D01*
X0072603Y0150767D01*
X0070986Y0150097D01*
X0069748Y0148859D01*
X0069078Y0147242D01*
X0069078Y0139491D01*
X0069487Y0138504D02*
X0067692Y0138504D01*
X0066923Y0137306D02*
X0070317Y0137306D01*
X0072264Y0136107D02*
X0065252Y0136107D01*
X0063878Y0136107D02*
X0063078Y0136107D01*
X0063078Y0137306D02*
X0063878Y0137306D01*
X0063878Y0138504D02*
X0063078Y0138504D01*
X0063078Y0139703D02*
X0063878Y0139703D01*
X0063878Y0140901D02*
X0063078Y0140901D01*
X0068078Y0144497D02*
X0069078Y0144497D01*
X0069078Y0145695D02*
X0068078Y0145695D01*
X0068052Y0146894D02*
X0069078Y0146894D01*
X0069431Y0148092D02*
X0067754Y0148092D01*
X0067040Y0149291D02*
X0070180Y0149291D01*
X0071934Y0150490D02*
X0065519Y0150490D01*
X0075023Y0150490D02*
X0081934Y0150490D01*
X0080180Y0149291D02*
X0076777Y0149291D01*
X0077526Y0148092D02*
X0079431Y0148092D01*
X0079078Y0146894D02*
X0077878Y0146894D01*
X0077878Y0145695D02*
X0079078Y0145695D01*
X0079078Y0144497D02*
X0077878Y0144497D01*
X0077878Y0143298D02*
X0079078Y0143298D01*
X0079078Y0142100D02*
X0077878Y0142100D01*
X0077878Y0140901D02*
X0079078Y0140901D01*
X0079078Y0139703D02*
X0077878Y0139703D01*
X0077470Y0138504D02*
X0079487Y0138504D01*
X0080317Y0137306D02*
X0076640Y0137306D01*
X0074693Y0136107D02*
X0082264Y0136107D01*
X0091178Y0136107D02*
X0092264Y0136107D01*
X0091178Y0134909D02*
X0095189Y0134909D01*
X0095225Y0136107D02*
X0094693Y0136107D01*
X0095605Y0133710D02*
X0091178Y0133710D01*
X0091178Y0132512D02*
X0096776Y0132512D01*
X0098478Y0135367D02*
X0098478Y0152367D01*
X0103478Y0157367D01*
X0096278Y0152887D02*
X0092110Y0152887D01*
X0091178Y0151688D02*
X0096278Y0151688D01*
X0096278Y0150490D02*
X0095023Y0150490D01*
X0091934Y0150490D02*
X0091178Y0150490D01*
X0086778Y0150490D02*
X0085023Y0150490D01*
X0086777Y0149291D02*
X0086778Y0149291D01*
X0086702Y0154085D02*
X0087086Y0154085D01*
X0087901Y0155284D02*
X0088284Y0155284D01*
X0088078Y0156482D02*
X0089078Y0156482D01*
X0106777Y0149291D02*
X0110180Y0149291D01*
X0109431Y0148092D02*
X0107526Y0148092D01*
X0107878Y0146894D02*
X0109078Y0146894D01*
X0109078Y0145695D02*
X0107878Y0145695D01*
X0107878Y0144497D02*
X0109078Y0144497D01*
X0109078Y0143298D02*
X0107878Y0143298D01*
X0107878Y0142100D02*
X0109078Y0142100D01*
X0109078Y0140901D02*
X0107878Y0140901D01*
X0107878Y0139703D02*
X0109078Y0139703D01*
X0109487Y0138504D02*
X0107470Y0138504D01*
X0106640Y0137306D02*
X0110317Y0137306D01*
X0111278Y0136107D02*
X0104693Y0136107D01*
X0102264Y0136107D02*
X0101732Y0136107D01*
X0101767Y0134909D02*
X0111278Y0134909D01*
X0111278Y0133710D02*
X0101352Y0133710D01*
X0100181Y0132512D02*
X0111278Y0132512D01*
X0111278Y0131313D02*
X0091178Y0131313D01*
X0091178Y0130115D02*
X0111278Y0130115D01*
X0111278Y0128916D02*
X0091178Y0128916D01*
X0091178Y0127718D02*
X0111278Y0127718D01*
X0111278Y0126519D02*
X0091178Y0126519D01*
X0091178Y0125321D02*
X0111278Y0125321D01*
X0111278Y0124122D02*
X0091178Y0124122D01*
X0091178Y0122924D02*
X0111278Y0122924D01*
X0111278Y0121725D02*
X0091178Y0121725D01*
X0091430Y0120527D02*
X0111278Y0120527D01*
X0111278Y0119328D02*
X0092628Y0119328D01*
X0093827Y0118130D02*
X0099451Y0118130D01*
X0100884Y0118130D02*
X0111278Y0118130D01*
X0111278Y0116931D02*
X0102754Y0116931D01*
X0103369Y0115733D02*
X0111278Y0115733D01*
X0111278Y0114534D02*
X0103456Y0114534D01*
X0103093Y0113336D02*
X0111278Y0113336D01*
X0111278Y0112137D02*
X0102089Y0112137D01*
X0092398Y0113336D02*
X0061467Y0113336D01*
X0061467Y0114534D02*
X0091200Y0114534D01*
X0090001Y0115733D02*
X0062507Y0115733D01*
X0063448Y0116931D02*
X0088803Y0116931D01*
X0087604Y0118130D02*
X0063767Y0118130D01*
X0063636Y0119328D02*
X0086778Y0119328D01*
X0086778Y0120527D02*
X0062959Y0120527D01*
X0060478Y0118356D02*
X0059267Y0117145D01*
X0059267Y0086656D01*
X0051478Y0078867D01*
X0051478Y0070367D01*
X0055878Y0070189D02*
X0061078Y0070189D01*
X0061078Y0070767D02*
X0056878Y0070767D01*
X0056878Y0073729D01*
X0056992Y0074444D01*
X0057215Y0075132D01*
X0057544Y0075778D01*
X0057970Y0076363D01*
X0058482Y0076875D01*
X0059068Y0077301D01*
X0059713Y0077630D01*
X0060401Y0077853D01*
X0061078Y0077961D01*
X0061078Y0070767D01*
X0061078Y0071388D02*
X0061878Y0071388D01*
X0061878Y0072586D02*
X0061078Y0072586D01*
X0061078Y0073785D02*
X0061878Y0073785D01*
X0061878Y0074983D02*
X0061078Y0074983D01*
X0061078Y0076182D02*
X0061878Y0076182D01*
X0061878Y0077380D02*
X0061078Y0077380D01*
X0059223Y0077380D02*
X0053678Y0077380D01*
X0054302Y0078579D02*
X0064778Y0078579D01*
X0064778Y0079777D02*
X0055500Y0079777D01*
X0056699Y0080976D02*
X0064778Y0080976D01*
X0064778Y0082174D02*
X0057897Y0082174D01*
X0059096Y0083373D02*
X0064778Y0083373D01*
X0064778Y0084571D02*
X0060294Y0084571D01*
X0061467Y0085770D02*
X0064778Y0085770D01*
X0064778Y0086968D02*
X0061467Y0086968D01*
X0061467Y0088167D02*
X0064778Y0088167D01*
X0064778Y0089365D02*
X0061467Y0089365D01*
X0061467Y0090564D02*
X0063958Y0090564D01*
X0063689Y0091762D02*
X0061467Y0091762D01*
X0061467Y0092961D02*
X0063872Y0092961D01*
X0064620Y0094159D02*
X0061467Y0094159D01*
X0061467Y0095358D02*
X0070536Y0095358D01*
X0070189Y0094159D02*
X0069337Y0094159D01*
X0070085Y0092961D02*
X0070294Y0092961D01*
X0070267Y0091762D02*
X0070931Y0091762D01*
X0069999Y0090564D02*
X0084278Y0090564D01*
X0084278Y0091762D02*
X0076026Y0091762D01*
X0076663Y0092961D02*
X0083273Y0092961D01*
X0083978Y0095367D02*
X0074978Y0095367D01*
X0073478Y0093867D01*
X0071517Y0096556D02*
X0061467Y0096556D01*
X0061467Y0097755D02*
X0087278Y0097755D01*
X0087278Y0096556D02*
X0085900Y0096556D01*
X0087098Y0095358D02*
X0087278Y0095358D01*
X0087278Y0098954D02*
X0061467Y0098954D01*
X0061467Y0100152D02*
X0087278Y0100152D01*
X0087278Y0101351D02*
X0061467Y0101351D01*
X0061467Y0102549D02*
X0087278Y0102549D01*
X0087278Y0103748D02*
X0061467Y0103748D01*
X0061467Y0104946D02*
X0087278Y0104946D01*
X0085049Y0106145D02*
X0061467Y0106145D01*
X0061467Y0107343D02*
X0084050Y0107343D01*
X0083689Y0108542D02*
X0061467Y0108542D01*
X0061467Y0109740D02*
X0083780Y0109740D01*
X0084399Y0110939D02*
X0061467Y0110939D01*
X0061467Y0112137D02*
X0086280Y0112137D01*
X0086978Y0108867D02*
X0089478Y0106367D01*
X0089478Y0045367D01*
X0092578Y0042267D01*
X0112178Y0042267D01*
X0137778Y0042267D01*
X0143378Y0042267D01*
X0147978Y0046867D01*
X0147978Y0064367D01*
X0147978Y0080867D01*
X0150997Y0082174D02*
X0164278Y0082174D01*
X0164278Y0080976D02*
X0151267Y0080976D01*
X0151087Y0079777D02*
X0164278Y0079777D01*
X0164278Y0078579D02*
X0150342Y0078579D01*
X0150178Y0077380D02*
X0164278Y0077380D01*
X0164278Y0076182D02*
X0150178Y0076182D01*
X0150178Y0074983D02*
X0164278Y0074983D01*
X0164278Y0073785D02*
X0150178Y0073785D01*
X0150178Y0072586D02*
X0164278Y0072586D01*
X0164278Y0071388D02*
X0150178Y0071388D01*
X0150178Y0070189D02*
X0164278Y0070189D01*
X0164278Y0068991D02*
X0150178Y0068991D01*
X0150178Y0067792D02*
X0155687Y0067792D01*
X0156011Y0068117D02*
X0153228Y0065334D01*
X0153228Y0063567D01*
X0157778Y0063567D01*
X0157778Y0063167D01*
X0153228Y0063167D01*
X0153228Y0061399D01*
X0156011Y0058617D01*
X0157778Y0058617D01*
X0157778Y0063167D01*
X0158178Y0063167D01*
X0158178Y0058617D01*
X0159946Y0058617D01*
X0162728Y0061399D01*
X0162728Y0063167D01*
X0158179Y0063167D01*
X0158179Y0063567D01*
X0162728Y0063567D01*
X0162728Y0065334D01*
X0159946Y0068117D01*
X0158178Y0068117D01*
X0158178Y0063567D01*
X0157778Y0063567D01*
X0157778Y0068117D01*
X0156011Y0068117D01*
X0157778Y0067792D02*
X0158178Y0067792D01*
X0158178Y0066594D02*
X0157778Y0066594D01*
X0157778Y0065395D02*
X0158178Y0065395D01*
X0158178Y0064197D02*
X0157778Y0064197D01*
X0157778Y0062998D02*
X0158178Y0062998D01*
X0158178Y0061800D02*
X0157778Y0061800D01*
X0157778Y0060601D02*
X0158178Y0060601D01*
X0158178Y0059403D02*
X0157778Y0059403D01*
X0157073Y0057917D02*
X0155401Y0057224D01*
X0154121Y0055944D01*
X0153428Y0054272D01*
X0153428Y0052462D01*
X0154121Y0050789D01*
X0155401Y0049509D01*
X0157073Y0048817D01*
X0158884Y0048817D01*
X0160556Y0049509D01*
X0161836Y0050789D01*
X0162528Y0052462D01*
X0162528Y0054272D01*
X0161836Y0055944D01*
X0160556Y0057224D01*
X0158884Y0057917D01*
X0157073Y0057917D01*
X0155183Y0057006D02*
X0150178Y0057006D01*
X0150178Y0058204D02*
X0163990Y0058204D01*
X0164278Y0057006D02*
X0160774Y0057006D01*
X0161892Y0055807D02*
X0164278Y0055807D01*
X0164278Y0054609D02*
X0162389Y0054609D01*
X0162528Y0053410D02*
X0164278Y0053410D01*
X0164278Y0052212D02*
X0162425Y0052212D01*
X0161928Y0051013D02*
X0164278Y0051013D01*
X0164278Y0049815D02*
X0160861Y0049815D01*
X0164278Y0048616D02*
X0150178Y0048616D01*
X0150178Y0047418D02*
X0164278Y0047418D01*
X0164278Y0046219D02*
X0150178Y0046219D01*
X0149244Y0045021D02*
X0164278Y0045021D01*
X0164278Y0043822D02*
X0148045Y0043822D01*
X0146847Y0042623D02*
X0164278Y0042623D01*
X0164278Y0041425D02*
X0145648Y0041425D01*
X0144696Y0040226D02*
X0163727Y0040226D01*
X0164478Y0037867D02*
X0161478Y0037867D01*
X0159478Y0035867D01*
X0159478Y0028867D01*
X0153478Y0028867D01*
X0150478Y0025867D01*
X0150478Y0013367D01*
X0146478Y0009367D01*
X0079478Y0009367D01*
X0076478Y0012367D01*
X0076478Y0019867D01*
X0072078Y0019852D02*
X0025882Y0019852D01*
X0027080Y0018653D02*
X0072078Y0018653D01*
X0072078Y0017455D02*
X0028119Y0017455D01*
X0028615Y0016256D02*
X0072078Y0016256D01*
X0072465Y0015058D02*
X0029112Y0015058D01*
X0029178Y0013859D02*
X0073263Y0013859D01*
X0074278Y0012661D02*
X0029178Y0012661D01*
X0029023Y0011462D02*
X0074278Y0011462D01*
X0075470Y0010264D02*
X0028527Y0010264D01*
X0028030Y0009065D02*
X0076669Y0009065D01*
X0077867Y0007867D02*
X0026867Y0007867D01*
X0015877Y0018653D02*
X0015478Y0018653D01*
X0015478Y0019852D02*
X0017075Y0019852D01*
X0015478Y0021050D02*
X0019909Y0021050D01*
X0023048Y0021050D02*
X0072078Y0021050D01*
X0072078Y0022249D02*
X0015478Y0022249D01*
X0015478Y0023447D02*
X0072078Y0023447D01*
X0072453Y0024646D02*
X0015478Y0024646D01*
X0015478Y0025844D02*
X0073234Y0025844D01*
X0075063Y0027043D02*
X0015478Y0027043D01*
X0015478Y0028241D02*
X0084278Y0028241D01*
X0084278Y0027043D02*
X0077894Y0027043D01*
X0079723Y0025844D02*
X0083234Y0025844D01*
X0082453Y0024646D02*
X0080504Y0024646D01*
X0080878Y0023447D02*
X0082078Y0023447D01*
X0082078Y0022249D02*
X0080878Y0022249D01*
X0080878Y0021050D02*
X0082078Y0021050D01*
X0082078Y0019852D02*
X0080878Y0019852D01*
X0080878Y0018653D02*
X0082078Y0018653D01*
X0082078Y0017455D02*
X0080878Y0017455D01*
X0080878Y0016256D02*
X0082078Y0016256D01*
X0082465Y0015058D02*
X0080492Y0015058D01*
X0079694Y0013859D02*
X0083263Y0013859D01*
X0085135Y0012661D02*
X0079296Y0012661D01*
X0087822Y0012661D02*
X0094601Y0012661D01*
X0094713Y0012604D02*
X0095401Y0012380D01*
X0096078Y0012273D01*
X0096078Y0019467D01*
X0091878Y0019467D01*
X0091878Y0016505D01*
X0091992Y0015789D01*
X0092215Y0015101D01*
X0092544Y0014456D01*
X0092970Y0013870D01*
X0093482Y0013358D01*
X0094068Y0012932D01*
X0094713Y0012604D01*
X0096078Y0012661D02*
X0096878Y0012661D01*
X0096878Y0012273D02*
X0097556Y0012380D01*
X0098244Y0012604D01*
X0098889Y0012932D01*
X0099475Y0013358D01*
X0099987Y0013870D01*
X0100413Y0014456D01*
X0100741Y0015101D01*
X0100965Y0015789D01*
X0101078Y0016505D01*
X0101078Y0019467D01*
X0096879Y0019467D01*
X0096879Y0020267D01*
X0101078Y0020267D01*
X0101078Y0023229D01*
X0100965Y0023944D01*
X0100741Y0024632D01*
X0100413Y0025278D01*
X0099987Y0025863D01*
X0099475Y0026375D01*
X0098889Y0026801D01*
X0098244Y0027130D01*
X0097556Y0027353D01*
X0096878Y0027461D01*
X0096878Y0020267D01*
X0096078Y0020267D01*
X0096078Y0019467D01*
X0096878Y0019467D01*
X0096878Y0012273D01*
X0098356Y0012661D02*
X0146661Y0012661D01*
X0147860Y0013859D02*
X0099976Y0013859D01*
X0100719Y0015058D02*
X0148278Y0015058D01*
X0148278Y0016256D02*
X0101039Y0016256D01*
X0101078Y0017455D02*
X0148278Y0017455D01*
X0148278Y0018653D02*
X0101078Y0018653D01*
X0101078Y0021050D02*
X0106089Y0021050D01*
X0106182Y0020958D02*
X0106768Y0020532D01*
X0107413Y0020204D01*
X0108101Y0019980D01*
X0108816Y0019867D01*
X0111778Y0019867D01*
X0111778Y0024067D01*
X0104584Y0024067D01*
X0104692Y0023389D01*
X0104915Y0022701D01*
X0105244Y0022056D01*
X0105670Y0021470D01*
X0106182Y0020958D01*
X0105146Y0022249D02*
X0101078Y0022249D01*
X0101044Y0023447D02*
X0104683Y0023447D01*
X0104584Y0024867D02*
X0111778Y0024867D01*
X0111778Y0029067D01*
X0108816Y0029067D01*
X0108101Y0028953D01*
X0107413Y0028730D01*
X0106768Y0028401D01*
X0106182Y0027975D01*
X0105670Y0027463D01*
X0105244Y0026878D01*
X0104915Y0026232D01*
X0104692Y0025544D01*
X0104584Y0024867D01*
X0104789Y0025844D02*
X0100001Y0025844D01*
X0100735Y0024646D02*
X0111778Y0024646D01*
X0111778Y0024867D02*
X0111778Y0024067D01*
X0112578Y0024067D01*
X0112578Y0019867D01*
X0115540Y0019867D01*
X0116256Y0019980D01*
X0116944Y0020204D01*
X0117589Y0020532D01*
X0118175Y0020958D01*
X0118687Y0021470D01*
X0119113Y0022056D01*
X0119441Y0022701D01*
X0119665Y0023389D01*
X0119772Y0024067D01*
X0112579Y0024067D01*
X0112579Y0024867D01*
X0119772Y0024867D01*
X0119665Y0025544D01*
X0119441Y0026232D01*
X0119113Y0026878D01*
X0118687Y0027463D01*
X0118175Y0027975D01*
X0117589Y0028401D01*
X0116944Y0028730D01*
X0116256Y0028953D01*
X0115540Y0029067D01*
X0112578Y0029067D01*
X0112578Y0024867D01*
X0111778Y0024867D01*
X0112579Y0024646D02*
X0137378Y0024646D01*
X0137378Y0024867D02*
X0137378Y0024067D01*
X0130184Y0024067D01*
X0130292Y0023389D01*
X0130515Y0022701D01*
X0130844Y0022056D01*
X0131270Y0021470D01*
X0131782Y0020958D01*
X0132368Y0020532D01*
X0133013Y0020204D01*
X0133701Y0019980D01*
X0134416Y0019867D01*
X0137378Y0019867D01*
X0137378Y0024067D01*
X0138178Y0024067D01*
X0138178Y0019867D01*
X0141140Y0019867D01*
X0141856Y0019980D01*
X0142544Y0020204D01*
X0143189Y0020532D01*
X0143775Y0020958D01*
X0144287Y0021470D01*
X0144713Y0022056D01*
X0145041Y0022701D01*
X0145265Y0023389D01*
X0145372Y0024067D01*
X0138179Y0024067D01*
X0138179Y0024867D01*
X0145372Y0024867D01*
X0145265Y0025544D01*
X0145041Y0026232D01*
X0144713Y0026878D01*
X0144287Y0027463D01*
X0143775Y0027975D01*
X0143189Y0028401D01*
X0142544Y0028730D01*
X0141856Y0028953D01*
X0141140Y0029067D01*
X0138178Y0029067D01*
X0138178Y0024867D01*
X0137378Y0024867D01*
X0137378Y0029067D01*
X0134416Y0029067D01*
X0133701Y0028953D01*
X0133013Y0028730D01*
X0132368Y0028401D01*
X0131782Y0027975D01*
X0131270Y0027463D01*
X0130844Y0026878D01*
X0130515Y0026232D01*
X0130292Y0025544D01*
X0130184Y0024867D01*
X0137378Y0024867D01*
X0138179Y0024646D02*
X0148278Y0024646D01*
X0148278Y0025844D02*
X0145168Y0025844D01*
X0144593Y0027043D02*
X0148543Y0027043D01*
X0149742Y0028241D02*
X0143409Y0028241D01*
X0138178Y0028241D02*
X0137378Y0028241D01*
X0137378Y0027043D02*
X0138178Y0027043D01*
X0138178Y0025844D02*
X0137378Y0025844D01*
X0137378Y0023447D02*
X0138178Y0023447D01*
X0138178Y0022249D02*
X0137378Y0022249D01*
X0137378Y0021050D02*
X0138178Y0021050D01*
X0143867Y0021050D02*
X0148278Y0021050D01*
X0148278Y0019852D02*
X0096879Y0019852D01*
X0096078Y0019852D02*
X0090878Y0019852D01*
X0091878Y0020267D02*
X0096078Y0020267D01*
X0096078Y0027461D01*
X0095401Y0027353D01*
X0094713Y0027130D01*
X0094068Y0026801D01*
X0093482Y0026375D01*
X0092970Y0025863D01*
X0092544Y0025278D01*
X0092215Y0024632D01*
X0091992Y0023944D01*
X0091878Y0023229D01*
X0091878Y0020267D01*
X0091878Y0021050D02*
X0090878Y0021050D01*
X0090878Y0022249D02*
X0091878Y0022249D01*
X0091913Y0023447D02*
X0090878Y0023447D01*
X0090504Y0024646D02*
X0092222Y0024646D01*
X0092956Y0025844D02*
X0089723Y0025844D01*
X0088678Y0027043D02*
X0094542Y0027043D01*
X0096078Y0027043D02*
X0096878Y0027043D01*
X0096878Y0025844D02*
X0096078Y0025844D01*
X0096078Y0024646D02*
X0096878Y0024646D01*
X0096878Y0023447D02*
X0096078Y0023447D01*
X0096078Y0022249D02*
X0096878Y0022249D01*
X0096878Y0021050D02*
X0096078Y0021050D01*
X0096078Y0018653D02*
X0096878Y0018653D01*
X0096878Y0017455D02*
X0096078Y0017455D01*
X0096078Y0016256D02*
X0096878Y0016256D01*
X0096878Y0015058D02*
X0096078Y0015058D01*
X0096078Y0013859D02*
X0096878Y0013859D01*
X0092981Y0013859D02*
X0089694Y0013859D01*
X0090492Y0015058D02*
X0092237Y0015058D01*
X0091918Y0016256D02*
X0090878Y0016256D01*
X0090878Y0017455D02*
X0091878Y0017455D01*
X0091878Y0018653D02*
X0090878Y0018653D01*
X0086478Y0019867D02*
X0086478Y0092867D01*
X0083978Y0095367D01*
X0084278Y0089365D02*
X0069178Y0089365D01*
X0069178Y0088167D02*
X0084278Y0088167D01*
X0084278Y0086968D02*
X0069178Y0086968D01*
X0069178Y0085770D02*
X0084278Y0085770D01*
X0084278Y0084571D02*
X0069178Y0084571D01*
X0069178Y0083373D02*
X0084278Y0083373D01*
X0084278Y0082174D02*
X0069178Y0082174D01*
X0069178Y0080976D02*
X0084278Y0080976D01*
X0084278Y0079777D02*
X0069178Y0079777D01*
X0069178Y0078579D02*
X0084278Y0078579D01*
X0084278Y0077380D02*
X0069178Y0077380D01*
X0069178Y0076182D02*
X0084278Y0076182D01*
X0084278Y0074983D02*
X0083700Y0074983D01*
X0080257Y0074983D02*
X0069178Y0074983D01*
X0069178Y0073785D02*
X0078740Y0073785D01*
X0078154Y0072586D02*
X0069178Y0072586D01*
X0069178Y0071388D02*
X0077978Y0071388D01*
X0078137Y0070189D02*
X0069178Y0070189D01*
X0069178Y0068991D02*
X0078698Y0068991D01*
X0080155Y0067792D02*
X0069178Y0067792D01*
X0069178Y0066594D02*
X0084278Y0066594D01*
X0084278Y0067792D02*
X0083802Y0067792D01*
X0084278Y0065395D02*
X0069178Y0065395D01*
X0069178Y0064197D02*
X0084278Y0064197D01*
X0084278Y0062998D02*
X0068721Y0062998D01*
X0067523Y0061800D02*
X0084278Y0061800D01*
X0084278Y0060601D02*
X0066324Y0060601D01*
X0065126Y0059403D02*
X0084278Y0059403D01*
X0084278Y0058204D02*
X0015478Y0058204D01*
X0015478Y0057006D02*
X0084278Y0057006D01*
X0084278Y0055807D02*
X0015478Y0055807D01*
X0015478Y0054609D02*
X0084278Y0054609D01*
X0084278Y0053410D02*
X0015478Y0053410D01*
X0015478Y0052212D02*
X0084278Y0052212D01*
X0084278Y0051013D02*
X0015478Y0051013D01*
X0015478Y0049815D02*
X0084278Y0049815D01*
X0084278Y0048616D02*
X0015478Y0048616D01*
X0015478Y0047418D02*
X0084278Y0047418D01*
X0084278Y0046219D02*
X0015478Y0046219D01*
X0015478Y0045021D02*
X0084278Y0045021D01*
X0084278Y0043822D02*
X0015478Y0043822D01*
X0015478Y0042623D02*
X0084278Y0042623D01*
X0084278Y0041425D02*
X0015478Y0041425D01*
X0015478Y0040226D02*
X0084278Y0040226D01*
X0084278Y0039028D02*
X0015478Y0039028D01*
X0015478Y0037829D02*
X0084278Y0037829D01*
X0084278Y0036631D02*
X0015478Y0036631D01*
X0015478Y0035432D02*
X0084278Y0035432D01*
X0084278Y0034234D02*
X0015478Y0034234D01*
X0015478Y0033035D02*
X0084278Y0033035D01*
X0084278Y0031837D02*
X0015478Y0031837D01*
X0015478Y0030638D02*
X0084278Y0030638D01*
X0084278Y0029440D02*
X0015478Y0029440D01*
X0015478Y0059403D02*
X0022331Y0059403D01*
X0021133Y0060601D02*
X0015478Y0060601D01*
X0015478Y0061800D02*
X0019934Y0061800D01*
X0019278Y0062998D02*
X0015478Y0062998D01*
X0015478Y0064197D02*
X0018426Y0064197D01*
X0017533Y0065395D02*
X0015478Y0065395D01*
X0015478Y0066594D02*
X0017078Y0066594D01*
X0017078Y0067792D02*
X0015478Y0067792D01*
X0015478Y0068991D02*
X0017078Y0068991D01*
X0017078Y0070189D02*
X0015478Y0070189D01*
X0015478Y0071388D02*
X0017078Y0071388D01*
X0017078Y0072586D02*
X0015478Y0072586D01*
X0015478Y0073785D02*
X0017078Y0073785D01*
X0017386Y0074983D02*
X0015478Y0074983D01*
X0015478Y0076182D02*
X0018071Y0076182D01*
X0019671Y0077380D02*
X0015478Y0077380D01*
X0015478Y0078579D02*
X0030079Y0078579D01*
X0029278Y0077380D02*
X0023286Y0077380D01*
X0024886Y0076182D02*
X0028071Y0076182D01*
X0027386Y0074983D02*
X0025571Y0074983D01*
X0025878Y0073785D02*
X0027078Y0073785D01*
X0027078Y0072586D02*
X0025878Y0072586D01*
X0025878Y0071388D02*
X0027078Y0071388D01*
X0027078Y0070189D02*
X0025878Y0070189D01*
X0025878Y0068991D02*
X0027078Y0068991D01*
X0027078Y0067792D02*
X0025878Y0067792D01*
X0025878Y0066594D02*
X0027078Y0066594D01*
X0027533Y0065395D02*
X0025424Y0065395D01*
X0024531Y0064197D02*
X0028426Y0064197D01*
X0023478Y0061367D02*
X0063978Y0061367D01*
X0066978Y0064367D01*
X0066978Y0091867D01*
X0055978Y0087867D02*
X0045478Y0077367D01*
X0042978Y0077367D01*
X0041478Y0075867D01*
X0041478Y0070367D01*
X0043978Y0079867D02*
X0034478Y0079867D01*
X0031478Y0076867D01*
X0031478Y0070367D01*
X0031278Y0079777D02*
X0015478Y0079777D01*
X0015478Y0080976D02*
X0032476Y0080976D01*
X0043175Y0082174D02*
X0015478Y0082174D01*
X0015478Y0083373D02*
X0044373Y0083373D01*
X0045572Y0084571D02*
X0015478Y0084571D01*
X0015478Y0085770D02*
X0046770Y0085770D01*
X0047969Y0086968D02*
X0015478Y0086968D01*
X0015478Y0088167D02*
X0049167Y0088167D01*
X0052663Y0088552D02*
X0043978Y0079867D01*
X0054886Y0076182D02*
X0057838Y0076182D01*
X0057167Y0074983D02*
X0055571Y0074983D01*
X0055878Y0073785D02*
X0056887Y0073785D01*
X0056878Y0072586D02*
X0055878Y0072586D01*
X0055878Y0071388D02*
X0056878Y0071388D01*
X0056878Y0068991D02*
X0055878Y0068991D01*
X0055878Y0067792D02*
X0056878Y0067792D01*
X0056944Y0066594D02*
X0055878Y0066594D01*
X0055424Y0065395D02*
X0057320Y0065395D01*
X0058143Y0064197D02*
X0054531Y0064197D01*
X0063734Y0077380D02*
X0064778Y0077380D01*
X0055978Y0087867D02*
X0055978Y0115367D01*
X0052663Y0112056D02*
X0052663Y0088552D01*
X0023478Y0061367D02*
X0021478Y0063367D01*
X0021478Y0070367D01*
X0088678Y0042623D02*
X0089110Y0042623D01*
X0088678Y0041425D02*
X0090309Y0041425D01*
X0091507Y0040226D02*
X0088678Y0040226D01*
X0088678Y0039028D02*
X0106195Y0039028D01*
X0105710Y0045021D02*
X0092936Y0045021D01*
X0091737Y0046219D02*
X0107223Y0046219D01*
X0117134Y0046219D02*
X0132823Y0046219D01*
X0131310Y0045021D02*
X0118647Y0045021D01*
X0118162Y0039028D02*
X0131795Y0039028D01*
X0142734Y0046219D02*
X0144220Y0046219D01*
X0145418Y0047418D02*
X0091678Y0047418D01*
X0091678Y0048616D02*
X0145778Y0048616D01*
X0145778Y0049815D02*
X0091678Y0049815D01*
X0091678Y0051013D02*
X0145778Y0051013D01*
X0145778Y0052212D02*
X0091678Y0052212D01*
X0091678Y0053410D02*
X0145778Y0053410D01*
X0145778Y0054609D02*
X0091678Y0054609D01*
X0091678Y0055807D02*
X0145778Y0055807D01*
X0145778Y0057006D02*
X0091678Y0057006D01*
X0091678Y0058204D02*
X0145778Y0058204D01*
X0145778Y0059403D02*
X0091678Y0059403D01*
X0091678Y0060601D02*
X0145778Y0060601D01*
X0145778Y0061800D02*
X0091678Y0061800D01*
X0091678Y0062998D02*
X0144985Y0062998D01*
X0144689Y0064197D02*
X0091678Y0064197D01*
X0091678Y0065395D02*
X0144845Y0065395D01*
X0145554Y0066594D02*
X0091678Y0066594D01*
X0091678Y0067792D02*
X0099155Y0067792D01*
X0098713Y0067976D02*
X0100183Y0067367D01*
X0101774Y0067367D01*
X0103244Y0067976D01*
X0104369Y0069101D01*
X0104978Y0070571D01*
X0104978Y0072162D01*
X0104369Y0073632D01*
X0103244Y0074758D01*
X0101774Y0075367D01*
X0100183Y0075367D01*
X0098713Y0074758D01*
X0097587Y0073632D01*
X0096978Y0072162D01*
X0096978Y0070571D01*
X0097587Y0069101D01*
X0098713Y0067976D01*
X0097698Y0068991D02*
X0091678Y0068991D01*
X0091678Y0070189D02*
X0097137Y0070189D01*
X0096978Y0071388D02*
X0091678Y0071388D01*
X0091678Y0072586D02*
X0097154Y0072586D01*
X0097740Y0073785D02*
X0091678Y0073785D01*
X0091678Y0074983D02*
X0099257Y0074983D01*
X0102700Y0074983D02*
X0121144Y0074983D01*
X0120228Y0075899D02*
X0123011Y0073117D01*
X0124778Y0073117D01*
X0124778Y0077667D01*
X0120228Y0077667D01*
X0120228Y0075899D01*
X0120228Y0076182D02*
X0091678Y0076182D01*
X0091678Y0077380D02*
X0120228Y0077380D01*
X0120228Y0078067D02*
X0124778Y0078067D01*
X0124778Y0077667D01*
X0125178Y0077667D01*
X0125178Y0073117D01*
X0126946Y0073117D01*
X0129728Y0075899D01*
X0129728Y0077667D01*
X0125179Y0077667D01*
X0125179Y0078067D01*
X0129728Y0078067D01*
X0129728Y0079834D01*
X0126946Y0082617D01*
X0125178Y0082617D01*
X0125178Y0078067D01*
X0124778Y0078067D01*
X0124778Y0082617D01*
X0123011Y0082617D01*
X0120228Y0079834D01*
X0120228Y0078067D01*
X0120228Y0078579D02*
X0091678Y0078579D01*
X0091678Y0079777D02*
X0120228Y0079777D01*
X0121370Y0080976D02*
X0091678Y0080976D01*
X0091678Y0082174D02*
X0122569Y0082174D01*
X0123938Y0083373D02*
X0105845Y0083373D01*
X0107295Y0084571D02*
X0121839Y0084571D01*
X0122401Y0084009D02*
X0124073Y0083317D01*
X0125884Y0083317D01*
X0127556Y0084009D01*
X0128836Y0085289D01*
X0129528Y0086962D01*
X0129528Y0088772D01*
X0128836Y0090444D01*
X0127556Y0091724D01*
X0125884Y0092417D01*
X0124073Y0092417D01*
X0122401Y0091724D01*
X0121121Y0090444D01*
X0120428Y0088772D01*
X0120428Y0086962D01*
X0121121Y0085289D01*
X0122401Y0084009D01*
X0120922Y0085770D02*
X0107767Y0085770D01*
X0107767Y0086968D02*
X0120428Y0086968D01*
X0120428Y0088167D02*
X0107293Y0088167D01*
X0105833Y0089365D02*
X0120674Y0089365D01*
X0121241Y0090564D02*
X0091678Y0090564D01*
X0091678Y0091762D02*
X0122494Y0091762D01*
X0127463Y0091762D02*
X0150931Y0091762D01*
X0150001Y0092961D02*
X0091678Y0092961D01*
X0091678Y0094159D02*
X0149689Y0094159D01*
X0149829Y0095358D02*
X0140309Y0095358D01*
X0141789Y0096556D02*
X0150517Y0096556D01*
X0152978Y0094367D02*
X0166478Y0094367D01*
X0166478Y0060367D01*
X0166478Y0039867D01*
X0164478Y0037867D01*
X0166354Y0036631D02*
X0192478Y0036631D01*
X0192478Y0037829D02*
X0167553Y0037829D01*
X0168678Y0039028D02*
X0192478Y0039028D01*
X0192478Y0040226D02*
X0168678Y0040226D01*
X0168678Y0041425D02*
X0192478Y0041425D01*
X0192478Y0042623D02*
X0168678Y0042623D01*
X0168678Y0043822D02*
X0192478Y0043822D01*
X0192478Y0045021D02*
X0168678Y0045021D01*
X0168678Y0046219D02*
X0192478Y0046219D01*
X0192478Y0047418D02*
X0168678Y0047418D01*
X0168678Y0048616D02*
X0192478Y0048616D01*
X0192478Y0049815D02*
X0168678Y0049815D01*
X0168678Y0051013D02*
X0192478Y0051013D01*
X0192478Y0052212D02*
X0168678Y0052212D01*
X0168678Y0053410D02*
X0192478Y0053410D01*
X0192478Y0054609D02*
X0168678Y0054609D01*
X0168678Y0055807D02*
X0192478Y0055807D01*
X0192478Y0057006D02*
X0168678Y0057006D01*
X0168967Y0058204D02*
X0192478Y0058204D01*
X0192478Y0059403D02*
X0169639Y0059403D01*
X0169767Y0060601D02*
X0192478Y0060601D01*
X0192478Y0061800D02*
X0169445Y0061800D01*
X0168678Y0062998D02*
X0192478Y0062998D01*
X0192478Y0064197D02*
X0168678Y0064197D01*
X0168678Y0065395D02*
X0192478Y0065395D01*
X0192478Y0066594D02*
X0168678Y0066594D01*
X0168678Y0067792D02*
X0192478Y0067792D01*
X0192478Y0068991D02*
X0168678Y0068991D01*
X0168678Y0070189D02*
X0192478Y0070189D01*
X0192478Y0071388D02*
X0168678Y0071388D01*
X0168678Y0072586D02*
X0192478Y0072586D01*
X0192478Y0073785D02*
X0168678Y0073785D01*
X0168678Y0074983D02*
X0192478Y0074983D01*
X0192478Y0076182D02*
X0168678Y0076182D01*
X0168678Y0077380D02*
X0192478Y0077380D01*
X0192478Y0078579D02*
X0184342Y0078579D01*
X0185380Y0079777D02*
X0192478Y0079777D01*
X0192478Y0080976D02*
X0185767Y0080976D01*
X0185704Y0082174D02*
X0192478Y0082174D01*
X0192478Y0083373D02*
X0185124Y0083373D01*
X0184678Y0084571D02*
X0192478Y0084571D01*
X0192478Y0085770D02*
X0184678Y0085770D01*
X0184678Y0086968D02*
X0192478Y0086968D01*
X0192478Y0088167D02*
X0184678Y0088167D01*
X0184678Y0089365D02*
X0192478Y0089365D01*
X0192478Y0090564D02*
X0184678Y0090564D01*
X0184678Y0091762D02*
X0192478Y0091762D01*
X0192478Y0092961D02*
X0184678Y0092961D01*
X0184678Y0094159D02*
X0192478Y0094159D01*
X0192478Y0095358D02*
X0184678Y0095358D01*
X0184678Y0096556D02*
X0192478Y0096556D01*
X0192478Y0097755D02*
X0184678Y0097755D01*
X0184678Y0098954D02*
X0192478Y0098954D01*
X0192478Y0100152D02*
X0184678Y0100152D01*
X0184678Y0101351D02*
X0192478Y0101351D01*
X0192478Y0102549D02*
X0184678Y0102549D01*
X0184678Y0103748D02*
X0192478Y0103748D01*
X0192478Y0104946D02*
X0184678Y0104946D01*
X0184678Y0106145D02*
X0192478Y0106145D01*
X0192478Y0107343D02*
X0184678Y0107343D01*
X0184678Y0108542D02*
X0192478Y0108542D01*
X0192478Y0109740D02*
X0184678Y0109740D01*
X0184678Y0110939D02*
X0192478Y0110939D01*
X0192478Y0112137D02*
X0183819Y0112137D01*
X0182621Y0113336D02*
X0192478Y0113336D01*
X0192478Y0114534D02*
X0181578Y0114534D01*
X0181433Y0115733D02*
X0192478Y0115733D01*
X0192478Y0116931D02*
X0180936Y0116931D01*
X0179928Y0118130D02*
X0192478Y0118130D01*
X0192478Y0119328D02*
X0177827Y0119328D01*
X0179851Y0120527D02*
X0192478Y0120527D01*
X0192478Y0121725D02*
X0180905Y0121725D01*
X0181401Y0122924D02*
X0192478Y0122924D01*
X0192478Y0124122D02*
X0181578Y0124122D01*
X0181578Y0125321D02*
X0192478Y0125321D01*
X0192478Y0126519D02*
X0181107Y0126519D01*
X0180340Y0127718D02*
X0192478Y0127718D01*
X0192478Y0128916D02*
X0178822Y0128916D01*
X0179439Y0130115D02*
X0192478Y0130115D01*
X0192478Y0131313D02*
X0180638Y0131313D01*
X0181230Y0132512D02*
X0192478Y0132512D01*
X0192478Y0133710D02*
X0181578Y0133710D01*
X0181578Y0134909D02*
X0192478Y0134909D01*
X0192478Y0136107D02*
X0181278Y0136107D01*
X0180752Y0137306D02*
X0192478Y0137306D01*
X0192478Y0138504D02*
X0179553Y0138504D01*
X0178678Y0139703D02*
X0192478Y0139703D01*
X0192478Y0140901D02*
X0178678Y0140901D01*
X0178678Y0142100D02*
X0192478Y0142100D01*
X0192478Y0143298D02*
X0178678Y0143298D01*
X0178678Y0144497D02*
X0192478Y0144497D01*
X0192478Y0145695D02*
X0178678Y0145695D01*
X0178678Y0146894D02*
X0192478Y0146894D01*
X0192478Y0148092D02*
X0178678Y0148092D01*
X0178678Y0149291D02*
X0192478Y0149291D01*
X0192478Y0150490D02*
X0178678Y0150490D01*
X0178678Y0151688D02*
X0192478Y0151688D01*
X0192478Y0152887D02*
X0178678Y0152887D01*
X0178678Y0154085D02*
X0192478Y0154085D01*
X0192478Y0155284D02*
X0179047Y0155284D01*
X0179672Y0156482D02*
X0192478Y0156482D01*
X0192478Y0157681D02*
X0179767Y0157681D01*
X0179412Y0158879D02*
X0192478Y0158879D01*
X0192478Y0160078D02*
X0178419Y0160078D01*
X0176478Y0157367D02*
X0176478Y0134367D01*
X0171679Y0136107D02*
X0171486Y0136107D01*
X0170894Y0137306D02*
X0172205Y0137306D01*
X0173404Y0138504D02*
X0169800Y0138504D01*
X0166878Y0138504D02*
X0166078Y0138504D01*
X0166078Y0137306D02*
X0166878Y0137306D01*
X0166878Y0136107D02*
X0166078Y0136107D01*
X0166078Y0134909D02*
X0166878Y0134909D01*
X0166878Y0133710D02*
X0166078Y0133710D01*
X0166078Y0132512D02*
X0166878Y0132512D01*
X0166878Y0131313D02*
X0166078Y0131313D01*
X0166078Y0130115D02*
X0166878Y0130115D01*
X0166878Y0128916D02*
X0166078Y0128916D01*
X0166078Y0127718D02*
X0166878Y0127718D01*
X0166878Y0126519D02*
X0166078Y0126519D01*
X0166078Y0125321D02*
X0166878Y0125321D01*
X0166078Y0124122D02*
X0141178Y0124122D01*
X0141178Y0122924D02*
X0161375Y0122924D01*
X0161876Y0121725D02*
X0141178Y0121725D01*
X0141178Y0120527D02*
X0162823Y0120527D01*
X0164597Y0119328D02*
X0141178Y0119328D01*
X0141178Y0118130D02*
X0162746Y0118130D01*
X0161837Y0116931D02*
X0141178Y0116931D01*
X0141178Y0115733D02*
X0161350Y0115733D01*
X0161276Y0113336D02*
X0141178Y0113336D01*
X0141178Y0114534D02*
X0166078Y0114534D01*
X0166078Y0113336D02*
X0166878Y0113336D01*
X0166878Y0112137D02*
X0166078Y0112137D01*
X0166078Y0110939D02*
X0166878Y0110939D01*
X0166878Y0109740D02*
X0166078Y0109740D01*
X0166078Y0108542D02*
X0166878Y0108542D01*
X0166878Y0107343D02*
X0166078Y0107343D01*
X0166078Y0106145D02*
X0166878Y0106145D01*
X0166878Y0104946D02*
X0166078Y0104946D01*
X0163208Y0108542D02*
X0141178Y0108542D01*
X0141178Y0109740D02*
X0163884Y0109740D01*
X0162418Y0110939D02*
X0141178Y0110939D01*
X0141178Y0112137D02*
X0161666Y0112137D01*
X0166078Y0115733D02*
X0166878Y0115733D01*
X0166878Y0116931D02*
X0166078Y0116931D01*
X0166078Y0118130D02*
X0166878Y0118130D01*
X0166878Y0119328D02*
X0166078Y0119328D01*
X0166078Y0120527D02*
X0166878Y0120527D01*
X0166878Y0121725D02*
X0166078Y0121725D01*
X0166078Y0122924D02*
X0166878Y0122924D01*
X0161264Y0125321D02*
X0141178Y0125321D01*
X0141178Y0126519D02*
X0161627Y0126519D01*
X0162362Y0127718D02*
X0141178Y0127718D01*
X0141178Y0128916D02*
X0163733Y0128916D01*
X0163314Y0130115D02*
X0141178Y0130115D01*
X0141178Y0131313D02*
X0162146Y0131313D01*
X0161508Y0132512D02*
X0141178Y0132512D01*
X0141178Y0133710D02*
X0161216Y0133710D01*
X0161198Y0134909D02*
X0141178Y0134909D01*
X0141178Y0136107D02*
X0161471Y0136107D01*
X0162063Y0137306D02*
X0141178Y0137306D01*
X0141178Y0138504D02*
X0163157Y0138504D01*
X0174278Y0139703D02*
X0141178Y0139703D01*
X0141178Y0140901D02*
X0174278Y0140901D01*
X0174278Y0142100D02*
X0141178Y0142100D01*
X0141178Y0143298D02*
X0174278Y0143298D01*
X0174278Y0144497D02*
X0141178Y0144497D01*
X0141178Y0145695D02*
X0174278Y0145695D01*
X0174278Y0146894D02*
X0141178Y0146894D01*
X0141178Y0148092D02*
X0174278Y0148092D01*
X0174278Y0149291D02*
X0141178Y0149291D01*
X0141178Y0150490D02*
X0174278Y0150490D01*
X0174278Y0151688D02*
X0141178Y0151688D01*
X0141178Y0152887D02*
X0174278Y0152887D01*
X0174278Y0154085D02*
X0141178Y0154085D01*
X0141178Y0155284D02*
X0173910Y0155284D01*
X0173285Y0156482D02*
X0141178Y0156482D01*
X0141178Y0157681D02*
X0173189Y0157681D01*
X0173545Y0158879D02*
X0141178Y0158879D01*
X0141178Y0160078D02*
X0174538Y0160078D01*
X0182288Y0167269D02*
X0141178Y0167269D01*
X0141178Y0168467D02*
X0180990Y0168467D01*
X0179885Y0169666D02*
X0141178Y0169666D01*
X0141178Y0170864D02*
X0179389Y0170864D01*
X0178892Y0172063D02*
X0141178Y0172063D01*
X0141524Y0173261D02*
X0178779Y0173261D01*
X0178779Y0174460D02*
X0142163Y0174460D01*
X0142267Y0175658D02*
X0178887Y0175658D01*
X0179383Y0176857D02*
X0141921Y0176857D01*
X0140941Y0178055D02*
X0179880Y0178055D01*
X0180977Y0179254D02*
X0026980Y0179254D01*
X0024378Y0151688D02*
X0023578Y0151688D01*
X0023578Y0150490D02*
X0024378Y0150490D01*
X0024378Y0149291D02*
X0023578Y0149291D01*
X0023578Y0148092D02*
X0024378Y0148092D01*
X0091613Y0107343D02*
X0111278Y0107343D01*
X0111278Y0106145D02*
X0091678Y0106145D01*
X0091678Y0104946D02*
X0111278Y0104946D01*
X0110490Y0103748D02*
X0091678Y0103748D01*
X0091678Y0102549D02*
X0110189Y0102549D01*
X0110339Y0101351D02*
X0091678Y0101351D01*
X0091678Y0100152D02*
X0111042Y0100152D01*
X0113478Y0102367D02*
X0113478Y0143367D01*
X0115792Y0161276D02*
X0132278Y0161276D01*
X0132278Y0160078D02*
X0131419Y0160078D01*
X0141178Y0161276D02*
X0192478Y0161276D01*
X0192478Y0162475D02*
X0141178Y0162475D01*
X0141178Y0163673D02*
X0192478Y0163673D01*
X0192478Y0164872D02*
X0141178Y0164872D01*
X0141178Y0166070D02*
X0192478Y0166070D01*
X0192478Y0167269D02*
X0190668Y0167269D01*
X0191967Y0168467D02*
X0192478Y0168467D01*
X0136778Y0115733D02*
X0136596Y0115733D01*
X0141178Y0107343D02*
X0162090Y0107343D01*
X0161483Y0106145D02*
X0141178Y0106145D01*
X0141178Y0104946D02*
X0161204Y0104946D01*
X0161210Y0103748D02*
X0141178Y0103748D01*
X0141178Y0102549D02*
X0161496Y0102549D01*
X0162119Y0101351D02*
X0141178Y0101351D01*
X0141799Y0100152D02*
X0163262Y0100152D01*
X0164225Y0098954D02*
X0142267Y0098954D01*
X0142267Y0097755D02*
X0162654Y0097755D01*
X0162037Y0091762D02*
X0155026Y0091762D01*
X0163069Y0090564D02*
X0128716Y0090564D01*
X0129283Y0089365D02*
X0164278Y0089365D01*
X0164278Y0088167D02*
X0129528Y0088167D01*
X0129528Y0086968D02*
X0164278Y0086968D01*
X0164278Y0085770D02*
X0129035Y0085770D01*
X0128118Y0084571D02*
X0164278Y0084571D01*
X0164278Y0083373D02*
X0150124Y0083373D01*
X0145833Y0083373D02*
X0126019Y0083373D01*
X0125178Y0082174D02*
X0124778Y0082174D01*
X0124778Y0080976D02*
X0125178Y0080976D01*
X0125178Y0079777D02*
X0124778Y0079777D01*
X0124778Y0078579D02*
X0125178Y0078579D01*
X0125178Y0077380D02*
X0124778Y0077380D01*
X0124778Y0076182D02*
X0125178Y0076182D01*
X0125178Y0074983D02*
X0124778Y0074983D01*
X0124778Y0073785D02*
X0125178Y0073785D01*
X0127614Y0073785D02*
X0145778Y0073785D01*
X0145778Y0074983D02*
X0128813Y0074983D01*
X0129728Y0076182D02*
X0145778Y0076182D01*
X0145778Y0077380D02*
X0129728Y0077380D01*
X0129728Y0078579D02*
X0145615Y0078579D01*
X0144870Y0079777D02*
X0129728Y0079777D01*
X0128587Y0080976D02*
X0144689Y0080976D01*
X0144960Y0082174D02*
X0127388Y0082174D01*
X0122343Y0073785D02*
X0104217Y0073785D01*
X0104803Y0072586D02*
X0145778Y0072586D01*
X0145778Y0071388D02*
X0104978Y0071388D01*
X0104820Y0070189D02*
X0145778Y0070189D01*
X0145778Y0068991D02*
X0104259Y0068991D01*
X0102802Y0067792D02*
X0145778Y0067792D01*
X0150403Y0066594D02*
X0154488Y0066594D01*
X0153289Y0065395D02*
X0151112Y0065395D01*
X0151267Y0064197D02*
X0153228Y0064197D01*
X0153228Y0062998D02*
X0150972Y0062998D01*
X0150178Y0061800D02*
X0153228Y0061800D01*
X0154026Y0060601D02*
X0150178Y0060601D01*
X0150178Y0059403D02*
X0155225Y0059403D01*
X0154064Y0055807D02*
X0150178Y0055807D01*
X0150178Y0054609D02*
X0153568Y0054609D01*
X0153428Y0053410D02*
X0150178Y0053410D01*
X0150178Y0052212D02*
X0153532Y0052212D01*
X0154028Y0051013D02*
X0150178Y0051013D01*
X0150178Y0049815D02*
X0155096Y0049815D01*
X0160732Y0059403D02*
X0163318Y0059403D01*
X0163189Y0060601D02*
X0161930Y0060601D01*
X0162728Y0061800D02*
X0163512Y0061800D01*
X0164278Y0062998D02*
X0162728Y0062998D01*
X0162728Y0064197D02*
X0164278Y0064197D01*
X0164278Y0065395D02*
X0162667Y0065395D01*
X0161469Y0066594D02*
X0164278Y0066594D01*
X0164278Y0067792D02*
X0160270Y0067792D01*
X0168678Y0078579D02*
X0180615Y0078579D01*
X0179577Y0079777D02*
X0168678Y0079777D01*
X0168678Y0080976D02*
X0179189Y0080976D01*
X0179253Y0082174D02*
X0168678Y0082174D01*
X0168678Y0083373D02*
X0179833Y0083373D01*
X0180278Y0084571D02*
X0168678Y0084571D01*
X0168678Y0085770D02*
X0180278Y0085770D01*
X0180278Y0086968D02*
X0168678Y0086968D01*
X0168678Y0088167D02*
X0180278Y0088167D01*
X0180278Y0089365D02*
X0177731Y0089365D01*
X0179888Y0090564D02*
X0180278Y0090564D01*
X0175226Y0089365D02*
X0168678Y0089365D01*
X0169888Y0090564D02*
X0173069Y0090564D01*
X0172037Y0091762D02*
X0170920Y0091762D01*
X0171416Y0092961D02*
X0171541Y0092961D01*
X0182478Y0081367D02*
X0182478Y0110367D01*
X0178478Y0114367D01*
X0176478Y0114367D01*
X0104478Y0086367D02*
X0104228Y0086617D01*
X0093228Y0086617D01*
X0095131Y0089365D02*
X0103124Y0089365D01*
X0103112Y0083373D02*
X0093992Y0083373D01*
X0092465Y0083373D02*
X0091678Y0083373D01*
X0088678Y0037829D02*
X0158330Y0037829D01*
X0157278Y0036631D02*
X0088678Y0036631D01*
X0088678Y0035432D02*
X0156822Y0035432D01*
X0155696Y0034234D02*
X0088678Y0034234D01*
X0088678Y0033035D02*
X0155200Y0033035D01*
X0155078Y0031837D02*
X0088678Y0031837D01*
X0088678Y0030638D02*
X0152139Y0030638D01*
X0150940Y0029440D02*
X0088678Y0029440D01*
X0088678Y0028241D02*
X0106548Y0028241D01*
X0105364Y0027043D02*
X0098415Y0027043D01*
X0111778Y0027043D02*
X0112578Y0027043D01*
X0112578Y0028241D02*
X0111778Y0028241D01*
X0111778Y0025844D02*
X0112578Y0025844D01*
X0112578Y0023447D02*
X0111778Y0023447D01*
X0111778Y0022249D02*
X0112578Y0022249D01*
X0112578Y0021050D02*
X0111778Y0021050D01*
X0118267Y0021050D02*
X0131689Y0021050D01*
X0130746Y0022249D02*
X0119211Y0022249D01*
X0119674Y0023447D02*
X0130283Y0023447D01*
X0130389Y0025844D02*
X0119568Y0025844D01*
X0118993Y0027043D02*
X0130964Y0027043D01*
X0132148Y0028241D02*
X0117809Y0028241D01*
X0144811Y0022249D02*
X0148278Y0022249D01*
X0148278Y0023447D02*
X0145274Y0023447D01*
X0152678Y0023447D02*
X0155718Y0023447D01*
X0155222Y0024646D02*
X0152678Y0024646D01*
X0153567Y0025844D02*
X0155078Y0025844D01*
X0156874Y0022249D02*
X0152678Y0022249D01*
X0152678Y0021050D02*
X0156440Y0021050D01*
X0155538Y0019852D02*
X0152678Y0019852D01*
X0152678Y0018653D02*
X0155078Y0018653D01*
X0155078Y0017455D02*
X0152678Y0017455D01*
X0152678Y0016256D02*
X0155078Y0016256D01*
X0155078Y0015058D02*
X0152678Y0015058D01*
X0152678Y0013859D02*
X0155078Y0013859D01*
X0155078Y0012661D02*
X0152678Y0012661D01*
X0151685Y0011462D02*
X0155078Y0011462D01*
X0155380Y0010264D02*
X0150487Y0010264D01*
X0149288Y0009065D02*
X0156057Y0009065D01*
X0157638Y0007867D02*
X0148090Y0007867D01*
X0161319Y0007867D02*
X0167197Y0007867D01*
X0167068Y0007932D02*
X0167713Y0007604D01*
X0168401Y0007380D01*
X0169078Y0007273D01*
X0169078Y0014467D01*
X0164878Y0014467D01*
X0164878Y0011505D01*
X0164992Y0010789D01*
X0165215Y0010101D01*
X0165544Y0009456D01*
X0165970Y0008870D01*
X0166482Y0008358D01*
X0167068Y0007932D01*
X0165828Y0009065D02*
X0162900Y0009065D01*
X0163577Y0010264D02*
X0165163Y0010264D01*
X0164885Y0011462D02*
X0163878Y0011462D01*
X0163878Y0012661D02*
X0164878Y0012661D01*
X0164878Y0013859D02*
X0163878Y0013859D01*
X0163878Y0015058D02*
X0169078Y0015058D01*
X0169078Y0015267D02*
X0169078Y0014467D01*
X0169878Y0014467D01*
X0169878Y0007273D01*
X0170556Y0007380D01*
X0171244Y0007604D01*
X0171889Y0007932D01*
X0172475Y0008358D01*
X0172987Y0008870D01*
X0173413Y0009456D01*
X0173741Y0010101D01*
X0173965Y0010789D01*
X0174078Y0011505D01*
X0174078Y0014467D01*
X0169879Y0014467D01*
X0169879Y0015267D01*
X0174078Y0015267D01*
X0174078Y0018229D01*
X0173965Y0018944D01*
X0173741Y0019632D01*
X0173413Y0020278D01*
X0172987Y0020863D01*
X0172475Y0021375D01*
X0171889Y0021801D01*
X0171760Y0021867D01*
X0171889Y0021932D01*
X0172475Y0022358D01*
X0172987Y0022870D01*
X0173413Y0023456D01*
X0173741Y0024101D01*
X0173965Y0024789D01*
X0174078Y0025505D01*
X0174078Y0028467D01*
X0169879Y0028467D01*
X0169879Y0029267D01*
X0174078Y0029267D01*
X0174078Y0032229D01*
X0173965Y0032944D01*
X0173741Y0033632D01*
X0173413Y0034278D01*
X0172987Y0034863D01*
X0172475Y0035375D01*
X0171889Y0035801D01*
X0171244Y0036130D01*
X0170556Y0036353D01*
X0169878Y0036461D01*
X0169878Y0029267D01*
X0169078Y0029267D01*
X0169078Y0028467D01*
X0164878Y0028467D01*
X0164878Y0025505D01*
X0164992Y0024789D01*
X0165215Y0024101D01*
X0165544Y0023456D01*
X0165970Y0022870D01*
X0166482Y0022358D01*
X0167068Y0021932D01*
X0167197Y0021867D01*
X0167068Y0021801D01*
X0166482Y0021375D01*
X0165970Y0020863D01*
X0165544Y0020278D01*
X0165215Y0019632D01*
X0164992Y0018944D01*
X0164878Y0018229D01*
X0164878Y0015267D01*
X0169078Y0015267D01*
X0169078Y0022461D01*
X0169078Y0028467D01*
X0169878Y0028467D01*
X0169878Y0015267D01*
X0169078Y0015267D01*
X0169879Y0015058D02*
X0178845Y0015058D01*
X0178779Y0013859D02*
X0174078Y0013859D01*
X0174078Y0012661D02*
X0178779Y0012661D01*
X0178934Y0011462D02*
X0174072Y0011462D01*
X0173794Y0010264D02*
X0179430Y0010264D01*
X0179927Y0009065D02*
X0173129Y0009065D01*
X0171760Y0007867D02*
X0181090Y0007867D01*
X0179342Y0016256D02*
X0174078Y0016256D01*
X0174078Y0017455D02*
X0179838Y0017455D01*
X0180877Y0018653D02*
X0174011Y0018653D01*
X0173630Y0019852D02*
X0182075Y0019852D01*
X0184909Y0021050D02*
X0172800Y0021050D01*
X0172325Y0022249D02*
X0192478Y0022249D01*
X0192478Y0023447D02*
X0173407Y0023447D01*
X0173918Y0024646D02*
X0192478Y0024646D01*
X0192478Y0025844D02*
X0174078Y0025844D01*
X0174078Y0027043D02*
X0192478Y0027043D01*
X0192478Y0028241D02*
X0174078Y0028241D01*
X0174078Y0029440D02*
X0192478Y0029440D01*
X0192478Y0030638D02*
X0174078Y0030638D01*
X0174078Y0031837D02*
X0192478Y0031837D01*
X0192478Y0033035D02*
X0173935Y0033035D01*
X0173435Y0034234D02*
X0192478Y0034234D01*
X0192478Y0035432D02*
X0172397Y0035432D01*
X0169878Y0035432D02*
X0169078Y0035432D01*
X0169078Y0036461D02*
X0168401Y0036353D01*
X0167713Y0036130D01*
X0167068Y0035801D01*
X0166482Y0035375D01*
X0165970Y0034863D01*
X0165544Y0034278D01*
X0165215Y0033632D01*
X0164992Y0032944D01*
X0164878Y0032229D01*
X0164878Y0029267D01*
X0169078Y0029267D01*
X0169078Y0036461D01*
X0169078Y0034234D02*
X0169878Y0034234D01*
X0169878Y0033035D02*
X0169078Y0033035D01*
X0169078Y0031837D02*
X0169878Y0031837D01*
X0169878Y0030638D02*
X0169078Y0030638D01*
X0169078Y0029440D02*
X0169878Y0029440D01*
X0169878Y0028241D02*
X0169078Y0028241D01*
X0169078Y0027043D02*
X0169878Y0027043D01*
X0169878Y0025844D02*
X0169078Y0025844D01*
X0169078Y0024646D02*
X0169878Y0024646D01*
X0169878Y0023447D02*
X0169078Y0023447D01*
X0169078Y0022249D02*
X0169878Y0022249D01*
X0169878Y0021050D02*
X0169078Y0021050D01*
X0169078Y0019852D02*
X0169878Y0019852D01*
X0169878Y0018653D02*
X0169078Y0018653D01*
X0169078Y0017455D02*
X0169878Y0017455D01*
X0169878Y0016256D02*
X0169078Y0016256D01*
X0169078Y0013859D02*
X0169878Y0013859D01*
X0169878Y0012661D02*
X0169078Y0012661D01*
X0169078Y0011462D02*
X0169878Y0011462D01*
X0169878Y0010264D02*
X0169078Y0010264D01*
X0169078Y0009065D02*
X0169878Y0009065D01*
X0169878Y0007867D02*
X0169078Y0007867D01*
X0164878Y0016256D02*
X0163878Y0016256D01*
X0163878Y0017455D02*
X0164878Y0017455D01*
X0164946Y0018653D02*
X0163878Y0018653D01*
X0163419Y0019852D02*
X0165327Y0019852D01*
X0166157Y0021050D02*
X0162517Y0021050D01*
X0162083Y0022249D02*
X0166632Y0022249D01*
X0165550Y0023447D02*
X0163239Y0023447D01*
X0163735Y0024646D02*
X0165038Y0024646D01*
X0164878Y0025844D02*
X0163878Y0025844D01*
X0163878Y0027043D02*
X0164878Y0027043D01*
X0164878Y0028241D02*
X0163878Y0028241D01*
X0163878Y0029440D02*
X0164878Y0029440D01*
X0164878Y0030638D02*
X0163878Y0030638D01*
X0163878Y0031837D02*
X0164878Y0031837D01*
X0165021Y0033035D02*
X0163757Y0033035D01*
X0163260Y0034234D02*
X0165522Y0034234D01*
X0166560Y0035432D02*
X0162155Y0035432D01*
X0159528Y0039028D02*
X0143762Y0039028D01*
X0188048Y0021050D02*
X0192478Y0021050D01*
X0192478Y0019852D02*
X0190882Y0019852D01*
X0192080Y0018653D02*
X0192478Y0018653D01*
D17*
X0166478Y0060367D03*
X0147978Y0064367D03*
X0147978Y0080867D03*
X0152978Y0094367D03*
X0138978Y0098367D03*
X0123478Y0105867D03*
X0116767Y0108956D03*
X0113478Y0102367D03*
X0100167Y0114867D03*
X0086978Y0108867D03*
X0082978Y0117367D03*
X0098478Y0135367D03*
X0116767Y0134867D03*
X0129478Y0121867D03*
X0134478Y0118267D03*
X0104478Y0086367D03*
X0093228Y0086617D03*
X0073478Y0093867D03*
X0066978Y0091867D03*
X0052663Y0112056D03*
X0055978Y0115367D03*
X0060478Y0118356D03*
X0044478Y0098367D03*
X0031267Y0097867D03*
X0037478Y0083367D03*
X0035056Y0117367D03*
X0129478Y0157367D03*
X0134478Y0150867D03*
X0134478Y0172367D03*
X0138978Y0175367D03*
X0176478Y0157367D03*
X0182478Y0081367D03*
M02*
