%
M48
M72
T01C0.0138
T02C0.0320
T03C0.0400
T04C0.1260
%
T01
X3748Y8337
X3127Y9787
X4448Y9837
X5266Y11206
X5598Y11537
X6048Y11836
X8298Y11737
X8698Y10887
X10017Y11487
X11348Y10237
X11677Y10896
X12348Y10587
X13448Y11827
X12948Y12187
X11677Y13487
X9848Y13537
X12948Y15737
X13448Y15087
X13448Y17237
X13898Y17537
X17648Y15737
X13898Y9837
X15298Y9437
X14798Y8087
X14798Y6437
X16648Y6037
X18248Y8137
X10448Y8637
X9323Y8662
X7348Y9387
X6698Y9187
X3506Y11737
T02
X8198Y7137
X10098Y7137
X12498Y7787
X12498Y8787
X15798Y6337
X15798Y5337
T03
X13778Y4227
X13778Y2447
X15948Y2887
X16948Y2887
X16948Y1487
X15948Y1487
X11218Y2447
X9648Y1987
X8648Y1987
X7648Y1987
X11218Y4227
X6148Y7037
X5148Y7037
X4148Y7037
X3148Y7037
X2148Y7037
X2398Y9737
X2398Y10737
X2398Y11737
X2398Y12737
X2398Y13737
X2398Y14737
X6348Y14337
X7348Y14337
X8348Y14337
X9348Y14337
X10348Y14337
X11348Y14337
X12348Y14337
X11348Y15737
X10348Y15737
X9348Y15737
X8348Y15737
X8348Y16737
X9348Y16737
X10348Y16737
X11348Y16737
X16648Y13437
X17648Y13437
X17648Y12437
X16648Y12437
X16648Y11437
X17648Y11437
X17648Y10437
X16648Y10437
X16648Y9437
X17648Y9437
T04
X2148Y1337
X18648Y1337
X18648Y17387
X2148Y17387
M30
