G75*
%MOIN*%
%OFA0B0*%
%FSLAX25Y25*%
%IPPOS*%
%LPD*%
%AMOC8*
5,1,8,0,0,1.08239X$1,22.5*
%
%ADD10R,0.02000X0.05800*%
%ADD11R,0.05800X0.02000*%
%ADD12R,0.06299X0.05118*%
%ADD13C,0.05200*%
%ADD14C,0.06000*%
%ADD15C,0.07400*%
%ADD16R,0.05118X0.06299*%
%ADD17OC8,0.06300*%
%ADD18C,0.06300*%
%ADD19OC8,0.06000*%
%ADD20R,0.02480X0.03268*%
%ADD21R,0.04724X0.02165*%
%ADD22C,0.01200*%
%ADD23C,0.03378*%
%ADD24C,0.01000*%
D10*
X0078478Y0094167D03*
X0081578Y0094167D03*
X0084778Y0094167D03*
X0087878Y0094167D03*
X0091078Y0094167D03*
X0094178Y0094167D03*
X0097378Y0094167D03*
X0100478Y0094167D03*
X0100478Y0126567D03*
X0097378Y0126567D03*
X0094178Y0126567D03*
X0091078Y0126567D03*
X0087878Y0126567D03*
X0084778Y0126567D03*
X0081578Y0126567D03*
X0078478Y0126567D03*
D11*
X0073278Y0121367D03*
X0073278Y0118267D03*
X0073278Y0115067D03*
X0073278Y0111967D03*
X0073278Y0108767D03*
X0073278Y0105667D03*
X0073278Y0102467D03*
X0073278Y0099367D03*
X0105678Y0099367D03*
X0105678Y0102467D03*
X0105678Y0105667D03*
X0105678Y0108767D03*
X0105678Y0111967D03*
X0105678Y0115067D03*
X0105678Y0118267D03*
X0105678Y0121367D03*
D12*
X0139978Y0071607D03*
X0139978Y0064127D03*
X0172478Y0060430D03*
X0172478Y0068304D03*
X0185978Y0068304D03*
X0185978Y0060430D03*
X0100978Y0056367D03*
X0100978Y0048493D03*
X0079978Y0048493D03*
X0079978Y0056367D03*
X0044478Y0084930D03*
X0044478Y0092804D03*
D13*
X0081978Y0071367D03*
X0100978Y0071367D03*
D14*
X0109178Y0042267D02*
X0115178Y0042267D01*
X0115178Y0024467D02*
X0109178Y0024467D01*
X0096478Y0022867D02*
X0096478Y0016867D01*
X0086478Y0016867D02*
X0086478Y0022867D01*
X0076478Y0022867D02*
X0076478Y0016867D01*
X0061478Y0067367D02*
X0061478Y0073367D01*
X0051478Y0073367D02*
X0051478Y0067367D01*
X0041478Y0067367D02*
X0041478Y0073367D01*
X0031478Y0073367D02*
X0031478Y0067367D01*
X0021478Y0067367D02*
X0021478Y0073367D01*
X0063478Y0140367D02*
X0063478Y0146367D01*
X0073478Y0146367D02*
X0073478Y0140367D01*
X0083478Y0140367D02*
X0083478Y0146367D01*
X0093478Y0146367D02*
X0093478Y0140367D01*
X0103478Y0140367D02*
X0103478Y0146367D01*
X0113478Y0146367D02*
X0113478Y0140367D01*
X0123478Y0140367D02*
X0123478Y0146367D01*
X0134778Y0042267D02*
X0140778Y0042267D01*
X0140778Y0024467D02*
X0134778Y0024467D01*
X0159478Y0025867D02*
X0159478Y0031867D01*
X0169478Y0031867D02*
X0169478Y0025867D01*
X0169478Y0017867D02*
X0169478Y0011867D01*
X0159478Y0011867D02*
X0159478Y0017867D01*
D15*
X0166478Y0094367D03*
X0166478Y0104367D03*
X0176478Y0104367D03*
X0176478Y0094367D03*
X0176478Y0114367D03*
X0166478Y0114367D03*
X0166478Y0124367D03*
X0176478Y0124367D03*
X0176478Y0134367D03*
X0166478Y0134367D03*
X0023978Y0137367D03*
X0023978Y0127367D03*
X0023978Y0117367D03*
X0023978Y0107367D03*
X0023978Y0097367D03*
X0023978Y0147367D03*
D16*
X0039541Y0110867D03*
X0047415Y0110867D03*
X0052738Y0083867D03*
X0060219Y0083867D03*
D17*
X0124978Y0077867D03*
X0157978Y0063367D03*
D18*
X0157978Y0053367D03*
X0124978Y0087867D03*
D19*
X0113478Y0157367D03*
X0103478Y0157367D03*
X0093478Y0157367D03*
X0083478Y0157367D03*
X0083478Y0167367D03*
X0093478Y0167367D03*
X0103478Y0167367D03*
X0113478Y0167367D03*
D20*
X0061506Y0098367D03*
X0061506Y0091867D03*
X0052451Y0091867D03*
X0052451Y0098367D03*
D21*
X0176360Y0053107D03*
X0176360Y0049367D03*
X0176360Y0045627D03*
X0186597Y0045627D03*
X0186597Y0053107D03*
D22*
X0015478Y0018255D02*
X0015478Y0168978D01*
X0017117Y0167340D01*
X0019947Y0166167D01*
X0023010Y0166167D01*
X0025840Y0167340D01*
X0028006Y0169505D01*
X0029178Y0172335D01*
X0029178Y0175398D01*
X0028006Y0178228D01*
X0026367Y0179867D01*
X0181590Y0179867D01*
X0179951Y0178228D01*
X0178779Y0175398D01*
X0178779Y0172335D01*
X0179951Y0169505D01*
X0182117Y0167340D01*
X0184947Y0166167D01*
X0188010Y0166167D01*
X0190840Y0167340D01*
X0192478Y0168978D01*
X0192478Y0060478D01*
X0190528Y0062428D01*
X0190528Y0063569D01*
X0189807Y0064289D01*
X0190110Y0064464D01*
X0190408Y0064762D01*
X0190619Y0065127D01*
X0190728Y0065534D01*
X0190728Y0067704D01*
X0186578Y0067704D01*
X0186578Y0068904D01*
X0185378Y0068904D01*
X0185378Y0072463D01*
X0182618Y0072463D01*
X0182211Y0072354D01*
X0181846Y0072143D01*
X0181549Y0071845D01*
X0181338Y0071480D01*
X0181229Y0071073D01*
X0181229Y0068904D01*
X0185378Y0068904D01*
X0185378Y0067704D01*
X0181229Y0067704D01*
X0181229Y0065534D01*
X0181338Y0065127D01*
X0181549Y0064762D01*
X0181846Y0064464D01*
X0182150Y0064289D01*
X0181429Y0063569D01*
X0181429Y0059091D01*
X0179178Y0061341D01*
X0177890Y0062630D01*
X0177028Y0062630D01*
X0177028Y0063569D01*
X0176307Y0064289D01*
X0176610Y0064464D01*
X0176908Y0064762D01*
X0177119Y0065127D01*
X0177228Y0065534D01*
X0177228Y0067704D01*
X0173078Y0067704D01*
X0173078Y0068904D01*
X0171878Y0068904D01*
X0171878Y0067704D01*
X0167729Y0067704D01*
X0167729Y0065534D01*
X0167838Y0065127D01*
X0168049Y0064762D01*
X0168346Y0064464D01*
X0168650Y0064289D01*
X0167929Y0063569D01*
X0167929Y0063326D01*
X0167133Y0063656D01*
X0165824Y0063656D01*
X0164615Y0063155D01*
X0163690Y0062230D01*
X0163189Y0061021D01*
X0163189Y0059712D01*
X0163690Y0058504D01*
X0164615Y0057578D01*
X0165824Y0057078D01*
X0167133Y0057078D01*
X0167929Y0057407D01*
X0167929Y0057291D01*
X0168749Y0056471D01*
X0176208Y0056471D01*
X0177017Y0057280D01*
X0178707Y0055589D01*
X0173418Y0055589D01*
X0173135Y0055307D01*
X0162100Y0055307D01*
X0161836Y0055944D01*
X0160556Y0057224D01*
X0158884Y0057917D01*
X0157073Y0057917D01*
X0155401Y0057224D01*
X0154121Y0055944D01*
X0153428Y0054272D01*
X0153428Y0052462D01*
X0153585Y0052084D01*
X0152067Y0050567D01*
X0150778Y0049278D01*
X0150778Y0016455D01*
X0152067Y0015167D01*
X0153278Y0013955D01*
X0154567Y0012667D01*
X0155078Y0012667D01*
X0155078Y0010991D01*
X0155748Y0009374D01*
X0156986Y0008137D01*
X0158603Y0007467D01*
X0160354Y0007467D01*
X0161971Y0008137D01*
X0163209Y0009374D01*
X0163878Y0010991D01*
X0163878Y0018742D01*
X0163209Y0020359D01*
X0161971Y0021597D01*
X0161319Y0021867D01*
X0161971Y0022137D01*
X0163209Y0023374D01*
X0163878Y0024991D01*
X0163878Y0032742D01*
X0163209Y0034359D01*
X0161971Y0035597D01*
X0160354Y0036267D01*
X0158603Y0036267D01*
X0156986Y0035597D01*
X0155748Y0034359D01*
X0155178Y0032983D01*
X0155178Y0047455D01*
X0156696Y0048973D01*
X0157073Y0048817D01*
X0158884Y0048817D01*
X0160556Y0049509D01*
X0161836Y0050789D01*
X0161884Y0050907D01*
X0166778Y0050907D01*
X0166778Y0046955D01*
X0168067Y0045667D01*
X0170307Y0043427D01*
X0173135Y0043427D01*
X0173418Y0043144D01*
X0179302Y0043144D01*
X0180122Y0043964D01*
X0180122Y0047289D01*
X0180042Y0047370D01*
X0180213Y0047666D01*
X0180322Y0048073D01*
X0180322Y0049367D01*
X0180322Y0050660D01*
X0180213Y0051067D01*
X0180042Y0051364D01*
X0180122Y0051444D01*
X0180122Y0054175D01*
X0182101Y0052196D01*
X0182835Y0051462D01*
X0182835Y0051444D01*
X0183655Y0050624D01*
X0189278Y0050624D01*
X0189278Y0050278D01*
X0187110Y0048109D01*
X0183655Y0048109D01*
X0182835Y0047289D01*
X0182835Y0043964D01*
X0183655Y0043144D01*
X0189539Y0043144D01*
X0190359Y0043964D01*
X0190359Y0045136D01*
X0192390Y0047167D01*
X0192478Y0047255D01*
X0192478Y0018255D01*
X0190840Y0019894D01*
X0188010Y0021066D01*
X0184947Y0021066D01*
X0182117Y0019894D01*
X0179951Y0017728D01*
X0178779Y0014898D01*
X0178779Y0011835D01*
X0179951Y0009005D01*
X0181690Y0007267D01*
X0026267Y0007267D01*
X0028006Y0009005D01*
X0029178Y0011835D01*
X0029178Y0014898D01*
X0028006Y0017728D01*
X0025840Y0019894D01*
X0023010Y0021066D01*
X0019947Y0021066D01*
X0017117Y0019894D01*
X0015478Y0018255D01*
X0015478Y0018653D02*
X0015877Y0018653D01*
X0015478Y0019852D02*
X0017075Y0019852D01*
X0015478Y0021050D02*
X0019909Y0021050D01*
X0023048Y0021050D02*
X0072078Y0021050D01*
X0072078Y0019852D02*
X0025882Y0019852D01*
X0027080Y0018653D02*
X0072078Y0018653D01*
X0072078Y0017455D02*
X0028119Y0017455D01*
X0028615Y0016256D02*
X0072078Y0016256D01*
X0072078Y0015991D02*
X0072748Y0014374D01*
X0073986Y0013137D01*
X0075603Y0012467D01*
X0077354Y0012467D01*
X0078971Y0013137D01*
X0080209Y0014374D01*
X0080878Y0015991D01*
X0080878Y0023742D01*
X0080209Y0025359D01*
X0078971Y0026597D01*
X0077354Y0027267D01*
X0075603Y0027267D01*
X0073986Y0026597D01*
X0072748Y0025359D01*
X0072078Y0023742D01*
X0072078Y0015991D01*
X0072465Y0015058D02*
X0029112Y0015058D01*
X0029178Y0013859D02*
X0073263Y0013859D01*
X0075135Y0012661D02*
X0029178Y0012661D01*
X0029023Y0011462D02*
X0155078Y0011462D01*
X0155078Y0012661D02*
X0098356Y0012661D01*
X0098244Y0012604D02*
X0098889Y0012932D01*
X0099475Y0013358D01*
X0099987Y0013870D01*
X0100413Y0014456D01*
X0100741Y0015101D01*
X0100965Y0015789D01*
X0101078Y0016505D01*
X0101078Y0019467D01*
X0096879Y0019467D01*
X0096879Y0020267D01*
X0101078Y0020267D01*
X0101078Y0023229D01*
X0100965Y0023944D01*
X0100741Y0024632D01*
X0100413Y0025278D01*
X0099987Y0025863D01*
X0099475Y0026375D01*
X0098889Y0026801D01*
X0098244Y0027130D01*
X0097556Y0027353D01*
X0096878Y0027461D01*
X0096878Y0020267D01*
X0096078Y0020267D01*
X0096078Y0019467D01*
X0091878Y0019467D01*
X0091878Y0016505D01*
X0091992Y0015789D01*
X0092215Y0015101D01*
X0092544Y0014456D01*
X0092970Y0013870D01*
X0093482Y0013358D01*
X0094068Y0012932D01*
X0094713Y0012604D01*
X0095401Y0012380D01*
X0096078Y0012273D01*
X0096078Y0019467D01*
X0096878Y0019467D01*
X0096878Y0012273D01*
X0097556Y0012380D01*
X0098244Y0012604D01*
X0096878Y0012661D02*
X0096078Y0012661D01*
X0096078Y0013859D02*
X0096878Y0013859D01*
X0096878Y0015058D02*
X0096078Y0015058D01*
X0096078Y0016256D02*
X0096878Y0016256D01*
X0096878Y0017455D02*
X0096078Y0017455D01*
X0096078Y0018653D02*
X0096878Y0018653D01*
X0096879Y0019852D02*
X0150778Y0019852D01*
X0150778Y0021050D02*
X0143867Y0021050D01*
X0143775Y0020958D02*
X0144287Y0021470D01*
X0144713Y0022056D01*
X0145041Y0022701D01*
X0145265Y0023389D01*
X0145372Y0024067D01*
X0138179Y0024067D01*
X0138179Y0024867D01*
X0145372Y0024867D01*
X0145265Y0025544D01*
X0145041Y0026232D01*
X0144713Y0026878D01*
X0144287Y0027463D01*
X0143775Y0027975D01*
X0143189Y0028401D01*
X0142544Y0028730D01*
X0141856Y0028953D01*
X0141140Y0029067D01*
X0138178Y0029067D01*
X0138178Y0024867D01*
X0137378Y0024867D01*
X0137378Y0029067D01*
X0134416Y0029067D01*
X0133701Y0028953D01*
X0133013Y0028730D01*
X0132368Y0028401D01*
X0131782Y0027975D01*
X0131270Y0027463D01*
X0130844Y0026878D01*
X0130515Y0026232D01*
X0130292Y0025544D01*
X0130184Y0024867D01*
X0137378Y0024867D01*
X0137378Y0024067D01*
X0130184Y0024067D01*
X0130292Y0023389D01*
X0130515Y0022701D01*
X0130844Y0022056D01*
X0131270Y0021470D01*
X0131782Y0020958D01*
X0132368Y0020532D01*
X0133013Y0020204D01*
X0133701Y0019980D01*
X0134416Y0019867D01*
X0137378Y0019867D01*
X0137378Y0024067D01*
X0138178Y0024067D01*
X0138178Y0019867D01*
X0141140Y0019867D01*
X0141856Y0019980D01*
X0142544Y0020204D01*
X0143189Y0020532D01*
X0143775Y0020958D01*
X0144811Y0022249D02*
X0150778Y0022249D01*
X0150778Y0023447D02*
X0145274Y0023447D01*
X0145168Y0025844D02*
X0150778Y0025844D01*
X0150778Y0024646D02*
X0138179Y0024646D01*
X0137378Y0024646D02*
X0112579Y0024646D01*
X0112579Y0024867D02*
X0119772Y0024867D01*
X0119665Y0025544D01*
X0119441Y0026232D01*
X0119113Y0026878D01*
X0118687Y0027463D01*
X0118175Y0027975D01*
X0117589Y0028401D01*
X0116944Y0028730D01*
X0116256Y0028953D01*
X0115540Y0029067D01*
X0112578Y0029067D01*
X0112578Y0024867D01*
X0111778Y0024867D01*
X0111778Y0029067D01*
X0108816Y0029067D01*
X0108101Y0028953D01*
X0107413Y0028730D01*
X0106768Y0028401D01*
X0106182Y0027975D01*
X0105670Y0027463D01*
X0105244Y0026878D01*
X0104915Y0026232D01*
X0104692Y0025544D01*
X0104584Y0024867D01*
X0111778Y0024867D01*
X0111778Y0024067D01*
X0104584Y0024067D01*
X0104692Y0023389D01*
X0104915Y0022701D01*
X0105244Y0022056D01*
X0105670Y0021470D01*
X0106182Y0020958D01*
X0106768Y0020532D01*
X0107413Y0020204D01*
X0108101Y0019980D01*
X0108816Y0019867D01*
X0111778Y0019867D01*
X0111778Y0024067D01*
X0112578Y0024067D01*
X0112578Y0019867D01*
X0115540Y0019867D01*
X0116256Y0019980D01*
X0116944Y0020204D01*
X0117589Y0020532D01*
X0118175Y0020958D01*
X0118687Y0021470D01*
X0119113Y0022056D01*
X0119441Y0022701D01*
X0119665Y0023389D01*
X0119772Y0024067D01*
X0112579Y0024067D01*
X0112579Y0024867D01*
X0111778Y0024646D02*
X0100735Y0024646D01*
X0101044Y0023447D02*
X0104683Y0023447D01*
X0105146Y0022249D02*
X0101078Y0022249D01*
X0101078Y0021050D02*
X0106089Y0021050D01*
X0111778Y0021050D02*
X0112578Y0021050D01*
X0112578Y0022249D02*
X0111778Y0022249D01*
X0111778Y0023447D02*
X0112578Y0023447D01*
X0112578Y0025844D02*
X0111778Y0025844D01*
X0111778Y0027043D02*
X0112578Y0027043D01*
X0112578Y0028241D02*
X0111778Y0028241D01*
X0106548Y0028241D02*
X0015478Y0028241D01*
X0015478Y0027043D02*
X0075063Y0027043D01*
X0073234Y0025844D02*
X0015478Y0025844D01*
X0015478Y0024646D02*
X0072453Y0024646D01*
X0072078Y0023447D02*
X0015478Y0023447D01*
X0015478Y0022249D02*
X0072078Y0022249D01*
X0077894Y0027043D02*
X0085063Y0027043D01*
X0085603Y0027267D02*
X0083986Y0026597D01*
X0082748Y0025359D01*
X0082078Y0023742D01*
X0082078Y0015991D01*
X0082748Y0014374D01*
X0083986Y0013137D01*
X0085603Y0012467D01*
X0087354Y0012467D01*
X0088971Y0013137D01*
X0090209Y0014374D01*
X0090878Y0015991D01*
X0090878Y0023742D01*
X0090209Y0025359D01*
X0088971Y0026597D01*
X0087354Y0027267D01*
X0085603Y0027267D01*
X0087894Y0027043D02*
X0094542Y0027043D01*
X0094713Y0027130D02*
X0094068Y0026801D01*
X0093482Y0026375D01*
X0092970Y0025863D01*
X0092544Y0025278D01*
X0092215Y0024632D01*
X0091992Y0023944D01*
X0091878Y0023229D01*
X0091878Y0020267D01*
X0096078Y0020267D01*
X0096078Y0027461D01*
X0095401Y0027353D01*
X0094713Y0027130D01*
X0096078Y0027043D02*
X0096878Y0027043D01*
X0096878Y0025844D02*
X0096078Y0025844D01*
X0096078Y0024646D02*
X0096878Y0024646D01*
X0096878Y0023447D02*
X0096078Y0023447D01*
X0096078Y0022249D02*
X0096878Y0022249D01*
X0096878Y0021050D02*
X0096078Y0021050D01*
X0096078Y0019852D02*
X0090878Y0019852D01*
X0090878Y0021050D02*
X0091878Y0021050D01*
X0091878Y0022249D02*
X0090878Y0022249D01*
X0090878Y0023447D02*
X0091913Y0023447D01*
X0092222Y0024646D02*
X0090504Y0024646D01*
X0089723Y0025844D02*
X0092956Y0025844D01*
X0098415Y0027043D02*
X0105364Y0027043D01*
X0104789Y0025844D02*
X0100001Y0025844D01*
X0101078Y0018653D02*
X0150778Y0018653D01*
X0150778Y0017455D02*
X0101078Y0017455D01*
X0101039Y0016256D02*
X0150978Y0016256D01*
X0152176Y0015058D02*
X0100719Y0015058D01*
X0099976Y0013859D02*
X0153375Y0013859D01*
X0155478Y0014867D02*
X0159478Y0014867D01*
X0155478Y0014867D02*
X0152978Y0017367D01*
X0152978Y0048367D01*
X0157978Y0053367D01*
X0158238Y0053107D01*
X0168978Y0053107D01*
X0168978Y0047867D01*
X0171219Y0045627D01*
X0176360Y0045627D01*
X0176360Y0049367D02*
X0172398Y0049367D01*
X0176360Y0049367D01*
X0180322Y0049367D01*
X0176360Y0049367D01*
X0176360Y0049367D01*
X0176360Y0049367D01*
X0176360Y0053107D02*
X0168978Y0053107D01*
X0171178Y0050907D02*
X0172464Y0050907D01*
X0172398Y0050660D01*
X0172398Y0049367D01*
X0172398Y0048073D01*
X0172464Y0047826D01*
X0172130Y0047826D01*
X0171178Y0048778D01*
X0171178Y0050907D01*
X0171178Y0049815D02*
X0172398Y0049815D01*
X0172398Y0048616D02*
X0171340Y0048616D01*
X0168713Y0045021D02*
X0155178Y0045021D01*
X0155178Y0046219D02*
X0167515Y0046219D01*
X0166778Y0047418D02*
X0155178Y0047418D01*
X0156339Y0048616D02*
X0166778Y0048616D01*
X0166778Y0049815D02*
X0160861Y0049815D01*
X0161892Y0055807D02*
X0178490Y0055807D01*
X0177291Y0057006D02*
X0176743Y0057006D01*
X0176978Y0060430D02*
X0172478Y0060430D01*
X0172415Y0060367D01*
X0166478Y0060367D01*
X0163512Y0061800D02*
X0162728Y0061800D01*
X0162728Y0061399D02*
X0162728Y0063167D01*
X0158179Y0063167D01*
X0158179Y0063567D01*
X0162728Y0063567D01*
X0162728Y0065334D01*
X0159946Y0068117D01*
X0158178Y0068117D01*
X0158178Y0063567D01*
X0157778Y0063567D01*
X0157778Y0063167D01*
X0153228Y0063167D01*
X0153228Y0061399D01*
X0156011Y0058617D01*
X0157778Y0058617D01*
X0157778Y0063167D01*
X0158178Y0063167D01*
X0158178Y0058617D01*
X0159946Y0058617D01*
X0162728Y0061399D01*
X0163189Y0060601D02*
X0161930Y0060601D01*
X0160732Y0059403D02*
X0163318Y0059403D01*
X0163990Y0058204D02*
X0105528Y0058204D01*
X0105528Y0057006D02*
X0155183Y0057006D01*
X0154064Y0055807D02*
X0105528Y0055807D01*
X0105528Y0054609D02*
X0153568Y0054609D01*
X0153428Y0053410D02*
X0105528Y0053410D01*
X0105528Y0053228D02*
X0105528Y0059506D01*
X0104708Y0060326D01*
X0103178Y0060326D01*
X0103178Y0067948D01*
X0103244Y0067976D01*
X0104369Y0069101D01*
X0104978Y0070571D01*
X0104978Y0072162D01*
X0104369Y0073632D01*
X0103244Y0074758D01*
X0102678Y0074992D01*
X0102678Y0083552D01*
X0103824Y0083078D01*
X0105133Y0083078D01*
X0106342Y0083578D01*
X0107267Y0084504D01*
X0107767Y0085712D01*
X0107767Y0087021D01*
X0107267Y0088230D01*
X0106678Y0088818D01*
X0106678Y0090955D01*
X0107890Y0092167D01*
X0122778Y0092167D01*
X0122778Y0091880D01*
X0122401Y0091724D01*
X0121121Y0090444D01*
X0120428Y0088772D01*
X0120428Y0086962D01*
X0121121Y0085289D01*
X0122401Y0084009D01*
X0124073Y0083317D01*
X0125884Y0083317D01*
X0127556Y0084009D01*
X0128836Y0085289D01*
X0129528Y0086962D01*
X0129528Y0088772D01*
X0128836Y0090444D01*
X0127556Y0091724D01*
X0127178Y0091880D01*
X0127178Y0092167D01*
X0137778Y0092167D01*
X0137778Y0075566D01*
X0136249Y0075566D01*
X0135429Y0074746D01*
X0135429Y0068468D01*
X0136030Y0067867D01*
X0135429Y0067265D01*
X0135429Y0060988D01*
X0136249Y0060167D01*
X0143708Y0060167D01*
X0144528Y0060988D01*
X0144528Y0061927D01*
X0145767Y0061927D01*
X0146115Y0061578D01*
X0147324Y0061078D01*
X0148633Y0061078D01*
X0149842Y0061578D01*
X0150767Y0062504D01*
X0151267Y0063712D01*
X0151267Y0065021D01*
X0150767Y0066230D01*
X0149842Y0067155D01*
X0148633Y0067656D01*
X0147324Y0067656D01*
X0146115Y0067155D01*
X0145287Y0066326D01*
X0144528Y0066326D01*
X0144528Y0067265D01*
X0143927Y0067867D01*
X0144528Y0068468D01*
X0144528Y0074746D01*
X0143708Y0075566D01*
X0142178Y0075566D01*
X0142178Y0092167D01*
X0150527Y0092167D01*
X0151115Y0091578D01*
X0152324Y0091078D01*
X0153633Y0091078D01*
X0154778Y0091552D01*
X0154778Y0086955D01*
X0158667Y0083067D01*
X0150430Y0083067D01*
X0149842Y0083655D01*
X0148633Y0084156D01*
X0147324Y0084156D01*
X0146115Y0083655D01*
X0145190Y0082730D01*
X0144689Y0081521D01*
X0144689Y0080212D01*
X0145190Y0079004D01*
X0146115Y0078078D01*
X0147324Y0077578D01*
X0148633Y0077578D01*
X0149842Y0078078D01*
X0150430Y0078667D01*
X0180527Y0078667D01*
X0180615Y0078578D01*
X0181824Y0078078D01*
X0183133Y0078078D01*
X0184342Y0078578D01*
X0185267Y0079504D01*
X0185767Y0080712D01*
X0185767Y0082021D01*
X0185267Y0083230D01*
X0184342Y0084155D01*
X0183133Y0084656D01*
X0181824Y0084656D01*
X0180615Y0084155D01*
X0179690Y0083230D01*
X0179623Y0083067D01*
X0175790Y0083067D01*
X0177390Y0084667D01*
X0178678Y0085955D01*
X0178678Y0089758D01*
X0179367Y0090043D01*
X0180802Y0091478D01*
X0181578Y0093352D01*
X0181578Y0095381D01*
X0180802Y0097256D01*
X0179367Y0098690D01*
X0177734Y0099367D01*
X0179367Y0100043D01*
X0180802Y0101478D01*
X0181578Y0103352D01*
X0181578Y0105381D01*
X0180802Y0107256D01*
X0179367Y0108690D01*
X0177734Y0109367D01*
X0179367Y0110043D01*
X0180802Y0111478D01*
X0181578Y0113352D01*
X0181578Y0115381D01*
X0180802Y0117256D01*
X0179367Y0118690D01*
X0177734Y0119367D01*
X0179367Y0120043D01*
X0180802Y0121478D01*
X0181087Y0122167D01*
X0181890Y0122167D01*
X0184390Y0124667D01*
X0185678Y0125955D01*
X0185678Y0137778D01*
X0184390Y0139067D01*
X0181390Y0142067D01*
X0157567Y0142067D01*
X0153278Y0137778D01*
X0153278Y0129778D01*
X0152067Y0128567D01*
X0102878Y0128567D01*
X0102878Y0130047D01*
X0102678Y0130247D01*
X0102678Y0134055D01*
X0102778Y0133955D01*
X0104067Y0132667D01*
X0114316Y0132667D01*
X0114904Y0132078D01*
X0116113Y0131578D01*
X0117422Y0131578D01*
X0118630Y0132078D01*
X0119556Y0133004D01*
X0120056Y0134212D01*
X0120056Y0135521D01*
X0119556Y0136730D01*
X0118630Y0137655D01*
X0117422Y0138156D01*
X0117325Y0138156D01*
X0117878Y0139491D01*
X0117878Y0147242D01*
X0117288Y0148667D01*
X0119669Y0148667D01*
X0119078Y0147242D01*
X0119078Y0139491D01*
X0119748Y0137874D01*
X0120986Y0136637D01*
X0122603Y0135967D01*
X0124354Y0135967D01*
X0125971Y0136637D01*
X0127209Y0137874D01*
X0127878Y0139491D01*
X0127878Y0147242D01*
X0127288Y0148667D01*
X0132027Y0148667D01*
X0132615Y0148078D01*
X0133824Y0147578D01*
X0135133Y0147578D01*
X0136342Y0148078D01*
X0137267Y0149004D01*
X0137767Y0150212D01*
X0137767Y0151521D01*
X0137267Y0152730D01*
X0136342Y0153655D01*
X0135133Y0154156D01*
X0133824Y0154156D01*
X0132615Y0153655D01*
X0132027Y0153067D01*
X0115401Y0153067D01*
X0117501Y0155167D01*
X0127027Y0155167D01*
X0127615Y0154578D01*
X0128824Y0154078D01*
X0130133Y0154078D01*
X0131342Y0154578D01*
X0131930Y0155167D01*
X0174027Y0155167D01*
X0174615Y0154578D01*
X0175824Y0154078D01*
X0177133Y0154078D01*
X0178342Y0154578D01*
X0179267Y0155504D01*
X0179767Y0156712D01*
X0179767Y0158021D01*
X0179267Y0159230D01*
X0178342Y0160155D01*
X0177133Y0160656D01*
X0175824Y0160656D01*
X0174615Y0160155D01*
X0174027Y0159567D01*
X0131930Y0159567D01*
X0131342Y0160155D01*
X0130133Y0160656D01*
X0128824Y0160656D01*
X0127615Y0160155D01*
X0127027Y0159567D01*
X0117501Y0159567D01*
X0115301Y0161767D01*
X0111656Y0161767D01*
X0109078Y0159189D01*
X0109078Y0155544D01*
X0111556Y0153067D01*
X0105401Y0153067D01*
X0107878Y0155544D01*
X0107878Y0159189D01*
X0105301Y0161767D01*
X0101656Y0161767D01*
X0099078Y0159189D01*
X0099078Y0155544D01*
X0101556Y0153067D01*
X0095401Y0153067D01*
X0097878Y0155544D01*
X0097878Y0159189D01*
X0095301Y0161767D01*
X0091656Y0161767D01*
X0089078Y0159189D01*
X0089078Y0155544D01*
X0091656Y0152967D01*
X0094467Y0152967D01*
X0093278Y0151778D01*
X0092030Y0150529D01*
X0090986Y0150097D01*
X0089748Y0148859D01*
X0089078Y0147242D01*
X0089078Y0139491D01*
X0089748Y0137874D01*
X0090056Y0137567D01*
X0086901Y0137567D01*
X0087209Y0137874D01*
X0087878Y0139491D01*
X0087878Y0147242D01*
X0087209Y0148859D01*
X0085971Y0150097D01*
X0084354Y0150767D01*
X0082603Y0150767D01*
X0080986Y0150097D01*
X0079748Y0148859D01*
X0079078Y0147242D01*
X0079078Y0139491D01*
X0079748Y0137874D01*
X0080986Y0136637D01*
X0082030Y0136204D01*
X0083167Y0135067D01*
X0075890Y0135067D01*
X0075678Y0135278D01*
X0075678Y0136515D01*
X0075971Y0136637D01*
X0077209Y0137874D01*
X0077878Y0139491D01*
X0077878Y0147242D01*
X0077209Y0148859D01*
X0075971Y0150097D01*
X0075678Y0150218D01*
X0075678Y0163455D01*
X0077390Y0165167D01*
X0079456Y0165167D01*
X0081656Y0162967D01*
X0085301Y0162967D01*
X0087878Y0165544D01*
X0087878Y0169189D01*
X0085301Y0171767D01*
X0081656Y0171767D01*
X0079456Y0169567D01*
X0075567Y0169567D01*
X0071278Y0165278D01*
X0071278Y0150218D01*
X0070986Y0150097D01*
X0069748Y0148859D01*
X0069078Y0147242D01*
X0069078Y0139491D01*
X0069748Y0137874D01*
X0070986Y0136637D01*
X0071278Y0136515D01*
X0071278Y0133455D01*
X0072567Y0132167D01*
X0072778Y0131955D01*
X0074067Y0130667D01*
X0076699Y0130667D01*
X0076078Y0130047D01*
X0076078Y0123767D01*
X0069799Y0123767D01*
X0068978Y0122947D01*
X0068978Y0120556D01*
X0062930Y0120556D01*
X0062342Y0121144D01*
X0061133Y0121645D01*
X0059824Y0121645D01*
X0058615Y0121144D01*
X0057690Y0120219D01*
X0057189Y0119010D01*
X0057189Y0118425D01*
X0056633Y0118656D01*
X0055324Y0118656D01*
X0054115Y0118155D01*
X0053190Y0117230D01*
X0052689Y0116021D01*
X0052689Y0115345D01*
X0052009Y0115345D01*
X0051031Y0114939D01*
X0050554Y0115416D01*
X0044277Y0115416D01*
X0043478Y0114618D01*
X0042680Y0115416D01*
X0041741Y0115416D01*
X0041741Y0116715D01*
X0040178Y0118278D01*
X0038890Y0119567D01*
X0037508Y0119567D01*
X0036919Y0120155D01*
X0035711Y0120656D01*
X0034402Y0120656D01*
X0033193Y0120155D01*
X0032268Y0119230D01*
X0031767Y0118021D01*
X0031767Y0116712D01*
X0032268Y0115504D01*
X0033193Y0114578D01*
X0034402Y0114078D01*
X0035582Y0114078D01*
X0035582Y0107567D01*
X0032390Y0107567D01*
X0031678Y0108278D01*
X0031678Y0112778D01*
X0030390Y0114067D01*
X0028793Y0115663D01*
X0029078Y0116352D01*
X0029078Y0118381D01*
X0028302Y0120256D01*
X0026867Y0121690D01*
X0025234Y0122367D01*
X0026867Y0123043D01*
X0028302Y0124478D01*
X0029078Y0126352D01*
X0029078Y0128381D01*
X0028302Y0130256D01*
X0026867Y0131690D01*
X0025234Y0132367D01*
X0026867Y0133043D01*
X0028302Y0134478D01*
X0029078Y0136352D01*
X0029078Y0138381D01*
X0028302Y0140256D01*
X0026867Y0141690D01*
X0025457Y0142274D01*
X0026013Y0142455D01*
X0026756Y0142834D01*
X0027431Y0143324D01*
X0028021Y0143914D01*
X0028511Y0144589D01*
X0028890Y0145332D01*
X0029148Y0146126D01*
X0029278Y0146950D01*
X0029278Y0146967D01*
X0024379Y0146967D01*
X0024379Y0147767D01*
X0029278Y0147767D01*
X0029278Y0147784D01*
X0029148Y0148608D01*
X0028890Y0149401D01*
X0028511Y0150144D01*
X0028021Y0150819D01*
X0027431Y0151409D01*
X0026756Y0151900D01*
X0026013Y0152278D01*
X0025220Y0152536D01*
X0024396Y0152667D01*
X0024378Y0152667D01*
X0024378Y0147767D01*
X0023578Y0147767D01*
X0023578Y0146967D01*
X0018678Y0146967D01*
X0018678Y0146950D01*
X0018809Y0146126D01*
X0019067Y0145332D01*
X0019445Y0144589D01*
X0019936Y0143914D01*
X0020526Y0143324D01*
X0021201Y0142834D01*
X0021944Y0142455D01*
X0022500Y0142274D01*
X0021090Y0141690D01*
X0019655Y0140256D01*
X0018878Y0138381D01*
X0018878Y0136352D01*
X0019655Y0134478D01*
X0021090Y0133043D01*
X0022723Y0132367D01*
X0021090Y0131690D01*
X0019655Y0130256D01*
X0018878Y0128381D01*
X0018878Y0126352D01*
X0019655Y0124478D01*
X0021090Y0123043D01*
X0022723Y0122367D01*
X0021090Y0121690D01*
X0019655Y0120256D01*
X0018878Y0118381D01*
X0018878Y0116352D01*
X0019655Y0114478D01*
X0021090Y0113043D01*
X0022723Y0112367D01*
X0021090Y0111690D01*
X0019655Y0110256D01*
X0018878Y0108381D01*
X0018878Y0106352D01*
X0019655Y0104478D01*
X0021090Y0103043D01*
X0022723Y0102367D01*
X0021090Y0101690D01*
X0019655Y0100256D01*
X0018878Y0098381D01*
X0018878Y0096352D01*
X0019655Y0094478D01*
X0021090Y0093043D01*
X0022964Y0092267D01*
X0024993Y0092267D01*
X0026867Y0093043D01*
X0028302Y0094478D01*
X0028801Y0095682D01*
X0029067Y0095415D01*
X0029067Y0080166D01*
X0030356Y0078878D01*
X0031278Y0077955D01*
X0031467Y0077767D01*
X0030603Y0077767D01*
X0028986Y0077097D01*
X0027748Y0075859D01*
X0027078Y0074242D01*
X0027078Y0066491D01*
X0027748Y0064874D01*
X0028986Y0063637D01*
X0030603Y0062967D01*
X0032354Y0062967D01*
X0033971Y0063637D01*
X0035209Y0064874D01*
X0035878Y0066491D01*
X0035878Y0074242D01*
X0035209Y0075859D01*
X0034401Y0076667D01*
X0038556Y0076667D01*
X0037748Y0075859D01*
X0037078Y0074242D01*
X0037078Y0066491D01*
X0037748Y0064874D01*
X0038986Y0063637D01*
X0040603Y0062967D01*
X0042354Y0062967D01*
X0043971Y0063637D01*
X0045209Y0064874D01*
X0045878Y0066491D01*
X0045878Y0074242D01*
X0045209Y0075859D01*
X0044401Y0076667D01*
X0048556Y0076667D01*
X0047748Y0075859D01*
X0047078Y0074242D01*
X0047078Y0066491D01*
X0047748Y0064874D01*
X0048986Y0063637D01*
X0050603Y0062967D01*
X0052354Y0062967D01*
X0053971Y0063637D01*
X0055209Y0064874D01*
X0055878Y0066491D01*
X0055878Y0074242D01*
X0055209Y0075859D01*
X0054401Y0076667D01*
X0058273Y0076667D01*
X0057970Y0076363D01*
X0057544Y0075778D01*
X0057215Y0075132D01*
X0056992Y0074444D01*
X0056878Y0073729D01*
X0056878Y0070767D01*
X0061078Y0070767D01*
X0061078Y0069967D01*
X0056878Y0069967D01*
X0056878Y0067005D01*
X0056992Y0066289D01*
X0057215Y0065601D01*
X0057544Y0064956D01*
X0057970Y0064370D01*
X0058482Y0063858D01*
X0059068Y0063432D01*
X0059713Y0063104D01*
X0060401Y0062880D01*
X0061078Y0062773D01*
X0061078Y0069967D01*
X0061878Y0069967D01*
X0061878Y0062773D01*
X0062556Y0062880D01*
X0063244Y0063104D01*
X0063889Y0063432D01*
X0064475Y0063858D01*
X0064987Y0064370D01*
X0065413Y0064956D01*
X0065741Y0065601D01*
X0065965Y0066289D01*
X0066078Y0067005D01*
X0066078Y0069967D01*
X0061879Y0069967D01*
X0061879Y0070767D01*
X0066078Y0070767D01*
X0066078Y0073729D01*
X0065965Y0074444D01*
X0065741Y0075132D01*
X0065413Y0075778D01*
X0064987Y0076363D01*
X0064684Y0076667D01*
X0084890Y0076667D01*
X0086890Y0078667D01*
X0088178Y0079955D01*
X0088178Y0084417D01*
X0090777Y0084417D01*
X0091365Y0083828D01*
X0092574Y0083328D01*
X0093883Y0083328D01*
X0095092Y0083828D01*
X0095178Y0083915D01*
X0095178Y0077178D01*
X0091567Y0073567D01*
X0085397Y0073567D01*
X0085369Y0073632D01*
X0084244Y0074758D01*
X0082774Y0075367D01*
X0081183Y0075367D01*
X0079713Y0074758D01*
X0078587Y0073632D01*
X0077978Y0072162D01*
X0077978Y0070571D01*
X0078006Y0070505D01*
X0077778Y0070278D01*
X0077778Y0060326D01*
X0076249Y0060326D01*
X0075429Y0059506D01*
X0075429Y0053228D01*
X0076150Y0052507D01*
X0075846Y0052332D01*
X0075549Y0052034D01*
X0075338Y0051669D01*
X0075229Y0051262D01*
X0075229Y0049093D01*
X0079378Y0049093D01*
X0079378Y0047893D01*
X0075229Y0047893D01*
X0075229Y0045723D01*
X0075338Y0045316D01*
X0075549Y0044951D01*
X0075846Y0044653D01*
X0076211Y0044443D01*
X0076618Y0044334D01*
X0079378Y0044334D01*
X0079378Y0047893D01*
X0080578Y0047893D01*
X0080578Y0044334D01*
X0083339Y0044334D01*
X0083746Y0044443D01*
X0084110Y0044653D01*
X0084408Y0044951D01*
X0084619Y0045316D01*
X0084728Y0045723D01*
X0084728Y0047893D01*
X0080578Y0047893D01*
X0080578Y0049093D01*
X0084728Y0049093D01*
X0084728Y0051262D01*
X0084619Y0051669D01*
X0084408Y0052034D01*
X0084110Y0052332D01*
X0083807Y0052507D01*
X0084528Y0053228D01*
X0084528Y0059506D01*
X0083708Y0060326D01*
X0082178Y0060326D01*
X0082178Y0067367D01*
X0082774Y0067367D01*
X0084244Y0067976D01*
X0085369Y0069101D01*
X0085397Y0069167D01*
X0093390Y0069167D01*
X0097398Y0073175D01*
X0096978Y0072162D01*
X0096978Y0070571D01*
X0097587Y0069101D01*
X0098713Y0067976D01*
X0098778Y0067948D01*
X0098778Y0060326D01*
X0097249Y0060326D01*
X0096429Y0059506D01*
X0096429Y0053228D01*
X0097150Y0052507D01*
X0096846Y0052332D01*
X0096549Y0052034D01*
X0096338Y0051669D01*
X0096229Y0051262D01*
X0096229Y0049093D01*
X0100378Y0049093D01*
X0100378Y0047893D01*
X0096229Y0047893D01*
X0096229Y0045723D01*
X0096338Y0045316D01*
X0096549Y0044951D01*
X0096846Y0044653D01*
X0097211Y0044443D01*
X0097618Y0044334D01*
X0100378Y0044334D01*
X0100378Y0047893D01*
X0101578Y0047893D01*
X0101578Y0044334D01*
X0104339Y0044334D01*
X0104746Y0044443D01*
X0105110Y0044653D01*
X0105408Y0044951D01*
X0105619Y0045316D01*
X0105728Y0045723D01*
X0105728Y0047893D01*
X0101578Y0047893D01*
X0101578Y0049093D01*
X0105728Y0049093D01*
X0105728Y0051262D01*
X0105619Y0051669D01*
X0105408Y0052034D01*
X0105110Y0052332D01*
X0104807Y0052507D01*
X0105528Y0053228D01*
X0105231Y0052212D02*
X0153532Y0052212D01*
X0152514Y0051013D02*
X0105728Y0051013D01*
X0105728Y0049815D02*
X0151315Y0049815D01*
X0150778Y0048616D02*
X0101578Y0048616D01*
X0101578Y0047418D02*
X0100378Y0047418D01*
X0100378Y0048616D02*
X0080578Y0048616D01*
X0080578Y0047418D02*
X0079378Y0047418D01*
X0079378Y0048616D02*
X0015478Y0048616D01*
X0015478Y0047418D02*
X0075229Y0047418D01*
X0075229Y0046219D02*
X0015478Y0046219D01*
X0015478Y0045021D02*
X0075508Y0045021D01*
X0079378Y0045021D02*
X0080578Y0045021D01*
X0080578Y0046219D02*
X0079378Y0046219D01*
X0084448Y0045021D02*
X0096508Y0045021D01*
X0096229Y0046219D02*
X0084728Y0046219D01*
X0084728Y0047418D02*
X0096229Y0047418D01*
X0096229Y0049815D02*
X0084728Y0049815D01*
X0084728Y0051013D02*
X0096229Y0051013D01*
X0096726Y0052212D02*
X0084231Y0052212D01*
X0084528Y0053410D02*
X0096429Y0053410D01*
X0096429Y0054609D02*
X0084528Y0054609D01*
X0084528Y0055807D02*
X0096429Y0055807D01*
X0096429Y0057006D02*
X0084528Y0057006D01*
X0084528Y0058204D02*
X0096429Y0058204D01*
X0096429Y0059403D02*
X0084528Y0059403D01*
X0082178Y0060601D02*
X0098778Y0060601D01*
X0098778Y0061800D02*
X0082178Y0061800D01*
X0082178Y0062998D02*
X0098778Y0062998D01*
X0098778Y0064197D02*
X0082178Y0064197D01*
X0082178Y0065395D02*
X0098778Y0065395D01*
X0098778Y0066594D02*
X0082178Y0066594D01*
X0083802Y0067792D02*
X0098778Y0067792D01*
X0097698Y0068991D02*
X0085259Y0068991D01*
X0081978Y0071367D02*
X0079978Y0069367D01*
X0079978Y0056367D01*
X0075429Y0055807D02*
X0015478Y0055807D01*
X0015478Y0054609D02*
X0075429Y0054609D01*
X0075429Y0053410D02*
X0015478Y0053410D01*
X0015478Y0052212D02*
X0075726Y0052212D01*
X0075229Y0051013D02*
X0015478Y0051013D01*
X0015478Y0049815D02*
X0075229Y0049815D01*
X0075429Y0057006D02*
X0015478Y0057006D01*
X0015478Y0058204D02*
X0075429Y0058204D01*
X0075429Y0059403D02*
X0015478Y0059403D01*
X0015478Y0060601D02*
X0077778Y0060601D01*
X0077778Y0061800D02*
X0015478Y0061800D01*
X0015478Y0062998D02*
X0020527Y0062998D01*
X0020603Y0062967D02*
X0022354Y0062967D01*
X0023971Y0063637D01*
X0025209Y0064874D01*
X0025878Y0066491D01*
X0025878Y0074242D01*
X0025209Y0075859D01*
X0023971Y0077097D01*
X0022354Y0077767D01*
X0020603Y0077767D01*
X0018986Y0077097D01*
X0017748Y0075859D01*
X0017078Y0074242D01*
X0017078Y0066491D01*
X0017748Y0064874D01*
X0018986Y0063637D01*
X0020603Y0062967D01*
X0022430Y0062998D02*
X0030527Y0062998D01*
X0032430Y0062998D02*
X0040527Y0062998D01*
X0042430Y0062998D02*
X0050527Y0062998D01*
X0052430Y0062998D02*
X0060037Y0062998D01*
X0061078Y0062998D02*
X0061878Y0062998D01*
X0062920Y0062998D02*
X0077778Y0062998D01*
X0077778Y0064197D02*
X0064814Y0064197D01*
X0065637Y0065395D02*
X0077778Y0065395D01*
X0077778Y0066594D02*
X0066013Y0066594D01*
X0066078Y0067792D02*
X0077778Y0067792D01*
X0077778Y0068991D02*
X0066078Y0068991D01*
X0066078Y0071388D02*
X0077978Y0071388D01*
X0078154Y0072586D02*
X0066078Y0072586D01*
X0066070Y0073785D02*
X0078740Y0073785D01*
X0080257Y0074983D02*
X0065790Y0074983D01*
X0065119Y0076182D02*
X0094182Y0076182D01*
X0095178Y0077380D02*
X0085603Y0077380D01*
X0086802Y0078579D02*
X0095178Y0078579D01*
X0095178Y0079777D02*
X0088000Y0079777D01*
X0088178Y0080976D02*
X0095178Y0080976D01*
X0095178Y0082174D02*
X0088178Y0082174D01*
X0088178Y0083373D02*
X0092465Y0083373D01*
X0093992Y0083373D02*
X0095178Y0083373D01*
X0092978Y0086367D02*
X0093228Y0086617D01*
X0087978Y0086617D01*
X0087878Y0086717D01*
X0087878Y0094167D01*
X0084779Y0094159D02*
X0084778Y0094159D01*
X0084778Y0094167D02*
X0084779Y0094167D01*
X0084778Y0094167D01*
X0084778Y0098667D01*
X0083568Y0098667D01*
X0083161Y0098558D01*
X0083003Y0098467D01*
X0077578Y0098467D01*
X0077578Y0104047D01*
X0077558Y0104067D01*
X0077578Y0104087D01*
X0077578Y0106667D01*
X0084527Y0106667D01*
X0085115Y0106078D01*
X0086324Y0105578D01*
X0087633Y0105578D01*
X0088842Y0106078D01*
X0089767Y0107004D01*
X0090267Y0108212D01*
X0090267Y0109521D01*
X0089767Y0110730D01*
X0088842Y0111655D01*
X0087633Y0112156D01*
X0086324Y0112156D01*
X0085115Y0111655D01*
X0084527Y0111067D01*
X0077578Y0111067D01*
X0077578Y0116647D01*
X0077558Y0116667D01*
X0077578Y0116687D01*
X0077578Y0122267D01*
X0083158Y0122267D01*
X0083178Y0122287D01*
X0083199Y0122267D01*
X0086103Y0122267D01*
X0086261Y0122176D01*
X0086668Y0122067D01*
X0087878Y0122067D01*
X0087878Y0126567D01*
X0087879Y0126567D01*
X0087879Y0122067D01*
X0089089Y0122067D01*
X0089496Y0122176D01*
X0089654Y0122267D01*
X0095178Y0122267D01*
X0095178Y0122178D01*
X0091978Y0118978D01*
X0091978Y0098667D01*
X0091079Y0098667D01*
X0091079Y0094167D01*
X0091078Y0094167D01*
X0091078Y0098667D01*
X0089868Y0098667D01*
X0089461Y0098558D01*
X0089303Y0098467D01*
X0086554Y0098467D01*
X0086396Y0098558D01*
X0085989Y0098667D01*
X0084779Y0098667D01*
X0084779Y0094167D01*
X0084779Y0089667D01*
X0085678Y0089667D01*
X0085678Y0088678D01*
X0083778Y0086778D01*
X0083778Y0084955D01*
X0083778Y0081778D01*
X0083067Y0081067D01*
X0064378Y0081067D01*
X0064378Y0083267D01*
X0060819Y0083267D01*
X0060819Y0084467D01*
X0064378Y0084467D01*
X0064378Y0087227D01*
X0064269Y0087634D01*
X0064058Y0087999D01*
X0063760Y0088297D01*
X0063395Y0088507D01*
X0062988Y0088616D01*
X0060819Y0088616D01*
X0060819Y0084467D01*
X0059619Y0084467D01*
X0059619Y0088616D01*
X0057449Y0088616D01*
X0057042Y0088507D01*
X0056677Y0088297D01*
X0056379Y0087999D01*
X0056348Y0087945D01*
X0055877Y0088416D01*
X0054651Y0088416D01*
X0054651Y0089213D01*
X0055091Y0089653D01*
X0055091Y0089667D01*
X0055917Y0089667D01*
X0057206Y0090955D01*
X0058866Y0092615D01*
X0058866Y0089653D01*
X0059686Y0088833D01*
X0063326Y0088833D01*
X0064146Y0089653D01*
X0064146Y0089667D01*
X0064527Y0089667D01*
X0065115Y0089078D01*
X0066324Y0088578D01*
X0067633Y0088578D01*
X0068842Y0089078D01*
X0069767Y0090004D01*
X0070267Y0091212D01*
X0070267Y0092521D01*
X0069767Y0093730D01*
X0068842Y0094655D01*
X0067633Y0095156D01*
X0066324Y0095156D01*
X0065115Y0094655D01*
X0064527Y0094067D01*
X0064146Y0094067D01*
X0064146Y0094080D01*
X0063326Y0094901D01*
X0061151Y0094901D01*
X0061583Y0095333D01*
X0063326Y0095333D01*
X0064146Y0096153D01*
X0064146Y0097167D01*
X0069599Y0097167D01*
X0069799Y0096967D01*
X0072368Y0096967D01*
X0071615Y0096655D01*
X0070690Y0095730D01*
X0070189Y0094521D01*
X0070189Y0093212D01*
X0070690Y0092004D01*
X0071615Y0091078D01*
X0072824Y0090578D01*
X0074133Y0090578D01*
X0075342Y0091078D01*
X0076078Y0091815D01*
X0076078Y0090687D01*
X0076899Y0089867D01*
X0083003Y0089867D01*
X0083161Y0089776D01*
X0083568Y0089667D01*
X0084778Y0089667D01*
X0084778Y0094167D01*
X0084778Y0095358D02*
X0084779Y0095358D01*
X0084778Y0096556D02*
X0084779Y0096556D01*
X0084778Y0097755D02*
X0084779Y0097755D01*
X0084778Y0092961D02*
X0084779Y0092961D01*
X0084778Y0091762D02*
X0084779Y0091762D01*
X0084778Y0090564D02*
X0084779Y0090564D01*
X0085678Y0089365D02*
X0069129Y0089365D01*
X0069999Y0090564D02*
X0076201Y0090564D01*
X0076078Y0091762D02*
X0076026Y0091762D01*
X0073778Y0094167D02*
X0078478Y0094167D01*
X0073778Y0094167D02*
X0073478Y0093867D01*
X0070931Y0091762D02*
X0070267Y0091762D01*
X0070294Y0092961D02*
X0070085Y0092961D01*
X0070189Y0094159D02*
X0069337Y0094159D01*
X0070536Y0095358D02*
X0063351Y0095358D01*
X0064067Y0094159D02*
X0064620Y0094159D01*
X0064146Y0096556D02*
X0071517Y0096556D01*
X0073278Y0099367D02*
X0062506Y0099367D01*
X0061506Y0098367D01*
X0055006Y0091867D01*
X0052451Y0091867D01*
X0052451Y0084154D01*
X0052738Y0083867D01*
X0049028Y0087845D02*
X0049028Y0088069D01*
X0048307Y0088789D01*
X0048610Y0088964D01*
X0048908Y0089262D01*
X0049119Y0089627D01*
X0049228Y0090034D01*
X0049228Y0092204D01*
X0045078Y0092204D01*
X0045078Y0093404D01*
X0049228Y0093404D01*
X0049228Y0095573D01*
X0049119Y0095980D01*
X0049011Y0096167D01*
X0049811Y0096167D01*
X0049811Y0096153D01*
X0050631Y0095333D01*
X0054271Y0095333D01*
X0055091Y0096153D01*
X0055091Y0100267D01*
X0058866Y0100267D01*
X0058866Y0098838D01*
X0054600Y0094572D01*
X0054271Y0094901D01*
X0050631Y0094901D01*
X0049811Y0094080D01*
X0049811Y0089653D01*
X0050251Y0089213D01*
X0050251Y0088416D01*
X0049599Y0088416D01*
X0049028Y0087845D01*
X0048930Y0088167D02*
X0049350Y0088167D01*
X0048968Y0089365D02*
X0050098Y0089365D01*
X0049811Y0090564D02*
X0049228Y0090564D01*
X0049228Y0091762D02*
X0049811Y0091762D01*
X0049811Y0092961D02*
X0045078Y0092961D01*
X0043878Y0092961D02*
X0033467Y0092961D01*
X0033467Y0094159D02*
X0039729Y0094159D01*
X0039729Y0093404D02*
X0043878Y0093404D01*
X0043878Y0092204D01*
X0039729Y0092204D01*
X0039729Y0090034D01*
X0039838Y0089627D01*
X0040049Y0089262D01*
X0040346Y0088964D01*
X0040650Y0088789D01*
X0039929Y0088069D01*
X0039929Y0081791D01*
X0040653Y0081067D01*
X0034390Y0081067D01*
X0033467Y0081989D01*
X0033467Y0095415D01*
X0034056Y0096004D01*
X0034556Y0097212D01*
X0034556Y0098521D01*
X0034056Y0099730D01*
X0033519Y0100267D01*
X0041727Y0100267D01*
X0041690Y0100230D01*
X0041189Y0099021D01*
X0041189Y0097712D01*
X0041500Y0096963D01*
X0041118Y0096963D01*
X0040711Y0096854D01*
X0040346Y0096643D01*
X0040049Y0096345D01*
X0039838Y0095980D01*
X0039729Y0095573D01*
X0039729Y0093404D01*
X0039729Y0091762D02*
X0033467Y0091762D01*
X0033467Y0090564D02*
X0039729Y0090564D01*
X0039989Y0089365D02*
X0033467Y0089365D01*
X0033467Y0088167D02*
X0040027Y0088167D01*
X0039929Y0086968D02*
X0033467Y0086968D01*
X0033467Y0085770D02*
X0039929Y0085770D01*
X0039929Y0084571D02*
X0033467Y0084571D01*
X0033467Y0083373D02*
X0039929Y0083373D01*
X0039929Y0082174D02*
X0033467Y0082174D01*
X0031267Y0081078D02*
X0033478Y0078867D01*
X0043978Y0078867D01*
X0044478Y0079367D01*
X0044478Y0084930D01*
X0043978Y0078867D02*
X0083978Y0078867D01*
X0085978Y0080867D01*
X0085978Y0085867D01*
X0086728Y0086617D01*
X0087978Y0086617D01*
X0090078Y0088817D02*
X0090078Y0089667D01*
X0091078Y0089667D01*
X0091078Y0094167D01*
X0091079Y0094167D01*
X0091079Y0089667D01*
X0091978Y0089667D01*
X0091978Y0089659D01*
X0091365Y0089405D01*
X0090777Y0088817D01*
X0090078Y0088817D01*
X0090078Y0089365D02*
X0091326Y0089365D01*
X0091078Y0090564D02*
X0091079Y0090564D01*
X0091078Y0091762D02*
X0091079Y0091762D01*
X0091078Y0092961D02*
X0091079Y0092961D01*
X0091078Y0094159D02*
X0091079Y0094159D01*
X0091078Y0095358D02*
X0091079Y0095358D01*
X0091078Y0096556D02*
X0091079Y0096556D01*
X0091078Y0097755D02*
X0091079Y0097755D01*
X0091978Y0098954D02*
X0077578Y0098954D01*
X0077578Y0100152D02*
X0091978Y0100152D01*
X0091978Y0101351D02*
X0077578Y0101351D01*
X0077578Y0102549D02*
X0091978Y0102549D01*
X0091978Y0103748D02*
X0077578Y0103748D01*
X0077578Y0104946D02*
X0091978Y0104946D01*
X0091978Y0106145D02*
X0088908Y0106145D01*
X0089907Y0107343D02*
X0091978Y0107343D01*
X0091978Y0108542D02*
X0090267Y0108542D01*
X0090177Y0109740D02*
X0091978Y0109740D01*
X0091978Y0110939D02*
X0089558Y0110939D01*
X0087677Y0112137D02*
X0091978Y0112137D01*
X0091978Y0113336D02*
X0077578Y0113336D01*
X0077578Y0114534D02*
X0091978Y0114534D01*
X0091978Y0115733D02*
X0077578Y0115733D01*
X0077578Y0116931D02*
X0091978Y0116931D01*
X0091978Y0118130D02*
X0077578Y0118130D01*
X0077578Y0119328D02*
X0092329Y0119328D01*
X0093527Y0120527D02*
X0077578Y0120527D01*
X0077578Y0121725D02*
X0094726Y0121725D01*
X0097378Y0121267D02*
X0094178Y0118067D01*
X0094178Y0094167D01*
X0094178Y0087567D01*
X0093228Y0086617D01*
X0094178Y0094167D02*
X0094478Y0094467D01*
X0097378Y0094167D02*
X0097378Y0076467D01*
X0097478Y0076367D01*
X0092478Y0071367D01*
X0081978Y0071367D01*
X0083700Y0074983D02*
X0092984Y0074983D01*
X0091785Y0073785D02*
X0085217Y0073785D01*
X0077778Y0070189D02*
X0061879Y0070189D01*
X0061078Y0070189D02*
X0055878Y0070189D01*
X0055878Y0068991D02*
X0056878Y0068991D01*
X0056878Y0067792D02*
X0055878Y0067792D01*
X0055878Y0066594D02*
X0056944Y0066594D01*
X0057320Y0065395D02*
X0055424Y0065395D01*
X0054531Y0064197D02*
X0058143Y0064197D01*
X0061078Y0064197D02*
X0061878Y0064197D01*
X0061878Y0065395D02*
X0061078Y0065395D01*
X0061078Y0066594D02*
X0061878Y0066594D01*
X0061878Y0067792D02*
X0061078Y0067792D01*
X0061078Y0068991D02*
X0061878Y0068991D01*
X0056878Y0071388D02*
X0055878Y0071388D01*
X0055878Y0072586D02*
X0056878Y0072586D01*
X0056887Y0073785D02*
X0055878Y0073785D01*
X0055571Y0074983D02*
X0057167Y0074983D01*
X0057838Y0076182D02*
X0054886Y0076182D01*
X0048071Y0076182D02*
X0044886Y0076182D01*
X0045571Y0074983D02*
X0047386Y0074983D01*
X0047078Y0073785D02*
X0045878Y0073785D01*
X0045878Y0072586D02*
X0047078Y0072586D01*
X0047078Y0071388D02*
X0045878Y0071388D01*
X0045878Y0070189D02*
X0047078Y0070189D01*
X0047078Y0068991D02*
X0045878Y0068991D01*
X0045878Y0067792D02*
X0047078Y0067792D01*
X0047078Y0066594D02*
X0045878Y0066594D01*
X0045424Y0065395D02*
X0047533Y0065395D01*
X0048426Y0064197D02*
X0044531Y0064197D01*
X0038426Y0064197D02*
X0034531Y0064197D01*
X0035424Y0065395D02*
X0037533Y0065395D01*
X0037078Y0066594D02*
X0035878Y0066594D01*
X0035878Y0067792D02*
X0037078Y0067792D01*
X0037078Y0068991D02*
X0035878Y0068991D01*
X0035878Y0070189D02*
X0037078Y0070189D01*
X0037078Y0071388D02*
X0035878Y0071388D01*
X0035878Y0072586D02*
X0037078Y0072586D01*
X0037078Y0073785D02*
X0035878Y0073785D01*
X0035571Y0074983D02*
X0037386Y0074983D01*
X0038071Y0076182D02*
X0034886Y0076182D01*
X0030655Y0078579D02*
X0015478Y0078579D01*
X0015478Y0079777D02*
X0029456Y0079777D01*
X0029067Y0080976D02*
X0015478Y0080976D01*
X0015478Y0082174D02*
X0029067Y0082174D01*
X0029067Y0083373D02*
X0015478Y0083373D01*
X0015478Y0084571D02*
X0029067Y0084571D01*
X0029067Y0085770D02*
X0015478Y0085770D01*
X0015478Y0086968D02*
X0029067Y0086968D01*
X0029067Y0088167D02*
X0015478Y0088167D01*
X0015478Y0089365D02*
X0029067Y0089365D01*
X0029067Y0090564D02*
X0015478Y0090564D01*
X0015478Y0091762D02*
X0029067Y0091762D01*
X0029067Y0092961D02*
X0026669Y0092961D01*
X0027984Y0094159D02*
X0029067Y0094159D01*
X0029067Y0095358D02*
X0028667Y0095358D01*
X0031267Y0097867D02*
X0031267Y0081078D01*
X0029671Y0077380D02*
X0023286Y0077380D01*
X0024886Y0076182D02*
X0028071Y0076182D01*
X0027386Y0074983D02*
X0025571Y0074983D01*
X0025878Y0073785D02*
X0027078Y0073785D01*
X0027078Y0072586D02*
X0025878Y0072586D01*
X0025878Y0071388D02*
X0027078Y0071388D01*
X0027078Y0070189D02*
X0025878Y0070189D01*
X0025878Y0068991D02*
X0027078Y0068991D01*
X0027078Y0067792D02*
X0025878Y0067792D01*
X0025878Y0066594D02*
X0027078Y0066594D01*
X0027533Y0065395D02*
X0025424Y0065395D01*
X0024531Y0064197D02*
X0028426Y0064197D01*
X0018426Y0064197D02*
X0015478Y0064197D01*
X0015478Y0065395D02*
X0017533Y0065395D01*
X0017078Y0066594D02*
X0015478Y0066594D01*
X0015478Y0067792D02*
X0017078Y0067792D01*
X0017078Y0068991D02*
X0015478Y0068991D01*
X0015478Y0070189D02*
X0017078Y0070189D01*
X0017078Y0071388D02*
X0015478Y0071388D01*
X0015478Y0072586D02*
X0017078Y0072586D01*
X0017078Y0073785D02*
X0015478Y0073785D01*
X0015478Y0074983D02*
X0017386Y0074983D01*
X0018071Y0076182D02*
X0015478Y0076182D01*
X0015478Y0077380D02*
X0019671Y0077380D01*
X0021288Y0092961D02*
X0015478Y0092961D01*
X0015478Y0094159D02*
X0019973Y0094159D01*
X0019290Y0095358D02*
X0015478Y0095358D01*
X0015478Y0096556D02*
X0018878Y0096556D01*
X0018878Y0097755D02*
X0015478Y0097755D01*
X0015478Y0098954D02*
X0019116Y0098954D01*
X0019612Y0100152D02*
X0015478Y0100152D01*
X0015478Y0101351D02*
X0020750Y0101351D01*
X0022282Y0102549D02*
X0015478Y0102549D01*
X0015478Y0103748D02*
X0020385Y0103748D01*
X0019461Y0104946D02*
X0015478Y0104946D01*
X0015478Y0106145D02*
X0018964Y0106145D01*
X0018878Y0107343D02*
X0015478Y0107343D01*
X0015478Y0108542D02*
X0018945Y0108542D01*
X0019441Y0109740D02*
X0015478Y0109740D01*
X0015478Y0110939D02*
X0020338Y0110939D01*
X0022169Y0112137D02*
X0015478Y0112137D01*
X0015478Y0113336D02*
X0020797Y0113336D01*
X0019632Y0114534D02*
X0015478Y0114534D01*
X0015478Y0115733D02*
X0019135Y0115733D01*
X0018878Y0116931D02*
X0015478Y0116931D01*
X0015478Y0118130D02*
X0018878Y0118130D01*
X0019271Y0119328D02*
X0015478Y0119328D01*
X0015478Y0120527D02*
X0019926Y0120527D01*
X0021174Y0121725D02*
X0015478Y0121725D01*
X0015478Y0122924D02*
X0021378Y0122924D01*
X0020010Y0124122D02*
X0015478Y0124122D01*
X0015478Y0125321D02*
X0019306Y0125321D01*
X0018878Y0126519D02*
X0015478Y0126519D01*
X0015478Y0127718D02*
X0018878Y0127718D01*
X0019100Y0128916D02*
X0015478Y0128916D01*
X0015478Y0130115D02*
X0019597Y0130115D01*
X0020713Y0131313D02*
X0015478Y0131313D01*
X0015478Y0132512D02*
X0022372Y0132512D01*
X0020422Y0133710D02*
X0015478Y0133710D01*
X0015478Y0134909D02*
X0019476Y0134909D01*
X0018980Y0136107D02*
X0015478Y0136107D01*
X0015478Y0137306D02*
X0018878Y0137306D01*
X0018930Y0138504D02*
X0015478Y0138504D01*
X0015478Y0139703D02*
X0019426Y0139703D01*
X0020301Y0140901D02*
X0015478Y0140901D01*
X0015478Y0142100D02*
X0022079Y0142100D01*
X0020561Y0143298D02*
X0015478Y0143298D01*
X0015478Y0144497D02*
X0019512Y0144497D01*
X0018949Y0145695D02*
X0015478Y0145695D01*
X0015478Y0146894D02*
X0018687Y0146894D01*
X0018678Y0147767D02*
X0023578Y0147767D01*
X0023578Y0152667D01*
X0023561Y0152667D01*
X0022737Y0152536D01*
X0021944Y0152278D01*
X0021201Y0151900D01*
X0020526Y0151409D01*
X0019936Y0150819D01*
X0019445Y0150144D01*
X0019067Y0149401D01*
X0018809Y0148608D01*
X0018678Y0147784D01*
X0018678Y0147767D01*
X0018727Y0148092D02*
X0015478Y0148092D01*
X0015478Y0149291D02*
X0019031Y0149291D01*
X0019696Y0150490D02*
X0015478Y0150490D01*
X0015478Y0151688D02*
X0020909Y0151688D01*
X0023578Y0151688D02*
X0024378Y0151688D01*
X0024378Y0150490D02*
X0023578Y0150490D01*
X0023578Y0149291D02*
X0024378Y0149291D01*
X0024378Y0148092D02*
X0023578Y0148092D01*
X0027048Y0151688D02*
X0071278Y0151688D01*
X0071278Y0150490D02*
X0065519Y0150490D01*
X0065244Y0150630D02*
X0064556Y0150853D01*
X0063878Y0150961D01*
X0063878Y0143767D01*
X0063078Y0143767D01*
X0063078Y0142967D01*
X0058878Y0142967D01*
X0058878Y0140005D01*
X0058992Y0139289D01*
X0059215Y0138601D01*
X0059544Y0137956D01*
X0059970Y0137370D01*
X0060482Y0136858D01*
X0061068Y0136432D01*
X0061713Y0136104D01*
X0062401Y0135880D01*
X0063078Y0135773D01*
X0063078Y0142967D01*
X0063878Y0142967D01*
X0063878Y0135773D01*
X0064556Y0135880D01*
X0065244Y0136104D01*
X0065889Y0136432D01*
X0066475Y0136858D01*
X0066987Y0137370D01*
X0067413Y0137956D01*
X0067741Y0138601D01*
X0067965Y0139289D01*
X0068078Y0140005D01*
X0068078Y0142967D01*
X0063879Y0142967D01*
X0063879Y0143767D01*
X0068078Y0143767D01*
X0068078Y0146729D01*
X0067965Y0147444D01*
X0067741Y0148132D01*
X0067413Y0148778D01*
X0066987Y0149363D01*
X0066475Y0149875D01*
X0065889Y0150301D01*
X0065244Y0150630D01*
X0063878Y0150490D02*
X0063078Y0150490D01*
X0063078Y0150961D02*
X0062401Y0150853D01*
X0061713Y0150630D01*
X0061068Y0150301D01*
X0060482Y0149875D01*
X0059970Y0149363D01*
X0059544Y0148778D01*
X0059215Y0148132D01*
X0058992Y0147444D01*
X0058878Y0146729D01*
X0058878Y0143767D01*
X0063078Y0143767D01*
X0063078Y0150961D01*
X0063078Y0149291D02*
X0063878Y0149291D01*
X0063878Y0148092D02*
X0063078Y0148092D01*
X0063078Y0146894D02*
X0063878Y0146894D01*
X0063878Y0145695D02*
X0063078Y0145695D01*
X0063078Y0144497D02*
X0063878Y0144497D01*
X0063879Y0143298D02*
X0069078Y0143298D01*
X0069078Y0142100D02*
X0068078Y0142100D01*
X0068078Y0140901D02*
X0069078Y0140901D01*
X0069078Y0139703D02*
X0068031Y0139703D01*
X0067692Y0138504D02*
X0069487Y0138504D01*
X0070317Y0137306D02*
X0066923Y0137306D01*
X0065252Y0136107D02*
X0071278Y0136107D01*
X0071278Y0134909D02*
X0028481Y0134909D01*
X0028977Y0136107D02*
X0061705Y0136107D01*
X0063078Y0136107D02*
X0063878Y0136107D01*
X0063878Y0137306D02*
X0063078Y0137306D01*
X0063078Y0138504D02*
X0063878Y0138504D01*
X0063878Y0139703D02*
X0063078Y0139703D01*
X0063078Y0140901D02*
X0063878Y0140901D01*
X0063878Y0142100D02*
X0063078Y0142100D01*
X0063078Y0143298D02*
X0027396Y0143298D01*
X0028445Y0144497D02*
X0058878Y0144497D01*
X0058878Y0145695D02*
X0029008Y0145695D01*
X0029270Y0146894D02*
X0058905Y0146894D01*
X0059202Y0148092D02*
X0029230Y0148092D01*
X0028926Y0149291D02*
X0059917Y0149291D01*
X0061438Y0150490D02*
X0028261Y0150490D01*
X0025878Y0142100D02*
X0058878Y0142100D01*
X0058878Y0140901D02*
X0027656Y0140901D01*
X0028531Y0139703D02*
X0058926Y0139703D01*
X0059265Y0138504D02*
X0029027Y0138504D01*
X0029078Y0137306D02*
X0060034Y0137306D01*
X0068078Y0144497D02*
X0069078Y0144497D01*
X0069078Y0145695D02*
X0068078Y0145695D01*
X0068052Y0146894D02*
X0069078Y0146894D01*
X0069431Y0148092D02*
X0067754Y0148092D01*
X0067040Y0149291D02*
X0070180Y0149291D01*
X0071278Y0152887D02*
X0015478Y0152887D01*
X0015478Y0154085D02*
X0071278Y0154085D01*
X0071278Y0155284D02*
X0015478Y0155284D01*
X0015478Y0156482D02*
X0071278Y0156482D01*
X0071278Y0157681D02*
X0015478Y0157681D01*
X0015478Y0158879D02*
X0071278Y0158879D01*
X0071278Y0160078D02*
X0015478Y0160078D01*
X0015478Y0161276D02*
X0071278Y0161276D01*
X0071278Y0162475D02*
X0015478Y0162475D01*
X0015478Y0163673D02*
X0071278Y0163673D01*
X0071278Y0164872D02*
X0015478Y0164872D01*
X0015478Y0166070D02*
X0072071Y0166070D01*
X0073269Y0167269D02*
X0025668Y0167269D01*
X0026967Y0168467D02*
X0074468Y0168467D01*
X0076478Y0167367D02*
X0073478Y0164367D01*
X0073478Y0143367D01*
X0073478Y0134367D01*
X0074978Y0132867D01*
X0095478Y0132867D01*
X0097378Y0130967D01*
X0097378Y0126567D01*
X0097378Y0121267D01*
X0100678Y0126367D02*
X0152978Y0126367D01*
X0155478Y0128867D01*
X0155478Y0136867D01*
X0158478Y0139867D01*
X0180478Y0139867D01*
X0183478Y0136867D01*
X0183478Y0126867D01*
X0180978Y0124367D01*
X0176478Y0124367D01*
X0179851Y0120527D02*
X0192478Y0120527D01*
X0192478Y0121725D02*
X0180905Y0121725D01*
X0182647Y0122924D02*
X0192478Y0122924D01*
X0192478Y0124122D02*
X0183845Y0124122D01*
X0184390Y0124667D02*
X0184390Y0124667D01*
X0185044Y0125321D02*
X0192478Y0125321D01*
X0192478Y0126519D02*
X0185678Y0126519D01*
X0185678Y0127718D02*
X0192478Y0127718D01*
X0192478Y0128916D02*
X0185678Y0128916D01*
X0185678Y0130115D02*
X0192478Y0130115D01*
X0192478Y0131313D02*
X0185678Y0131313D01*
X0185678Y0132512D02*
X0192478Y0132512D01*
X0192478Y0133710D02*
X0185678Y0133710D01*
X0185678Y0134909D02*
X0192478Y0134909D01*
X0192478Y0136107D02*
X0185678Y0136107D01*
X0185678Y0137306D02*
X0192478Y0137306D01*
X0192478Y0138504D02*
X0184952Y0138504D01*
X0183753Y0139703D02*
X0192478Y0139703D01*
X0192478Y0140901D02*
X0182555Y0140901D01*
X0192478Y0142100D02*
X0127878Y0142100D01*
X0127878Y0143298D02*
X0192478Y0143298D01*
X0192478Y0144497D02*
X0127878Y0144497D01*
X0127878Y0145695D02*
X0192478Y0145695D01*
X0192478Y0146894D02*
X0127878Y0146894D01*
X0127526Y0148092D02*
X0132601Y0148092D01*
X0134478Y0150867D02*
X0095478Y0150867D01*
X0093478Y0148867D01*
X0093478Y0143367D01*
X0089078Y0143298D02*
X0087878Y0143298D01*
X0087878Y0142100D02*
X0089078Y0142100D01*
X0089078Y0140901D02*
X0087878Y0140901D01*
X0087878Y0139703D02*
X0089078Y0139703D01*
X0089487Y0138504D02*
X0087470Y0138504D01*
X0085978Y0135367D02*
X0083478Y0137867D01*
X0083478Y0143367D01*
X0079078Y0143298D02*
X0077878Y0143298D01*
X0077878Y0142100D02*
X0079078Y0142100D01*
X0079078Y0140901D02*
X0077878Y0140901D01*
X0077878Y0139703D02*
X0079078Y0139703D01*
X0079487Y0138504D02*
X0077470Y0138504D01*
X0076640Y0137306D02*
X0080317Y0137306D01*
X0082126Y0136107D02*
X0075678Y0136107D01*
X0072222Y0132512D02*
X0025585Y0132512D01*
X0027244Y0131313D02*
X0073421Y0131313D01*
X0076147Y0130115D02*
X0028360Y0130115D01*
X0028857Y0128916D02*
X0076078Y0128916D01*
X0076078Y0127718D02*
X0029078Y0127718D01*
X0029078Y0126519D02*
X0076078Y0126519D01*
X0076078Y0125321D02*
X0028651Y0125321D01*
X0027947Y0124122D02*
X0076078Y0124122D01*
X0073189Y0118356D02*
X0073278Y0118267D01*
X0073189Y0118356D02*
X0060478Y0118356D01*
X0057998Y0120527D02*
X0036022Y0120527D01*
X0034091Y0120527D02*
X0028031Y0120527D01*
X0028686Y0119328D02*
X0032367Y0119328D01*
X0031813Y0118130D02*
X0029078Y0118130D01*
X0029078Y0116931D02*
X0031767Y0116931D01*
X0032173Y0115733D02*
X0028822Y0115733D01*
X0029922Y0114534D02*
X0033300Y0114534D01*
X0031121Y0113336D02*
X0035582Y0113336D01*
X0035582Y0112137D02*
X0031678Y0112137D01*
X0031678Y0110939D02*
X0035582Y0110939D01*
X0035582Y0109740D02*
X0031678Y0109740D01*
X0031678Y0108542D02*
X0035582Y0108542D01*
X0039541Y0110867D02*
X0039541Y0115804D01*
X0037978Y0117367D01*
X0035056Y0117367D01*
X0039128Y0119328D02*
X0057321Y0119328D01*
X0054090Y0118130D02*
X0040327Y0118130D01*
X0041525Y0116931D02*
X0053067Y0116931D01*
X0052689Y0115733D02*
X0041741Y0115733D01*
X0047415Y0110867D02*
X0049515Y0108767D01*
X0073278Y0108767D01*
X0073178Y0108867D01*
X0073278Y0108767D02*
X0072478Y0108767D01*
X0072578Y0108867D01*
X0086978Y0108867D01*
X0085049Y0106145D02*
X0077578Y0106145D01*
X0073278Y0105667D02*
X0072978Y0105367D01*
X0031478Y0105367D01*
X0029478Y0107367D01*
X0029478Y0111867D01*
X0023978Y0117367D01*
X0026783Y0121725D02*
X0068978Y0121725D01*
X0068978Y0122924D02*
X0026579Y0122924D01*
X0027535Y0133710D02*
X0071278Y0133710D01*
X0077878Y0144497D02*
X0079078Y0144497D01*
X0079078Y0145695D02*
X0077878Y0145695D01*
X0077878Y0146894D02*
X0079078Y0146894D01*
X0079431Y0148092D02*
X0077526Y0148092D01*
X0076777Y0149291D02*
X0080180Y0149291D01*
X0081934Y0150490D02*
X0075678Y0150490D01*
X0075678Y0151688D02*
X0093189Y0151688D01*
X0093278Y0151778D02*
X0093278Y0151778D01*
X0094387Y0152887D02*
X0085504Y0152887D01*
X0085384Y0152767D02*
X0088078Y0155461D01*
X0088078Y0156967D01*
X0083879Y0156967D01*
X0083879Y0157767D01*
X0088078Y0157767D01*
X0088078Y0159272D01*
X0085384Y0161967D01*
X0083878Y0161967D01*
X0083878Y0157767D01*
X0083078Y0157767D01*
X0083078Y0156967D01*
X0078878Y0156967D01*
X0078878Y0155461D01*
X0081573Y0152767D01*
X0083078Y0152767D01*
X0083078Y0156967D01*
X0083878Y0156967D01*
X0083878Y0152767D01*
X0085384Y0152767D01*
X0083878Y0152887D02*
X0083078Y0152887D01*
X0083078Y0154085D02*
X0083878Y0154085D01*
X0083878Y0155284D02*
X0083078Y0155284D01*
X0083078Y0156482D02*
X0083878Y0156482D01*
X0083879Y0157681D02*
X0089078Y0157681D01*
X0089078Y0158879D02*
X0088078Y0158879D01*
X0087273Y0160078D02*
X0089967Y0160078D01*
X0091165Y0161276D02*
X0086074Y0161276D01*
X0083878Y0161276D02*
X0083078Y0161276D01*
X0083078Y0161967D02*
X0081573Y0161967D01*
X0078878Y0159272D01*
X0078878Y0157767D01*
X0083078Y0157767D01*
X0083078Y0161967D01*
X0083078Y0160078D02*
X0083878Y0160078D01*
X0083878Y0158879D02*
X0083078Y0158879D01*
X0083078Y0157681D02*
X0075678Y0157681D01*
X0075678Y0158879D02*
X0078878Y0158879D01*
X0079684Y0160078D02*
X0075678Y0160078D01*
X0075678Y0161276D02*
X0080883Y0161276D01*
X0080949Y0163673D02*
X0075896Y0163673D01*
X0075678Y0162475D02*
X0192478Y0162475D01*
X0192478Y0163673D02*
X0116007Y0163673D01*
X0115301Y0162967D02*
X0117878Y0165544D01*
X0117878Y0169189D01*
X0116901Y0170167D01*
X0132027Y0170167D01*
X0132615Y0169578D01*
X0133824Y0169078D01*
X0135133Y0169078D01*
X0136342Y0169578D01*
X0137267Y0170504D01*
X0137767Y0171712D01*
X0137767Y0172308D01*
X0138324Y0172078D01*
X0139633Y0172078D01*
X0140842Y0172578D01*
X0141767Y0173504D01*
X0142267Y0174712D01*
X0142267Y0176021D01*
X0141767Y0177230D01*
X0140842Y0178155D01*
X0139633Y0178656D01*
X0138324Y0178656D01*
X0137115Y0178155D01*
X0137027Y0178067D01*
X0095567Y0178067D01*
X0094278Y0176778D01*
X0091278Y0173778D01*
X0091278Y0171389D01*
X0089078Y0169189D01*
X0089078Y0165544D01*
X0091656Y0162967D01*
X0095301Y0162967D01*
X0097878Y0165544D01*
X0097878Y0169189D01*
X0095678Y0171389D01*
X0095678Y0171955D01*
X0097390Y0173667D01*
X0103667Y0173667D01*
X0103278Y0173278D01*
X0101767Y0171767D01*
X0101656Y0171767D01*
X0099078Y0169189D01*
X0099078Y0165544D01*
X0101656Y0162967D01*
X0105301Y0162967D01*
X0107878Y0165544D01*
X0107878Y0169189D01*
X0106901Y0170167D01*
X0110056Y0170167D01*
X0109078Y0169189D01*
X0109078Y0165544D01*
X0111656Y0162967D01*
X0115301Y0162967D01*
X0115792Y0161276D02*
X0192478Y0161276D01*
X0192478Y0160078D02*
X0178419Y0160078D01*
X0179412Y0158879D02*
X0192478Y0158879D01*
X0192478Y0157681D02*
X0179767Y0157681D01*
X0179672Y0156482D02*
X0192478Y0156482D01*
X0192478Y0155284D02*
X0179047Y0155284D01*
X0177150Y0154085D02*
X0192478Y0154085D01*
X0192478Y0152887D02*
X0137110Y0152887D01*
X0137698Y0151688D02*
X0192478Y0151688D01*
X0192478Y0150490D02*
X0137767Y0150490D01*
X0137386Y0149291D02*
X0192478Y0149291D01*
X0192478Y0148092D02*
X0136356Y0148092D01*
X0135303Y0154085D02*
X0175806Y0154085D01*
X0176478Y0157367D02*
X0129478Y0157367D01*
X0113478Y0157367D01*
X0110538Y0154085D02*
X0106419Y0154085D01*
X0107618Y0155284D02*
X0109339Y0155284D01*
X0109078Y0156482D02*
X0107878Y0156482D01*
X0107878Y0157681D02*
X0109078Y0157681D01*
X0109078Y0158879D02*
X0107878Y0158879D01*
X0106990Y0160078D02*
X0109967Y0160078D01*
X0111165Y0161276D02*
X0105792Y0161276D01*
X0106007Y0163673D02*
X0110949Y0163673D01*
X0109751Y0164872D02*
X0107206Y0164872D01*
X0107878Y0166070D02*
X0109078Y0166070D01*
X0109078Y0167269D02*
X0107878Y0167269D01*
X0107878Y0168467D02*
X0109078Y0168467D01*
X0109555Y0169666D02*
X0107402Y0169666D01*
X0105478Y0172367D02*
X0134478Y0172367D01*
X0137416Y0170864D02*
X0179389Y0170864D01*
X0179885Y0169666D02*
X0136429Y0169666D01*
X0137767Y0172063D02*
X0178892Y0172063D01*
X0178779Y0173261D02*
X0141524Y0173261D01*
X0142163Y0174460D02*
X0178779Y0174460D01*
X0178887Y0175658D02*
X0142267Y0175658D01*
X0141921Y0176857D02*
X0179383Y0176857D01*
X0179880Y0178055D02*
X0140941Y0178055D01*
X0138478Y0175867D02*
X0138978Y0175367D01*
X0138478Y0175867D02*
X0096478Y0175867D01*
X0093478Y0172867D01*
X0093478Y0167367D01*
X0089078Y0167269D02*
X0087878Y0167269D01*
X0087878Y0168467D02*
X0089078Y0168467D01*
X0089555Y0169666D02*
X0087402Y0169666D01*
X0086203Y0170864D02*
X0090753Y0170864D01*
X0091278Y0172063D02*
X0029065Y0172063D01*
X0029178Y0173261D02*
X0091278Y0173261D01*
X0091960Y0174460D02*
X0029178Y0174460D01*
X0029070Y0175658D02*
X0093159Y0175658D01*
X0094357Y0176857D02*
X0028573Y0176857D01*
X0028077Y0178055D02*
X0095556Y0178055D01*
X0096984Y0173261D02*
X0103262Y0173261D01*
X0102063Y0172063D02*
X0095786Y0172063D01*
X0096203Y0170864D02*
X0100753Y0170864D01*
X0099555Y0169666D02*
X0097402Y0169666D01*
X0097878Y0168467D02*
X0099078Y0168467D01*
X0099078Y0167269D02*
X0097878Y0167269D01*
X0097878Y0166070D02*
X0099078Y0166070D01*
X0099751Y0164872D02*
X0097206Y0164872D01*
X0096007Y0163673D02*
X0100949Y0163673D01*
X0101165Y0161276D02*
X0095792Y0161276D01*
X0096990Y0160078D02*
X0099967Y0160078D01*
X0099078Y0158879D02*
X0097878Y0158879D01*
X0097878Y0157681D02*
X0099078Y0157681D01*
X0099078Y0156482D02*
X0097878Y0156482D01*
X0097618Y0155284D02*
X0099339Y0155284D01*
X0100538Y0154085D02*
X0096419Y0154085D01*
X0091934Y0150490D02*
X0085023Y0150490D01*
X0086777Y0149291D02*
X0090180Y0149291D01*
X0089431Y0148092D02*
X0087526Y0148092D01*
X0087878Y0146894D02*
X0089078Y0146894D01*
X0089078Y0145695D02*
X0087878Y0145695D01*
X0087878Y0144497D02*
X0089078Y0144497D01*
X0085978Y0135367D02*
X0098478Y0135367D01*
X0100478Y0133367D01*
X0100478Y0126567D01*
X0100678Y0126367D01*
X0102878Y0128916D02*
X0152417Y0128916D01*
X0153278Y0130115D02*
X0102810Y0130115D01*
X0102678Y0131313D02*
X0153278Y0131313D01*
X0153278Y0132512D02*
X0119064Y0132512D01*
X0119848Y0133710D02*
X0153278Y0133710D01*
X0153278Y0134909D02*
X0120056Y0134909D01*
X0119813Y0136107D02*
X0122264Y0136107D01*
X0120317Y0137306D02*
X0118980Y0137306D01*
X0119487Y0138504D02*
X0117470Y0138504D01*
X0117878Y0139703D02*
X0119078Y0139703D01*
X0119078Y0140901D02*
X0117878Y0140901D01*
X0117878Y0142100D02*
X0119078Y0142100D01*
X0119078Y0143298D02*
X0117878Y0143298D01*
X0117878Y0144497D02*
X0119078Y0144497D01*
X0119078Y0145695D02*
X0117878Y0145695D01*
X0117878Y0146894D02*
X0119078Y0146894D01*
X0119431Y0148092D02*
X0117526Y0148092D01*
X0116419Y0154085D02*
X0128806Y0154085D01*
X0130150Y0154085D02*
X0133654Y0154085D01*
X0131419Y0160078D02*
X0174538Y0160078D01*
X0182288Y0167269D02*
X0117878Y0167269D01*
X0117878Y0168467D02*
X0180990Y0168467D01*
X0190668Y0167269D02*
X0192478Y0167269D01*
X0192478Y0168467D02*
X0191967Y0168467D01*
X0192478Y0166070D02*
X0117878Y0166070D01*
X0117206Y0164872D02*
X0192478Y0164872D01*
X0180977Y0179254D02*
X0026980Y0179254D01*
X0028568Y0170864D02*
X0080753Y0170864D01*
X0079555Y0169666D02*
X0028072Y0169666D01*
X0017288Y0167269D02*
X0015478Y0167269D01*
X0015478Y0168467D02*
X0015990Y0168467D01*
X0055978Y0115367D02*
X0056278Y0115067D01*
X0073278Y0115067D01*
X0073278Y0111967D02*
X0052752Y0111967D01*
X0052663Y0112056D01*
X0055091Y0100152D02*
X0058866Y0100152D01*
X0058866Y0098954D02*
X0055091Y0098954D01*
X0055091Y0097755D02*
X0057783Y0097755D01*
X0056585Y0096556D02*
X0055091Y0096556D01*
X0055386Y0095358D02*
X0054296Y0095358D01*
X0052451Y0098367D02*
X0044478Y0098367D01*
X0041658Y0100152D02*
X0033633Y0100152D01*
X0034377Y0098954D02*
X0041189Y0098954D01*
X0041189Y0097755D02*
X0034556Y0097755D01*
X0034285Y0096556D02*
X0040260Y0096556D01*
X0039729Y0095358D02*
X0033467Y0095358D01*
X0031704Y0097430D02*
X0031267Y0097867D01*
X0028878Y0102467D02*
X0073278Y0102467D01*
X0066978Y0091867D02*
X0061506Y0091867D01*
X0058866Y0091762D02*
X0058013Y0091762D01*
X0058866Y0090564D02*
X0056815Y0090564D01*
X0054804Y0089365D02*
X0059153Y0089365D01*
X0059619Y0088167D02*
X0060819Y0088167D01*
X0060819Y0086968D02*
X0059619Y0086968D01*
X0059619Y0085770D02*
X0060819Y0085770D01*
X0060819Y0084571D02*
X0059619Y0084571D01*
X0060819Y0083373D02*
X0083778Y0083373D01*
X0083778Y0084571D02*
X0064378Y0084571D01*
X0064378Y0085770D02*
X0083778Y0085770D01*
X0083969Y0086968D02*
X0064378Y0086968D01*
X0063890Y0088167D02*
X0085167Y0088167D01*
X0083778Y0082174D02*
X0064378Y0082174D01*
X0064828Y0089365D02*
X0063859Y0089365D01*
X0056547Y0088167D02*
X0056127Y0088167D01*
X0049890Y0094159D02*
X0049228Y0094159D01*
X0049228Y0095358D02*
X0050606Y0095358D01*
X0028878Y0102467D02*
X0023978Y0107367D01*
X0075678Y0152887D02*
X0081453Y0152887D01*
X0080255Y0154085D02*
X0075678Y0154085D01*
X0075678Y0155284D02*
X0079056Y0155284D01*
X0078878Y0156482D02*
X0075678Y0156482D01*
X0077095Y0164872D02*
X0079751Y0164872D01*
X0076478Y0167367D02*
X0083478Y0167367D01*
X0086007Y0163673D02*
X0090949Y0163673D01*
X0089751Y0164872D02*
X0087206Y0164872D01*
X0087878Y0166070D02*
X0089078Y0166070D01*
X0089078Y0156482D02*
X0088078Y0156482D01*
X0087901Y0155284D02*
X0089339Y0155284D01*
X0090538Y0154085D02*
X0086702Y0154085D01*
X0103478Y0143367D02*
X0103478Y0136367D01*
X0104978Y0134867D01*
X0116767Y0134867D01*
X0114471Y0132512D02*
X0102678Y0132512D01*
X0102678Y0133710D02*
X0103023Y0133710D01*
X0105678Y0121367D02*
X0129478Y0121367D01*
X0129478Y0121867D01*
X0131830Y0124167D02*
X0153890Y0124167D01*
X0155178Y0125455D01*
X0156390Y0126667D01*
X0157678Y0127955D01*
X0157678Y0135955D01*
X0159390Y0137667D01*
X0162325Y0137667D01*
X0161945Y0137144D01*
X0161567Y0136401D01*
X0161309Y0135608D01*
X0161178Y0134784D01*
X0161178Y0134767D01*
X0166078Y0134767D01*
X0166078Y0133967D01*
X0161178Y0133967D01*
X0161178Y0133950D01*
X0161309Y0133126D01*
X0161567Y0132332D01*
X0161945Y0131589D01*
X0162436Y0130914D01*
X0163026Y0130324D01*
X0163701Y0129834D01*
X0164444Y0129455D01*
X0164716Y0129367D01*
X0164444Y0129278D01*
X0163701Y0128900D01*
X0163026Y0128409D01*
X0162436Y0127819D01*
X0161945Y0127144D01*
X0161567Y0126401D01*
X0161309Y0125608D01*
X0161178Y0124784D01*
X0161178Y0124767D01*
X0166078Y0124767D01*
X0166078Y0133967D01*
X0166878Y0133967D01*
X0166878Y0129667D01*
X0166878Y0124767D01*
X0166078Y0124767D01*
X0166078Y0123967D01*
X0161178Y0123967D01*
X0161178Y0123950D01*
X0161309Y0123126D01*
X0161567Y0122332D01*
X0161945Y0121589D01*
X0162436Y0120914D01*
X0163026Y0120324D01*
X0163701Y0119834D01*
X0164444Y0119455D01*
X0164716Y0119367D01*
X0164444Y0119278D01*
X0163701Y0118900D01*
X0163026Y0118409D01*
X0162436Y0117819D01*
X0161945Y0117144D01*
X0161567Y0116401D01*
X0161309Y0115608D01*
X0161178Y0114784D01*
X0161178Y0114767D01*
X0166078Y0114767D01*
X0166078Y0123967D01*
X0166878Y0123967D01*
X0166878Y0119067D01*
X0166878Y0114767D01*
X0166078Y0114767D01*
X0166078Y0113967D01*
X0161178Y0113967D01*
X0161178Y0113950D01*
X0161309Y0113126D01*
X0161567Y0112332D01*
X0161945Y0111589D01*
X0162436Y0110914D01*
X0163026Y0110324D01*
X0163701Y0109834D01*
X0164444Y0109455D01*
X0164716Y0109367D01*
X0164444Y0109278D01*
X0163701Y0108900D01*
X0163026Y0108409D01*
X0162436Y0107819D01*
X0161945Y0107144D01*
X0161567Y0106401D01*
X0161309Y0105608D01*
X0161178Y0104784D01*
X0161178Y0104767D01*
X0166078Y0104767D01*
X0166078Y0113967D01*
X0166878Y0113967D01*
X0166878Y0109067D01*
X0166878Y0104767D01*
X0166078Y0104767D01*
X0166078Y0103967D01*
X0161178Y0103967D01*
X0161178Y0103950D01*
X0161309Y0103126D01*
X0161567Y0102332D01*
X0161945Y0101589D01*
X0162436Y0100914D01*
X0163026Y0100324D01*
X0163701Y0099834D01*
X0164444Y0099455D01*
X0165000Y0099274D01*
X0163590Y0098690D01*
X0162155Y0097256D01*
X0161378Y0095381D01*
X0161378Y0093352D01*
X0162155Y0091478D01*
X0163590Y0090043D01*
X0165464Y0089267D01*
X0167493Y0089267D01*
X0169367Y0090043D01*
X0170802Y0091478D01*
X0171478Y0093111D01*
X0172155Y0091478D01*
X0173590Y0090043D01*
X0174278Y0089758D01*
X0174278Y0087778D01*
X0173567Y0087067D01*
X0160890Y0087067D01*
X0159178Y0088778D01*
X0159178Y0115778D01*
X0157890Y0117067D01*
X0155778Y0119178D01*
X0154490Y0120467D01*
X0136930Y0120467D01*
X0136342Y0121055D01*
X0135133Y0121556D01*
X0133824Y0121556D01*
X0132720Y0121098D01*
X0132767Y0121212D01*
X0132767Y0122521D01*
X0132267Y0123730D01*
X0131830Y0124167D01*
X0131874Y0124122D02*
X0166078Y0124122D01*
X0166078Y0122924D02*
X0166878Y0122924D01*
X0166878Y0121725D02*
X0166078Y0121725D01*
X0166078Y0120527D02*
X0166878Y0120527D01*
X0166878Y0119328D02*
X0166078Y0119328D01*
X0166078Y0118130D02*
X0166878Y0118130D01*
X0166878Y0116931D02*
X0166078Y0116931D01*
X0166078Y0115733D02*
X0166878Y0115733D01*
X0166078Y0114534D02*
X0159178Y0114534D01*
X0159178Y0113336D02*
X0161276Y0113336D01*
X0161666Y0112137D02*
X0159178Y0112137D01*
X0159178Y0110939D02*
X0162418Y0110939D01*
X0163884Y0109740D02*
X0159178Y0109740D01*
X0159178Y0108542D02*
X0163208Y0108542D01*
X0162090Y0107343D02*
X0159178Y0107343D01*
X0159178Y0106145D02*
X0161483Y0106145D01*
X0161204Y0104946D02*
X0159178Y0104946D01*
X0159178Y0103748D02*
X0161210Y0103748D01*
X0161496Y0102549D02*
X0159178Y0102549D01*
X0159178Y0101351D02*
X0162119Y0101351D01*
X0163262Y0100152D02*
X0159178Y0100152D01*
X0159178Y0098954D02*
X0164225Y0098954D01*
X0162654Y0097755D02*
X0159178Y0097755D01*
X0159178Y0096556D02*
X0161865Y0096556D01*
X0161378Y0095358D02*
X0159178Y0095358D01*
X0159178Y0094159D02*
X0161378Y0094159D01*
X0161541Y0092961D02*
X0159178Y0092961D01*
X0159178Y0091762D02*
X0162037Y0091762D01*
X0163069Y0090564D02*
X0159178Y0090564D01*
X0159178Y0089365D02*
X0165226Y0089365D01*
X0167731Y0089365D02*
X0174278Y0089365D01*
X0174278Y0088167D02*
X0159789Y0088167D01*
X0156978Y0087867D02*
X0159978Y0084867D01*
X0174478Y0084867D01*
X0176478Y0086867D01*
X0176478Y0094367D01*
X0173069Y0090564D02*
X0169888Y0090564D01*
X0170920Y0091762D02*
X0172037Y0091762D01*
X0171541Y0092961D02*
X0171416Y0092961D01*
X0178678Y0089365D02*
X0192478Y0089365D01*
X0192478Y0088167D02*
X0178678Y0088167D01*
X0178678Y0086968D02*
X0192478Y0086968D01*
X0192478Y0085770D02*
X0178493Y0085770D01*
X0177294Y0084571D02*
X0181621Y0084571D01*
X0183336Y0084571D02*
X0192478Y0084571D01*
X0192478Y0083373D02*
X0185124Y0083373D01*
X0185704Y0082174D02*
X0192478Y0082174D01*
X0192478Y0080976D02*
X0185767Y0080976D01*
X0185380Y0079777D02*
X0192478Y0079777D01*
X0192478Y0078579D02*
X0184342Y0078579D01*
X0181978Y0080867D02*
X0147978Y0080867D01*
X0145833Y0083373D02*
X0142178Y0083373D01*
X0142178Y0084571D02*
X0157162Y0084571D01*
X0155964Y0085770D02*
X0142178Y0085770D01*
X0142178Y0086968D02*
X0154778Y0086968D01*
X0154778Y0088167D02*
X0142178Y0088167D01*
X0142178Y0089365D02*
X0154778Y0089365D01*
X0154778Y0090564D02*
X0142178Y0090564D01*
X0142178Y0091762D02*
X0150931Y0091762D01*
X0151978Y0094367D02*
X0152978Y0094367D01*
X0140478Y0094367D01*
X0139978Y0093867D01*
X0139978Y0071607D01*
X0144528Y0071388D02*
X0167813Y0071388D01*
X0167838Y0071480D02*
X0167729Y0071073D01*
X0167729Y0068904D01*
X0171878Y0068904D01*
X0171878Y0072463D01*
X0169118Y0072463D01*
X0168711Y0072354D01*
X0168346Y0072143D01*
X0168049Y0071845D01*
X0167838Y0071480D01*
X0167729Y0070189D02*
X0144528Y0070189D01*
X0144528Y0068991D02*
X0167729Y0068991D01*
X0167729Y0066594D02*
X0161469Y0066594D01*
X0160270Y0067792D02*
X0171878Y0067792D01*
X0171878Y0068991D02*
X0173078Y0068991D01*
X0173078Y0068904D02*
X0173078Y0072463D01*
X0175839Y0072463D01*
X0176246Y0072354D01*
X0176610Y0072143D01*
X0176908Y0071845D01*
X0177119Y0071480D01*
X0177228Y0071073D01*
X0177228Y0068904D01*
X0173078Y0068904D01*
X0173078Y0067792D02*
X0185378Y0067792D01*
X0185378Y0068991D02*
X0186578Y0068991D01*
X0186578Y0068904D02*
X0186578Y0072463D01*
X0189339Y0072463D01*
X0189746Y0072354D01*
X0190110Y0072143D01*
X0190408Y0071845D01*
X0190619Y0071480D01*
X0190728Y0071073D01*
X0190728Y0068904D01*
X0186578Y0068904D01*
X0186578Y0067792D02*
X0192478Y0067792D01*
X0192478Y0066594D02*
X0190728Y0066594D01*
X0190691Y0065395D02*
X0192478Y0065395D01*
X0192478Y0064197D02*
X0189900Y0064197D01*
X0190528Y0062998D02*
X0192478Y0062998D01*
X0192478Y0061800D02*
X0191157Y0061800D01*
X0192355Y0060601D02*
X0192478Y0060601D01*
X0191478Y0058367D02*
X0189415Y0060430D01*
X0185978Y0060430D01*
X0181429Y0060601D02*
X0179918Y0060601D01*
X0178720Y0061800D02*
X0181429Y0061800D01*
X0181429Y0062998D02*
X0177028Y0062998D01*
X0176400Y0064197D02*
X0182057Y0064197D01*
X0181266Y0065395D02*
X0177191Y0065395D01*
X0177228Y0066594D02*
X0181229Y0066594D01*
X0181229Y0068991D02*
X0177228Y0068991D01*
X0177228Y0070189D02*
X0181229Y0070189D01*
X0181313Y0071388D02*
X0177144Y0071388D01*
X0173078Y0071388D02*
X0171878Y0071388D01*
X0171878Y0070189D02*
X0173078Y0070189D01*
X0167766Y0065395D02*
X0162667Y0065395D01*
X0162728Y0064197D02*
X0168557Y0064197D01*
X0164459Y0062998D02*
X0162728Y0062998D01*
X0158178Y0062998D02*
X0157778Y0062998D01*
X0157778Y0063567D02*
X0153228Y0063567D01*
X0153228Y0065334D01*
X0156011Y0068117D01*
X0157778Y0068117D01*
X0157778Y0063567D01*
X0157778Y0064197D02*
X0158178Y0064197D01*
X0158178Y0065395D02*
X0157778Y0065395D01*
X0157778Y0066594D02*
X0158178Y0066594D01*
X0158178Y0067792D02*
X0157778Y0067792D01*
X0155687Y0067792D02*
X0144001Y0067792D01*
X0144528Y0066594D02*
X0145554Y0066594D01*
X0147978Y0064367D02*
X0147738Y0064127D01*
X0139978Y0064127D01*
X0144528Y0061800D02*
X0145894Y0061800D01*
X0144142Y0060601D02*
X0154026Y0060601D01*
X0153228Y0061800D02*
X0150063Y0061800D01*
X0150972Y0062998D02*
X0153228Y0062998D01*
X0153228Y0064197D02*
X0151267Y0064197D01*
X0151112Y0065395D02*
X0153289Y0065395D01*
X0154488Y0066594D02*
X0150403Y0066594D01*
X0144528Y0072586D02*
X0192478Y0072586D01*
X0192478Y0071388D02*
X0190644Y0071388D01*
X0190728Y0070189D02*
X0192478Y0070189D01*
X0192478Y0068991D02*
X0190728Y0068991D01*
X0186578Y0070189D02*
X0185378Y0070189D01*
X0185378Y0071388D02*
X0186578Y0071388D01*
X0192478Y0073785D02*
X0144528Y0073785D01*
X0144291Y0074983D02*
X0192478Y0074983D01*
X0192478Y0076182D02*
X0142178Y0076182D01*
X0142178Y0077380D02*
X0192478Y0077380D01*
X0182478Y0081367D02*
X0181978Y0080867D01*
X0179833Y0083373D02*
X0176096Y0083373D01*
X0180615Y0078579D02*
X0150342Y0078579D01*
X0145615Y0078579D02*
X0142178Y0078579D01*
X0142178Y0079777D02*
X0144870Y0079777D01*
X0144689Y0080976D02*
X0142178Y0080976D01*
X0142178Y0082174D02*
X0144960Y0082174D01*
X0150124Y0083373D02*
X0158361Y0083373D01*
X0156978Y0087867D02*
X0156978Y0114867D01*
X0153578Y0118267D01*
X0134478Y0118267D01*
X0105678Y0118267D01*
X0105678Y0115067D02*
X0105478Y0114867D01*
X0100167Y0114867D01*
X0105678Y0108767D02*
X0116578Y0108767D01*
X0116767Y0108956D01*
X0123278Y0105667D02*
X0123478Y0105867D01*
X0123278Y0105667D02*
X0105678Y0105667D01*
X0105678Y0102467D02*
X0105778Y0102367D01*
X0113478Y0102367D01*
X0106678Y0098367D02*
X0138978Y0098367D01*
X0140478Y0094367D02*
X0124478Y0094367D01*
X0124978Y0093867D01*
X0124978Y0087867D01*
X0121839Y0084571D02*
X0107295Y0084571D01*
X0107767Y0085770D02*
X0120922Y0085770D01*
X0120428Y0086968D02*
X0107767Y0086968D01*
X0107293Y0088167D02*
X0120428Y0088167D01*
X0120674Y0089365D02*
X0106678Y0089365D01*
X0106678Y0090564D02*
X0121241Y0090564D01*
X0122494Y0091762D02*
X0107486Y0091762D01*
X0106978Y0094367D02*
X0124478Y0094367D01*
X0127463Y0091762D02*
X0137778Y0091762D01*
X0137778Y0090564D02*
X0128716Y0090564D01*
X0129283Y0089365D02*
X0137778Y0089365D01*
X0137778Y0088167D02*
X0129528Y0088167D01*
X0129528Y0086968D02*
X0137778Y0086968D01*
X0137778Y0085770D02*
X0129035Y0085770D01*
X0128118Y0084571D02*
X0137778Y0084571D01*
X0137778Y0083373D02*
X0126019Y0083373D01*
X0125178Y0082617D02*
X0126946Y0082617D01*
X0129728Y0079834D01*
X0129728Y0078067D01*
X0125179Y0078067D01*
X0125179Y0077667D01*
X0129728Y0077667D01*
X0129728Y0075899D01*
X0126946Y0073117D01*
X0125178Y0073117D01*
X0125178Y0077667D01*
X0124778Y0077667D01*
X0120228Y0077667D01*
X0120228Y0075899D01*
X0123011Y0073117D01*
X0124778Y0073117D01*
X0124778Y0077667D01*
X0124778Y0078067D01*
X0120228Y0078067D01*
X0120228Y0079834D01*
X0123011Y0082617D01*
X0124778Y0082617D01*
X0124778Y0078067D01*
X0125178Y0078067D01*
X0125178Y0082617D01*
X0125178Y0082174D02*
X0124778Y0082174D01*
X0124778Y0080976D02*
X0125178Y0080976D01*
X0125178Y0079777D02*
X0124778Y0079777D01*
X0124778Y0078579D02*
X0125178Y0078579D01*
X0125178Y0077380D02*
X0124778Y0077380D01*
X0124778Y0076182D02*
X0125178Y0076182D01*
X0125178Y0074983D02*
X0124778Y0074983D01*
X0124778Y0073785D02*
X0125178Y0073785D01*
X0127614Y0073785D02*
X0135429Y0073785D01*
X0135429Y0072586D02*
X0104803Y0072586D01*
X0104978Y0071388D02*
X0135429Y0071388D01*
X0135429Y0070189D02*
X0104820Y0070189D01*
X0104259Y0068991D02*
X0135429Y0068991D01*
X0135956Y0067792D02*
X0103178Y0067792D01*
X0103178Y0066594D02*
X0135429Y0066594D01*
X0135429Y0065395D02*
X0103178Y0065395D01*
X0103178Y0064197D02*
X0135429Y0064197D01*
X0135429Y0062998D02*
X0103178Y0062998D01*
X0103178Y0061800D02*
X0135429Y0061800D01*
X0135815Y0060601D02*
X0103178Y0060601D01*
X0105528Y0059403D02*
X0155225Y0059403D01*
X0157778Y0059403D02*
X0158178Y0059403D01*
X0158178Y0060601D02*
X0157778Y0060601D01*
X0157778Y0061800D02*
X0158178Y0061800D01*
X0160774Y0057006D02*
X0168214Y0057006D01*
X0176978Y0060430D02*
X0184301Y0053107D01*
X0186597Y0053107D01*
X0183266Y0051013D02*
X0180228Y0051013D01*
X0180322Y0049815D02*
X0188815Y0049815D01*
X0187617Y0048616D02*
X0180322Y0048616D01*
X0180069Y0047418D02*
X0182963Y0047418D01*
X0182835Y0046219D02*
X0180122Y0046219D01*
X0180122Y0045021D02*
X0182835Y0045021D01*
X0182977Y0043822D02*
X0179980Y0043822D01*
X0186597Y0045627D02*
X0187738Y0045627D01*
X0191478Y0049367D01*
X0191478Y0058367D01*
X0181429Y0059403D02*
X0181117Y0059403D01*
X0180887Y0053410D02*
X0180122Y0053410D01*
X0180122Y0052212D02*
X0182085Y0052212D01*
X0190359Y0045021D02*
X0192478Y0045021D01*
X0192478Y0046219D02*
X0191442Y0046219D01*
X0192478Y0043822D02*
X0190217Y0043822D01*
X0192478Y0042623D02*
X0155178Y0042623D01*
X0155178Y0041425D02*
X0192478Y0041425D01*
X0192478Y0040226D02*
X0155178Y0040226D01*
X0155178Y0039028D02*
X0192478Y0039028D01*
X0192478Y0037829D02*
X0155178Y0037829D01*
X0155178Y0036631D02*
X0192478Y0036631D01*
X0192478Y0035432D02*
X0172397Y0035432D01*
X0172475Y0035375D02*
X0171889Y0035801D01*
X0171244Y0036130D01*
X0170556Y0036353D01*
X0169878Y0036461D01*
X0169878Y0029267D01*
X0169078Y0029267D01*
X0169078Y0028467D01*
X0164878Y0028467D01*
X0164878Y0025505D01*
X0164992Y0024789D01*
X0165215Y0024101D01*
X0165544Y0023456D01*
X0165970Y0022870D01*
X0166482Y0022358D01*
X0167068Y0021932D01*
X0167197Y0021867D01*
X0167068Y0021801D01*
X0166482Y0021375D01*
X0165970Y0020863D01*
X0165544Y0020278D01*
X0165215Y0019632D01*
X0164992Y0018944D01*
X0164878Y0018229D01*
X0164878Y0015267D01*
X0169078Y0015267D01*
X0169078Y0014467D01*
X0164878Y0014467D01*
X0164878Y0011505D01*
X0164992Y0010789D01*
X0165215Y0010101D01*
X0165544Y0009456D01*
X0165970Y0008870D01*
X0166482Y0008358D01*
X0167068Y0007932D01*
X0167713Y0007604D01*
X0168401Y0007380D01*
X0169078Y0007273D01*
X0169078Y0014467D01*
X0169878Y0014467D01*
X0169878Y0007273D01*
X0170556Y0007380D01*
X0171244Y0007604D01*
X0171889Y0007932D01*
X0172475Y0008358D01*
X0172987Y0008870D01*
X0173413Y0009456D01*
X0173741Y0010101D01*
X0173965Y0010789D01*
X0174078Y0011505D01*
X0174078Y0014467D01*
X0169879Y0014467D01*
X0169879Y0015267D01*
X0174078Y0015267D01*
X0174078Y0018229D01*
X0173965Y0018944D01*
X0173741Y0019632D01*
X0173413Y0020278D01*
X0172987Y0020863D01*
X0172475Y0021375D01*
X0171889Y0021801D01*
X0171760Y0021867D01*
X0171889Y0021932D01*
X0172475Y0022358D01*
X0172987Y0022870D01*
X0173413Y0023456D01*
X0173741Y0024101D01*
X0173965Y0024789D01*
X0174078Y0025505D01*
X0174078Y0028467D01*
X0169879Y0028467D01*
X0169879Y0029267D01*
X0174078Y0029267D01*
X0174078Y0032229D01*
X0173965Y0032944D01*
X0173741Y0033632D01*
X0173413Y0034278D01*
X0172987Y0034863D01*
X0172475Y0035375D01*
X0173435Y0034234D02*
X0192478Y0034234D01*
X0192478Y0033035D02*
X0173935Y0033035D01*
X0174078Y0031837D02*
X0192478Y0031837D01*
X0192478Y0030638D02*
X0174078Y0030638D01*
X0174078Y0029440D02*
X0192478Y0029440D01*
X0192478Y0028241D02*
X0174078Y0028241D01*
X0174078Y0027043D02*
X0192478Y0027043D01*
X0192478Y0025844D02*
X0174078Y0025844D01*
X0173918Y0024646D02*
X0192478Y0024646D01*
X0192478Y0023447D02*
X0173407Y0023447D01*
X0172325Y0022249D02*
X0192478Y0022249D01*
X0192478Y0021050D02*
X0188048Y0021050D01*
X0184909Y0021050D02*
X0172800Y0021050D01*
X0173630Y0019852D02*
X0182075Y0019852D01*
X0180877Y0018653D02*
X0174011Y0018653D01*
X0174078Y0017455D02*
X0179838Y0017455D01*
X0179342Y0016256D02*
X0174078Y0016256D01*
X0174078Y0013859D02*
X0178779Y0013859D01*
X0178779Y0012661D02*
X0174078Y0012661D01*
X0174072Y0011462D02*
X0178934Y0011462D01*
X0179430Y0010264D02*
X0173794Y0010264D01*
X0173129Y0009065D02*
X0179927Y0009065D01*
X0181090Y0007867D02*
X0171760Y0007867D01*
X0169878Y0007867D02*
X0169078Y0007867D01*
X0169078Y0009065D02*
X0169878Y0009065D01*
X0169878Y0010264D02*
X0169078Y0010264D01*
X0169078Y0011462D02*
X0169878Y0011462D01*
X0169878Y0012661D02*
X0169078Y0012661D01*
X0169078Y0013859D02*
X0169878Y0013859D01*
X0169879Y0015058D02*
X0178845Y0015058D01*
X0169878Y0015267D02*
X0169078Y0015267D01*
X0169078Y0022461D01*
X0169078Y0028467D01*
X0169878Y0028467D01*
X0169878Y0015267D01*
X0169078Y0015058D02*
X0163878Y0015058D01*
X0163878Y0016256D02*
X0164878Y0016256D01*
X0164878Y0017455D02*
X0163878Y0017455D01*
X0163878Y0018653D02*
X0164946Y0018653D01*
X0165327Y0019852D02*
X0163419Y0019852D01*
X0162517Y0021050D02*
X0166157Y0021050D01*
X0166632Y0022249D02*
X0162083Y0022249D01*
X0163239Y0023447D02*
X0165550Y0023447D01*
X0165038Y0024646D02*
X0163735Y0024646D01*
X0163878Y0025844D02*
X0164878Y0025844D01*
X0164878Y0027043D02*
X0163878Y0027043D01*
X0163878Y0028241D02*
X0164878Y0028241D01*
X0164878Y0029267D02*
X0169078Y0029267D01*
X0169078Y0036461D01*
X0168401Y0036353D01*
X0167713Y0036130D01*
X0167068Y0035801D01*
X0166482Y0035375D01*
X0165970Y0034863D01*
X0165544Y0034278D01*
X0165215Y0033632D01*
X0164992Y0032944D01*
X0164878Y0032229D01*
X0164878Y0029267D01*
X0164878Y0029440D02*
X0163878Y0029440D01*
X0163878Y0030638D02*
X0164878Y0030638D01*
X0164878Y0031837D02*
X0163878Y0031837D01*
X0163757Y0033035D02*
X0165021Y0033035D01*
X0165522Y0034234D02*
X0163260Y0034234D01*
X0162135Y0035432D02*
X0166560Y0035432D01*
X0169078Y0035432D02*
X0169878Y0035432D01*
X0169878Y0034234D02*
X0169078Y0034234D01*
X0169078Y0033035D02*
X0169878Y0033035D01*
X0169878Y0031837D02*
X0169078Y0031837D01*
X0169078Y0030638D02*
X0169878Y0030638D01*
X0169878Y0029440D02*
X0169078Y0029440D01*
X0169078Y0028241D02*
X0169878Y0028241D01*
X0169878Y0027043D02*
X0169078Y0027043D01*
X0169078Y0025844D02*
X0169878Y0025844D01*
X0169878Y0024646D02*
X0169078Y0024646D01*
X0169078Y0023447D02*
X0169878Y0023447D01*
X0169878Y0022249D02*
X0169078Y0022249D01*
X0169078Y0021050D02*
X0169878Y0021050D01*
X0169878Y0019852D02*
X0169078Y0019852D01*
X0169078Y0018653D02*
X0169878Y0018653D01*
X0169878Y0017455D02*
X0169078Y0017455D01*
X0169078Y0016256D02*
X0169878Y0016256D01*
X0164878Y0013859D02*
X0163878Y0013859D01*
X0163878Y0012661D02*
X0164878Y0012661D01*
X0164885Y0011462D02*
X0163878Y0011462D01*
X0163577Y0010264D02*
X0165163Y0010264D01*
X0165828Y0009065D02*
X0162900Y0009065D01*
X0161319Y0007867D02*
X0167197Y0007867D01*
X0157638Y0007867D02*
X0026867Y0007867D01*
X0028030Y0009065D02*
X0156057Y0009065D01*
X0155380Y0010264D02*
X0028527Y0010264D01*
X0015478Y0029440D02*
X0150778Y0029440D01*
X0150778Y0030638D02*
X0015478Y0030638D01*
X0015478Y0031837D02*
X0150778Y0031837D01*
X0150778Y0033035D02*
X0015478Y0033035D01*
X0015478Y0034234D02*
X0150778Y0034234D01*
X0150778Y0035432D02*
X0015478Y0035432D01*
X0015478Y0036631D02*
X0150778Y0036631D01*
X0150778Y0037829D02*
X0015478Y0037829D01*
X0015478Y0039028D02*
X0106195Y0039028D01*
X0106686Y0038537D02*
X0108303Y0037867D01*
X0116054Y0037867D01*
X0117671Y0038537D01*
X0118909Y0039774D01*
X0119578Y0041391D01*
X0119578Y0043142D01*
X0118909Y0044759D01*
X0117671Y0045997D01*
X0116054Y0046667D01*
X0108303Y0046667D01*
X0106686Y0045997D01*
X0105448Y0044759D01*
X0104778Y0043142D01*
X0104778Y0041391D01*
X0105448Y0039774D01*
X0106686Y0038537D01*
X0105261Y0040226D02*
X0015478Y0040226D01*
X0015478Y0041425D02*
X0104778Y0041425D01*
X0104778Y0042623D02*
X0015478Y0042623D01*
X0015478Y0043822D02*
X0105060Y0043822D01*
X0105448Y0045021D02*
X0105710Y0045021D01*
X0105728Y0046219D02*
X0107223Y0046219D01*
X0105728Y0047418D02*
X0150778Y0047418D01*
X0150778Y0046219D02*
X0142734Y0046219D01*
X0143271Y0045997D02*
X0141654Y0046667D01*
X0133903Y0046667D01*
X0132286Y0045997D01*
X0131048Y0044759D01*
X0130378Y0043142D01*
X0130378Y0041391D01*
X0131048Y0039774D01*
X0132286Y0038537D01*
X0133903Y0037867D01*
X0141654Y0037867D01*
X0143271Y0038537D01*
X0144509Y0039774D01*
X0145178Y0041391D01*
X0145178Y0043142D01*
X0144509Y0044759D01*
X0143271Y0045997D01*
X0144247Y0045021D02*
X0150778Y0045021D01*
X0150778Y0043822D02*
X0144897Y0043822D01*
X0145178Y0042623D02*
X0150778Y0042623D01*
X0150778Y0041425D02*
X0145178Y0041425D01*
X0144696Y0040226D02*
X0150778Y0040226D01*
X0150778Y0039028D02*
X0143762Y0039028D01*
X0155178Y0035432D02*
X0156822Y0035432D01*
X0155696Y0034234D02*
X0155178Y0034234D01*
X0155178Y0033035D02*
X0155200Y0033035D01*
X0150778Y0028241D02*
X0143409Y0028241D01*
X0144593Y0027043D02*
X0150778Y0027043D01*
X0138178Y0027043D02*
X0137378Y0027043D01*
X0137378Y0028241D02*
X0138178Y0028241D01*
X0138178Y0025844D02*
X0137378Y0025844D01*
X0137378Y0023447D02*
X0138178Y0023447D01*
X0138178Y0022249D02*
X0137378Y0022249D01*
X0137378Y0021050D02*
X0138178Y0021050D01*
X0131689Y0021050D02*
X0118267Y0021050D01*
X0119211Y0022249D02*
X0130746Y0022249D01*
X0130283Y0023447D02*
X0119674Y0023447D01*
X0119568Y0025844D02*
X0130389Y0025844D01*
X0130964Y0027043D02*
X0118993Y0027043D01*
X0117809Y0028241D02*
X0132148Y0028241D01*
X0131795Y0039028D02*
X0118162Y0039028D01*
X0119096Y0040226D02*
X0130861Y0040226D01*
X0130378Y0041425D02*
X0119578Y0041425D01*
X0119578Y0042623D02*
X0130378Y0042623D01*
X0130660Y0043822D02*
X0119297Y0043822D01*
X0118647Y0045021D02*
X0131310Y0045021D01*
X0132823Y0046219D02*
X0117134Y0046219D01*
X0101578Y0046219D02*
X0100378Y0046219D01*
X0100378Y0045021D02*
X0101578Y0045021D01*
X0100978Y0056367D02*
X0100978Y0071367D01*
X0100478Y0071867D01*
X0100478Y0094167D01*
X0104478Y0091867D02*
X0106978Y0094367D01*
X0104478Y0091867D02*
X0104478Y0086367D01*
X0103112Y0083373D02*
X0102678Y0083373D01*
X0102678Y0082174D02*
X0122569Y0082174D01*
X0121370Y0080976D02*
X0102678Y0080976D01*
X0102678Y0079777D02*
X0120228Y0079777D01*
X0120228Y0078579D02*
X0102678Y0078579D01*
X0102678Y0077380D02*
X0120228Y0077380D01*
X0120228Y0076182D02*
X0102678Y0076182D01*
X0102700Y0074983D02*
X0121144Y0074983D01*
X0122343Y0073785D02*
X0104217Y0073785D01*
X0097154Y0072586D02*
X0096809Y0072586D01*
X0096978Y0071388D02*
X0095611Y0071388D01*
X0094412Y0070189D02*
X0097137Y0070189D01*
X0105845Y0083373D02*
X0123938Y0083373D01*
X0127388Y0082174D02*
X0137778Y0082174D01*
X0137778Y0080976D02*
X0128587Y0080976D01*
X0129728Y0079777D02*
X0137778Y0079777D01*
X0137778Y0078579D02*
X0129728Y0078579D01*
X0129728Y0077380D02*
X0137778Y0077380D01*
X0137778Y0076182D02*
X0129728Y0076182D01*
X0128813Y0074983D02*
X0135666Y0074983D01*
X0106678Y0098367D02*
X0105678Y0099367D01*
X0086280Y0112137D02*
X0077578Y0112137D01*
X0087878Y0122924D02*
X0087879Y0122924D01*
X0087878Y0124122D02*
X0087879Y0124122D01*
X0087878Y0125321D02*
X0087879Y0125321D01*
X0087878Y0126519D02*
X0087879Y0126519D01*
X0124693Y0136107D02*
X0153278Y0136107D01*
X0153278Y0137306D02*
X0126640Y0137306D01*
X0127470Y0138504D02*
X0154005Y0138504D01*
X0155203Y0139703D02*
X0127878Y0139703D01*
X0127878Y0140901D02*
X0156402Y0140901D01*
X0159029Y0137306D02*
X0162063Y0137306D01*
X0161471Y0136107D02*
X0157830Y0136107D01*
X0157678Y0134909D02*
X0161198Y0134909D01*
X0161216Y0133710D02*
X0157678Y0133710D01*
X0157678Y0132512D02*
X0161508Y0132512D01*
X0162146Y0131313D02*
X0157678Y0131313D01*
X0157678Y0130115D02*
X0163314Y0130115D01*
X0163733Y0128916D02*
X0157678Y0128916D01*
X0157441Y0127718D02*
X0162362Y0127718D01*
X0161627Y0126519D02*
X0156242Y0126519D01*
X0155044Y0125321D02*
X0161264Y0125321D01*
X0161375Y0122924D02*
X0132601Y0122924D01*
X0132767Y0121725D02*
X0161876Y0121725D01*
X0162823Y0120527D02*
X0136870Y0120527D01*
X0155628Y0119328D02*
X0164597Y0119328D01*
X0162746Y0118130D02*
X0156827Y0118130D01*
X0155778Y0119178D02*
X0155778Y0119178D01*
X0158025Y0116931D02*
X0161837Y0116931D01*
X0161350Y0115733D02*
X0159178Y0115733D01*
X0166078Y0113336D02*
X0166878Y0113336D01*
X0166878Y0112137D02*
X0166078Y0112137D01*
X0166078Y0110939D02*
X0166878Y0110939D01*
X0166878Y0109740D02*
X0166078Y0109740D01*
X0166078Y0108542D02*
X0166878Y0108542D01*
X0166878Y0107343D02*
X0166078Y0107343D01*
X0166078Y0106145D02*
X0166878Y0106145D01*
X0166878Y0104946D02*
X0166078Y0104946D01*
X0178636Y0109740D02*
X0192478Y0109740D01*
X0192478Y0108542D02*
X0179516Y0108542D01*
X0180714Y0107343D02*
X0192478Y0107343D01*
X0192478Y0106145D02*
X0181262Y0106145D01*
X0181578Y0104946D02*
X0192478Y0104946D01*
X0192478Y0103748D02*
X0181578Y0103748D01*
X0181246Y0102549D02*
X0192478Y0102549D01*
X0192478Y0101351D02*
X0180675Y0101351D01*
X0179476Y0100152D02*
X0192478Y0100152D01*
X0192478Y0098954D02*
X0178732Y0098954D01*
X0180303Y0097755D02*
X0192478Y0097755D01*
X0192478Y0096556D02*
X0181092Y0096556D01*
X0181578Y0095358D02*
X0192478Y0095358D01*
X0192478Y0094159D02*
X0181578Y0094159D01*
X0181416Y0092961D02*
X0192478Y0092961D01*
X0192478Y0091762D02*
X0180920Y0091762D01*
X0179888Y0090564D02*
X0192478Y0090564D01*
X0192478Y0110939D02*
X0180263Y0110939D01*
X0181075Y0112137D02*
X0192478Y0112137D01*
X0192478Y0113336D02*
X0181572Y0113336D01*
X0181578Y0114534D02*
X0192478Y0114534D01*
X0192478Y0115733D02*
X0181433Y0115733D01*
X0180936Y0116931D02*
X0192478Y0116931D01*
X0192478Y0118130D02*
X0179928Y0118130D01*
X0177827Y0119328D02*
X0192478Y0119328D01*
X0166878Y0125321D02*
X0166078Y0125321D01*
X0166078Y0126519D02*
X0166878Y0126519D01*
X0166878Y0127718D02*
X0166078Y0127718D01*
X0166078Y0128916D02*
X0166878Y0128916D01*
X0166878Y0130115D02*
X0166078Y0130115D01*
X0166078Y0131313D02*
X0166878Y0131313D01*
X0166878Y0132512D02*
X0166078Y0132512D01*
X0166078Y0133710D02*
X0166878Y0133710D01*
X0127538Y0160078D02*
X0116990Y0160078D01*
X0117402Y0169666D02*
X0132528Y0169666D01*
X0105478Y0172367D02*
X0103478Y0170367D01*
X0103478Y0167367D01*
X0155178Y0043822D02*
X0169912Y0043822D01*
X0190882Y0019852D02*
X0192478Y0019852D01*
X0192478Y0018653D02*
X0192080Y0018653D01*
X0094601Y0012661D02*
X0087822Y0012661D01*
X0089694Y0013859D02*
X0092981Y0013859D01*
X0092237Y0015058D02*
X0090492Y0015058D01*
X0090878Y0016256D02*
X0091918Y0016256D01*
X0091878Y0017455D02*
X0090878Y0017455D01*
X0090878Y0018653D02*
X0091878Y0018653D01*
X0085135Y0012661D02*
X0077822Y0012661D01*
X0079694Y0013859D02*
X0083263Y0013859D01*
X0082465Y0015058D02*
X0080492Y0015058D01*
X0080878Y0016256D02*
X0082078Y0016256D01*
X0082078Y0017455D02*
X0080878Y0017455D01*
X0080878Y0018653D02*
X0082078Y0018653D01*
X0082078Y0019852D02*
X0080878Y0019852D01*
X0080878Y0021050D02*
X0082078Y0021050D01*
X0082078Y0022249D02*
X0080878Y0022249D01*
X0080878Y0023447D02*
X0082078Y0023447D01*
X0082453Y0024646D02*
X0080504Y0024646D01*
X0079723Y0025844D02*
X0083234Y0025844D01*
D23*
X0037478Y0083367D03*
X0031267Y0097867D03*
X0044478Y0098367D03*
X0052663Y0112056D03*
X0055978Y0115367D03*
X0060478Y0118356D03*
X0082978Y0117367D03*
X0086978Y0108867D03*
X0100167Y0114867D03*
X0113478Y0102367D03*
X0116767Y0108956D03*
X0123478Y0105867D03*
X0134478Y0118267D03*
X0129478Y0121867D03*
X0116767Y0134867D03*
X0098478Y0135367D03*
X0129478Y0157367D03*
X0134478Y0150867D03*
X0134478Y0172367D03*
X0138978Y0175367D03*
X0176478Y0157367D03*
X0138978Y0098367D03*
X0152978Y0094367D03*
X0147978Y0080867D03*
X0147978Y0064367D03*
X0166478Y0060367D03*
X0182478Y0081367D03*
X0104478Y0086367D03*
X0093228Y0086617D03*
X0073478Y0093867D03*
X0066978Y0091867D03*
X0035056Y0117367D03*
D24*
X0038978Y0110867D02*
X0039541Y0110867D01*
M02*
